<?xml version="1.0" encoding="UTF-8"?>
<svg width="30px" height="30px" viewBox="0 0 30 30" version="1.1" xmlns="http://www.w3.org/2000/svg" xmlns:xlink="http://www.w3.org/1999/xlink">
    <!-- Generator: Sketch 52.5 (67469) - http://www.bohemiancoding.com/sketch -->
    <title>agile</title>
    <desc>Created with Sketch.</desc>
    <g id="agile" stroke="none" stroke-width="1" fill="none" fill-rule="evenodd">
        <g id="shuffle" transform="translate(1.000000, 2.000000)" fill="#44CB67">
            <g id="Shuffle">
                <path d="M21.1302,7.9716 L22.4182,7.9716 L22.4182,11.9784 L28,6.3448 L22.4168,0.7098 L22.4168,4.0516 L21.1288,4.0516 C15.9572,4.0516 13.0424,7.8848 10.4692,11.2644 C8.1564,14.3052 6.1572,16.933 2.9288,16.933 L0,16.933 L0,20.8516 L2.9302,20.8516 C8.1018,20.8516 11.0166,17.0212 13.5898,13.6388 C15.9026,10.5966 17.9018,7.9716 21.1302,7.9716 L21.1302,7.9716 Z M7.574,10.4412 C7.7952,10.157 8.0164,9.8644 8.2418,9.569 C8.7878,8.8494 9.3674,8.092 9.9946,7.3346 C8.1438,5.607 5.9136,4.333 2.9302,4.333 L0,4.333 L0,8.2516 L2.9302,8.2516 C4.788,8.2516 6.237,9.1238 7.574,10.4412 L7.574,10.4412 Z M22.4168,17.2116 L21.1288,17.2116 C19.159,17.2116 17.647,16.2302 16.2414,14.7784 C16.1014,14.9618 15.96,15.148 15.8172,15.3342 C15.1998,16.1462 14.5362,17.0156 13.8026,17.8794 C15.701,19.733 18.0026,21.133 21.1274,21.133 L22.4154,21.133 L22.4154,24.4902 L28,18.8552 L22.4168,13.2202 L22.4168,17.2116 L22.4168,17.2116 Z" id="Shape"></path>
            </g>
        </g>
    </g>
</svg>