<svg xmlns="http://www.w3.org/2000/svg" viewBox="0 0 120 120"><defs><style>.cls-1{fill:#44cb67;}.cls-2,.cls-3{fill:#3181ff;}.cls-2{opacity:0.15;}.cls-4{fill:#1e55eb;}.cls-5{fill:#85e870;}.cls-6{fill:#192d9b;}.cls-10,.cls-11,.cls-15,.cls-18,.cls-19,.cls-22,.cls-7,.cls-8,.cls-9{fill:none;}.cls-7{stroke:#192d9b;}.cls-10,.cls-15,.cls-18,.cls-22,.cls-7,.cls-8,.cls-9{stroke-linecap:round;}.cls-10,.cls-11,.cls-13,.cls-16,.cls-19,.cls-20,.cls-21,.cls-22,.cls-23,.cls-7{stroke-linejoin:round;}.cls-10,.cls-11,.cls-19,.cls-20,.cls-21,.cls-22,.cls-23,.cls-7,.cls-8{stroke-width:2px;}.cls-8{stroke:#3b6bee;}.cls-10,.cls-11,.cls-13,.cls-15,.cls-20,.cls-23,.cls-9{stroke:#50aaff;}.cls-15,.cls-18,.cls-9{stroke-miterlimit:10;}.cls-12{opacity:0.3;}.cls-13,.cls-14,.cls-20{fill:#50aaff;}.cls-13,.cls-15,.cls-16,.cls-18{stroke-width:3px;}.cls-16{fill:#e6f5ff;}.cls-16,.cls-18,.cls-19,.cls-21{stroke:#1e55eb;}.cls-17{fill:#bbe8ff;}.cls-21{fill:#f0ffd7;}.cls-22{stroke:#fff;}.cls-23{fill:#fff;}</style></defs><title>bike-repair</title><circle class="cls-1" cx="19.19" cy="10.29" r="2.31"/><circle class="cls-2" cx="85.28" cy="117.59" r="2.41"/><circle class="cls-3" cx="84.3" cy="116.61" r="2.41"/><circle class="cls-4" cx="37.57" cy="1.55" r="1.55"/><circle class="cls-5" cx="119" cy="39.06" r="1"/><circle class="cls-6" cx="28.59" cy="105.27" r="1.03"/><line class="cls-7" x1="109.19" y1="20.4" x2="106.31" y2="19.57"/><line class="cls-7" x1="104.33" y1="25.08" x2="103.61" y2="22.17"/><line class="cls-7" x1="97.84" y1="23.22" x2="100" y2="21.14"/><line class="cls-7" x1="96.21" y1="16.68" x2="99.09" y2="17.5"/><line class="cls-7" x1="101.07" y1="11.99" x2="101.79" y2="14.9"/><line class="cls-7" x1="107.56" y1="13.85" x2="105.4" y2="15.93"/><path class="cls-8" d="M107,113.53a6.52,6.52,0,0,1-7.74.7"/><path class="cls-8" d="M96.28,110a6.56,6.56,0,0,1,3.28-7.06"/><path class="cls-8" d="M104.77,102.43a6.55,6.55,0,0,1,4.47,6.36"/><circle class="cls-1" cx="3.13" cy="78.45" r="2.89"/><path class="cls-9" d="M82.84,75.93A1.5,1.5,0,1,1,83,73.82,1.49,1.49,0,0,1,82.84,75.93Z"/><polyline class="cls-10" points="85.72 79.14 90.08 84 84.21 89.87 55.75 64.34 29.92 35.58 35.79 29.71 64.55 55.54 77.97 70.5"/><polygon class="cls-11" points="84.21 29.71 90.08 35.58 64.55 64.05 35.79 89.87 29.92 84 55.75 55.24 84.21 29.71"/><polygon class="cls-11" points="64.15 98.18 55.85 98.18 53.77 60 55.85 21.41 64.15 21.41 66.22 60 64.15 98.18"/><polygon class="cls-11" points="98.39 55.64 98.39 63.94 60.21 66.02 21.61 63.94 21.61 55.64 60.21 53.57 98.39 55.64"/><g class="cls-12"><path class="cls-13" d="M63,21.43A41.57,41.57,0,1,0,104.57,63,41.57,41.57,0,0,0,63,21.43ZM63,99.5A36.5,36.5,0,1,1,99.5,63,36.5,36.5,0,0,1,63,99.5Z"/><path class="cls-14" d="M63,15.82A47.18,47.18,0,1,0,110.18,63,47.18,47.18,0,0,0,63,15.82Zm0,87.59A40.41,40.41,0,1,1,103.41,63,40.41,40.41,0,0,1,63,103.41Z"/><path class="cls-15" d="M17.33,51.1A47.19,47.19,0,1,0,63,15.82c-1,0-2,0-2.93.09"/><circle class="cls-11" cx="63" cy="63" r="40.41"/></g><path class="cls-16" d="M60,18.43A41.57,41.57,0,1,0,101.57,60,41.57,41.57,0,0,0,60,18.43ZM60,96.5A36.5,36.5,0,1,1,96.5,60,36.5,36.5,0,0,1,60,96.5Z"/><path class="cls-17" d="M60,12.82A47.18,47.18,0,1,0,107.18,60,47.18,47.18,0,0,0,60,12.82Zm0,87.59A40.41,40.41,0,1,1,100.41,60,40.41,40.41,0,0,1,60,100.41Z"/><path class="cls-18" d="M14.33,48.1A47.19,47.19,0,1,0,60,12.82c-1,0-2,0-2.93.09"/><circle class="cls-11" cx="60" cy="60" r="40.41"/><line class="cls-19" x1="52.43" y1="15.99" x2="51.59" y2="11.06"/><line class="cls-19" x1="46.8" y1="17.31" x2="45.32" y2="12.53"/><line class="cls-19" x1="41.4" y1="19.4" x2="39.32" y2="14.85"/><line class="cls-19" x1="36.31" y1="22.14" x2="33.65" y2="17.91"/><line class="cls-19" x1="31.6" y1="25.51" x2="28.42" y2="21.66"/><line class="cls-19" x1="27.39" y1="29.5" x2="23.74" y2="26.08"/><line class="cls-19" x1="23.72" y1="33.97" x2="19.66" y2="31.05"/><line class="cls-19" x1="20.62" y1="38.87" x2="16.22" y2="36.5"/><line class="cls-19" x1="18.25" y1="44.14" x2="13.57" y2="42.37"/><g class="cls-12"><path class="cls-20" d="M22.7,97.24,45.79,77.32a17.32,17.32,0,0,0,23.05-5l-13.07,0-4.7-9.9,4.66-10.35,12.81,0a17.33,17.33,0,0,0-30.16,16.4L14.93,88.77A5.75,5.75,0,0,0,14.72,97h0A5.74,5.74,0,0,0,22.7,97.24Z"/><path class="cls-10" d="M51.8,49.36q.42-.09.84-.15"/><path class="cls-10" d="M22.9,86.88,43.07,69.6l-1-2.53A13.35,13.35,0,0,1,41.36,61a13.51,13.51,0,0,1,7.47-10.54"/><circle class="cls-20" cx="18.81" cy="93.05" r="2.42"/><path class="cls-14" d="M62.58,55.08a6.94,6.94,0,1,0,6.34,7.5A6.95,6.95,0,0,0,62.58,55.08ZM61.83,64A2,2,0,1,1,64,62.17,2,2,0,0,1,61.83,64Z"/><path class="cls-11" d="M62.58,55.08a6.94,6.94,0,1,0,6.34,7.5A6.95,6.95,0,0,0,62.58,55.08ZM61.83,64A2,2,0,1,1,64,62.17,2,2,0,0,1,61.83,64Z"/></g><path class="cls-21" d="M20.7,95.24,43.79,75.32a17.32,17.32,0,0,0,23.05-5l-13.07,0-4.7-9.9,4.66-10.35,12.81,0a17.33,17.33,0,0,0-30.16,16.4L12.93,86.77A5.75,5.75,0,0,0,12.72,95h0A5.74,5.74,0,0,0,20.7,95.24Z"/><path class="cls-22" d="M49.8,47.36q.42-.09.84-.15"/><path class="cls-22" d="M20.9,84.88,41.07,67.6l-1-2.53A13.35,13.35,0,0,1,39.36,59a13.51,13.51,0,0,1,7.47-10.54"/><circle class="cls-23" cx="16.81" cy="91.05" r="2.42"/><path class="cls-17" d="M60.58,53.08a6.94,6.94,0,1,0,6.34,7.5A6.95,6.95,0,0,0,60.58,53.08ZM59.83,62A2,2,0,1,1,62,60.17,2,2,0,0,1,59.83,62Z"/><path class="cls-19" d="M60.58,53.08a6.94,6.94,0,1,0,6.34,7.5A6.95,6.95,0,0,0,60.58,53.08ZM59.83,62A2,2,0,1,1,62,60.17,2,2,0,0,1,59.83,62Z"/></svg>