<svg xmlns="http://www.w3.org/2000/svg" viewBox="0 0 120 120"><defs><style>.cls-1,.cls-18,.cls-19,.cls-9{opacity:0.3;}.cls-2,.cls-5,.cls-7,.cls-9{fill:#50aaff;}.cls-11,.cls-12,.cls-14,.cls-16,.cls-17,.cls-3,.cls-4,.cls-6,.cls-8{fill:none;}.cls-18,.cls-3,.cls-4,.cls-6,.cls-7,.cls-8,.cls-9{stroke:#50aaff;}.cls-11,.cls-12,.cls-14,.cls-17,.cls-3,.cls-4,.cls-6{stroke-linecap:round;}.cls-11,.cls-12,.cls-15,.cls-16,.cls-17,.cls-18,.cls-3,.cls-4,.cls-7,.cls-8,.cls-9{stroke-linejoin:round;}.cls-11,.cls-15,.cls-16,.cls-17,.cls-18,.cls-3,.cls-7,.cls-8,.cls-9{stroke-width:2px;}.cls-12,.cls-4{stroke-width:3px;}.cls-13,.cls-5{fill-rule:evenodd;}.cls-14,.cls-6{stroke-miterlimit:10;stroke-width:0.75px;}.cls-10{fill:#bbe8ff;}.cls-11,.cls-12,.cls-14,.cls-15,.cls-16{stroke:#1e55eb;}.cls-13{fill:#e6f5ff;}.cls-15{fill:#e1fffa;}.cls-17{stroke:#bbe8ff;}.cls-18{fill:#ffebff;}.cls-19,.cls-20{fill:#3181ff;}.cls-21{fill:#192d9b;}.cls-22{fill:#00c6c6;}</style></defs><title>book</title><g id="Book"><g class="cls-1"><path class="cls-2" d="M115,30.93H10.48V98H58.14a5.79,5.79,0,0,0,9.22,0H115Z"/><line class="cls-3" x1="11.98" y1="45.58" x2="8.98" y2="45.58"/><line class="cls-3" x1="11.98" y1="51.98" x2="8.98" y2="51.98"/><line class="cls-3" x1="11.98" y1="58.38" x2="8.98" y2="58.38"/><line class="cls-3" x1="11.98" y1="64.77" x2="8.98" y2="64.77"/><path class="cls-4" d="M10.48,70.86V96.75A1.2,1.2,0,0,0,11.69,98H58.14a5.79,5.79,0,0,0,9.22,0h46.45a1.21,1.21,0,0,0,1.21-1.2V32.14a1.21,1.21,0,0,0-1.21-1.21H11.69a1.21,1.21,0,0,0-1.21,1.21v8.12"/><path class="cls-5" d="M67.27,27.16H108V89.93H67.27a4.52,4.52,0,0,0-4.53,4.51V31.67A4.52,4.52,0,0,1,67.27,27.16Z"/><path class="cls-3" d="M108,75.09V88.9a1,1,0,0,1-1,1H67.27a4.52,4.52,0,0,0-4.53,4.51V31.67a4.52,4.52,0,0,1,4.53-4.51H107a1,1,0,0,1,1,1V62"/><circle class="cls-6" cx="108" cy="66.04" r="1.13"/><circle class="cls-6" cx="108" cy="70.63" r="1.13"/><path class="cls-5" d="M57.47,27.16H16.73V89.93H57.47A4.52,4.52,0,0,1,62,94.44V31.67A4.52,4.52,0,0,0,57.47,27.16Z"/><rect class="cls-7" x="26.66" y="34.69" width="27.34" height="24.35"/><path class="cls-8" d="M58.21,27.16H18.51a1,1,0,0,0-1,1V88.91a1,1,0,0,0,1,1h39.7a4.52,4.52,0,0,1,4.53,4.51V31.67A4.52,4.52,0,0,0,58.21,27.16Z"/><line class="cls-3" x1="26.66" y1="69.81" x2="54.57" y2="69.81"/><line class="cls-3" x1="26.66" y1="80.87" x2="54.57" y2="80.87"/><line class="cls-3" x1="71.43" y1="69.81" x2="99.33" y2="69.81"/><line class="cls-3" x1="71.43" y1="80.87" x2="99.33" y2="80.87"/><line class="cls-3" x1="71.43" y1="36.62" x2="99.33" y2="36.62"/><line class="cls-3" x1="71.43" y1="47.68" x2="98.22" y2="47.68"/><line class="cls-3" x1="71.43" y1="58.74" x2="99.33" y2="58.74"/><line class="cls-3" x1="21.75" y1="39.86" x2="21.75" y2="85.29"/><line class="cls-3" x1="21.75" y1="32.04" x2="21.75" y2="35.89"/><polygon class="cls-9" points="93.07 29.04 93.07 44.59 97.82 41.9 102.58 44.59 102.58 29.04 93.07 29.04"/><polygon class="cls-7" points="92 25.75 92 43.83 96.75 41.15 101.51 43.84 101.51 25.75 92 25.75"/></g><path class="cls-10" d="M112,27.93H7.48V95H55.14a5.79,5.79,0,0,0,9.22,0H112Z"/><line class="cls-11" x1="8.98" y1="42.58" x2="5.98" y2="42.58"/><line class="cls-11" x1="8.98" y1="48.98" x2="5.98" y2="48.98"/><line class="cls-11" x1="8.98" y1="55.38" x2="5.98" y2="55.38"/><line class="cls-11" x1="8.98" y1="61.77" x2="5.98" y2="61.77"/><path class="cls-12" d="M7.48,67.86V93.75A1.2,1.2,0,0,0,8.69,95H55.14a5.79,5.79,0,0,0,9.22,0h46.45a1.21,1.21,0,0,0,1.21-1.2V29.14a1.21,1.21,0,0,0-1.21-1.21H8.69a1.21,1.21,0,0,0-1.21,1.21v8.12"/><path class="cls-13" d="M64.27,24.16H105V86.93H64.27a4.52,4.52,0,0,0-4.53,4.51V28.67A4.52,4.52,0,0,1,64.27,24.16Z"/><path class="cls-11" d="M105,72.09V85.9a1,1,0,0,1-1,1H64.27a4.52,4.52,0,0,0-4.53,4.51V28.67a4.52,4.52,0,0,1,4.53-4.51H104a1,1,0,0,1,1,1V59"/><circle class="cls-14" cx="105" cy="63.04" r="1.13"/><circle class="cls-14" cx="105" cy="67.63" r="1.13"/><path class="cls-13" d="M54.47,24.16H13.73V86.93H54.47A4.52,4.52,0,0,1,59,91.44V28.67A4.52,4.52,0,0,0,54.47,24.16Z"/><rect class="cls-15" x="23.66" y="31.69" width="27.34" height="24.35"/><path class="cls-16" d="M55.21,24.16H15.51a1,1,0,0,0-1,1V85.91a1,1,0,0,0,1,1h39.7a4.52,4.52,0,0,1,4.53,4.51V28.67A4.52,4.52,0,0,0,55.21,24.16Z"/><line class="cls-11" x1="23.66" y1="66.81" x2="51.57" y2="66.81"/><line class="cls-11" x1="23.66" y1="77.87" x2="51.57" y2="77.87"/><line class="cls-11" x1="68.43" y1="66.81" x2="96.33" y2="66.81"/><line class="cls-11" x1="68.43" y1="77.87" x2="96.33" y2="77.87"/><line class="cls-11" x1="68.43" y1="33.62" x2="96.33" y2="33.62"/><line class="cls-11" x1="68.43" y1="44.68" x2="95.22" y2="44.68"/><line class="cls-11" x1="68.43" y1="55.74" x2="96.33" y2="55.74"/><line class="cls-17" x1="18.75" y1="36.86" x2="18.75" y2="82.29"/><line class="cls-17" x1="18.75" y1="29.04" x2="18.75" y2="32.89"/><polygon class="cls-18" points="90.07 26.04 90.07 41.59 94.82 38.9 99.58 41.59 99.58 26.04 90.07 26.04"/><polygon class="cls-15" points="89 22.75 89 40.83 93.75 38.15 98.51 40.84 98.51 22.75 89 22.75"/></g><line class="cls-11" x1="99.27" y1="113.88" x2="97.22" y2="111.68"/><line class="cls-11" x1="91.72" y1="114.8" x2="93.18" y2="112.18"/><line class="cls-11" x1="88.51" y1="107.92" x2="91.45" y2="108.49"/><line class="cls-11" x1="94.06" y1="102.73" x2="94.43" y2="105.71"/><line class="cls-11" x1="100.72" y1="106.41" x2="98" y2="107.68"/><circle class="cls-19" cx="72.48" cy="5.59" r="3.88"/><circle class="cls-20" cx="70.77" cy="3.88" r="3.88"/><circle class="cls-21" cx="118.06" cy="17.73" r="1.94"/><rect class="cls-22" x="24.98" y="114.65" width="4.2" height="4.2" transform="translate(-74.63 53.35) rotate(-45)"/><circle class="cls-20" cx="1.94" cy="100.8" r="1.94"/><circle class="cls-22" cx="44.32" cy="11" r="2.24"/></svg>