<svg xmlns="http://www.w3.org/2000/svg" viewBox="0 0 190 160"><defs><style>.cls-1{opacity:0.5;}.cls-17,.cls-2,.cls-21{fill:#bbe8ff;}.cls-3{opacity:0.3;}.cls-4,.cls-6,.cls-8{fill:#50aaff;}.cls-10,.cls-13,.cls-15,.cls-19,.cls-20,.cls-28,.cls-5,.cls-7,.cls-9{fill:none;}.cls-10,.cls-16,.cls-21,.cls-5,.cls-6,.cls-7,.cls-8,.cls-9{stroke:#50aaff;}.cls-13,.cls-14,.cls-15,.cls-16,.cls-17,.cls-18,.cls-19,.cls-21,.cls-28,.cls-5,.cls-6,.cls-7,.cls-8,.cls-9{stroke-linecap:round;}.cls-10,.cls-13,.cls-14,.cls-15,.cls-16,.cls-17,.cls-18,.cls-20,.cls-21,.cls-28,.cls-5,.cls-6,.cls-7,.cls-8{stroke-linejoin:round;}.cls-13,.cls-18,.cls-5,.cls-8{stroke-width:3px;}.cls-10,.cls-14,.cls-15,.cls-16,.cls-17,.cls-20,.cls-21,.cls-28,.cls-6,.cls-7{stroke-width:2px;}.cls-19,.cls-9{stroke-miterlimit:10;}.cls-11,.cls-14,.cls-16,.cls-18{fill:#e6f5ff;}.cls-12{fill:#e1fffa;}.cls-13,.cls-14,.cls-17,.cls-18,.cls-19,.cls-20{stroke:#1e55eb;}.cls-15{stroke:#fff;}.cls-22,.cls-25{fill:#5fe1e1;}.cls-23,.cls-26{fill:#3181ff;}.cls-24{fill:#1e55eb;}.cls-25,.cls-26{opacity:0.15;}.cls-27{fill:#00a0aa;}.cls-28{stroke:#192d9b;}.cls-29{fill:#00c6c6;}.cls-30{fill:#4b91ff;}</style></defs><title>jobs_bp</title><g id="sf"><g id="bp"><g id="BG_shapes" data-name="BG shapes" class="cls-1"><circle class="cls-2" cx="50.76" cy="111.16" r="40.82"/><path class="cls-2" d="M185.9,101.47a78.57,78.57,0,0,1-29,6.91A79.11,79.11,0,0,1,76.8,9.68l44,11.32a33.69,33.69,0,0,0,34.11,42,33.36,33.36,0,0,0,12.32-2.93Z"/></g><g id="baszilika"><g class="cls-3"><path class="cls-4" d="M105.23,33.15a6.8,6.8,0,1,0-13.6,0l-.17,15h13.77Z"/><path class="cls-4" d="M105.23,33.15a6.8,6.8,0,1,0-13.6,0l-.17,2.93h13.77Z"/><path class="cls-5" d="M105.23,33.15a6.8,6.8,0,1,0-13.6,0l-.17,15h13.77Z"/><line class="cls-6" x1="98.34" y1="19" x2="98.34" y2="26.13"/><path class="cls-4" d="M116.77,61.27c0-10-8.3-19.11-18.53-19.11S79.71,51.29,79.71,61.27l-.48,40.89h37.54Z"/><path class="cls-4" d="M116.77,61.27c0-10-8.3-19.11-18.53-19.11S79.71,51.29,79.71,61.27l-.48,8h37.54Z"/><path class="cls-7" d="M105.23,68.16V61.27c0-10-3.2-19.11-7.14-19.11S91,51.29,91,61.27l-.19,6.89"/><line class="cls-6" x1="76.74" y1="69.01" x2="119.74" y2="69.01"/><line class="cls-6" x1="76.74" y1="74.12" x2="119.74" y2="74.12"/><path class="cls-7" d="M83.28,88.16l.43-26.84a15.56,15.56,0,0,1,6.18-12.24"/><path class="cls-5" d="M116.77,61.27c0-10-8.3-19.11-18.53-19.11S79.71,51.29,79.71,61.27l-.48,40.89h37.54Z"/><line class="cls-6" x1="86.64" y1="78.35" x2="86.64" y2="87.17"/><line class="cls-6" x1="109.36" y1="78.35" x2="109.36" y2="87.17"/><line class="cls-6" x1="94.21" y1="78.35" x2="94.21" y2="84.59"/><line class="cls-6" x1="101.79" y1="78.35" x2="101.79" y2="84.59"/><rect class="cls-6" x="61.24" y="100.51" width="74" height="42.49"/><polyline class="cls-8" points="121.24 133.26 121.24 143 75.24 143 75.24 97 121.24 97 121.24 107.58"/><circle class="cls-9" cx="121.24" cy="113" r="1.5"/><circle class="cls-9" cx="121.24" cy="120.42" r="1.5"/><circle class="cls-9" cx="121.24" cy="127.84" r="1.5"/><polygon class="cls-8" points="125.63 96.99 70.86 96.99 98.24 87.17 125.63 96.99"/><path class="cls-6" d="M109.36,143V116.26c0-6-5-11.57-11.21-11.57s-11.22,5.53-11.22,11.57V143"/><line class="cls-8" x1="39.5" y1="143" x2="156.5" y2="143"/><line class="cls-6" x1="91.46" y1="36.28" x2="105.23" y2="36.28"/><path class="cls-4" d="M61.4,46.15a7.07,7.07,0,0,0-14.14,0l-.18,15H61.4Z"/><path class="cls-4" d="M61.4,46.15a7.07,7.07,0,0,0-14.14,0l-.18,2.93H61.4Z"/><path class="cls-5" d="M61.4,46.15a7.07,7.07,0,0,0-14.14,0l-.18,15H61.4Z"/><polyline class="cls-4" points="63.08 97 63.08 60.97 54.24 53.97 45.4 60.97 45.4 97"/><line class="cls-5" x1="45.4" y1="92.08" x2="45.4" y2="97"/><line class="cls-10" x1="46.4" y1="68.33" x2="44.4" y2="68.33"/><line class="cls-10" x1="46.4" y1="72.28" x2="44.4" y2="72.28"/><line class="cls-10" x1="46.4" y1="76.24" x2="44.4" y2="76.24"/><line class="cls-10" x1="46.4" y1="80.2" x2="44.4" y2="80.2"/><line class="cls-10" x1="46.4" y1="84.15" x2="44.4" y2="84.15"/><line class="cls-10" x1="46.4" y1="88.11" x2="44.4" y2="88.11"/><polyline class="cls-5" points="63.08 97 63.08 60.97 54.24 53.97 45.4 60.97 45.4 64.36"/><polyline class="cls-8" points="43.84 97 43.84 143 64.64 143 64.64 97"/><path class="cls-6" d="M58.52,95.71V82.9a4.28,4.28,0,0,0-8.55,0V95.71"/><line class="cls-6" x1="54.24" y1="105.82" x2="54.24" y2="114.63"/><path class="cls-6" d="M50,135.84V126a4.28,4.28,0,0,1,8.55,0v9.81Z"/><line class="cls-6" x1="47.08" y1="49.08" x2="61.4" y2="49.08"/><ellipse class="cls-6" cx="54.24" cy="70.47" rx="3.12" ry="3"/><line class="cls-6" x1="67.24" y1="96.48" x2="41.24" y2="96.48"/><line class="cls-6" x1="65.16" y1="61.15" x2="43.32" y2="61.15"/><line class="cls-6" x1="54.24" y1="32" x2="54.24" y2="39.13"/><path class="cls-4" d="M149.15,46.15a7.08,7.08,0,0,0-14.15,0l-.18,15h14.33Z"/><path class="cls-4" d="M149.15,46.15a7.08,7.08,0,0,0-14.15,0l-.18,2.93h14.33Z"/><path class="cls-5" d="M149.15,46.15a7.08,7.08,0,0,0-14.15,0l-.18,15h14.33Z"/><polyline class="cls-8" points="150.82 97 150.82 60.97 141.98 53.97 133.14 60.97 133.14 97"/><polyline class="cls-8" points="131.58 97 131.58 143 152.38 143 152.38 97"/><path class="cls-6" d="M146.26,95.71V82.9a4.28,4.28,0,0,0-8.55,0V95.71"/><line class="cls-6" x1="141.98" y1="105.82" x2="141.98" y2="114.63"/><path class="cls-6" d="M137.71,135.84V126a4.28,4.28,0,0,1,8.55,0v9.81Z"/><line class="cls-6" x1="134.82" y1="49.08" x2="149.15" y2="49.08"/><ellipse class="cls-6" cx="141.98" cy="70.47" rx="3.12" ry="3"/><line class="cls-6" x1="154.98" y1="96.48" x2="128.98" y2="96.48"/><line class="cls-6" x1="152.9" y1="61.15" x2="131.06" y2="61.15"/><line class="cls-6" x1="141.98" y1="32" x2="141.98" y2="39.13"/><line class="cls-7" x1="79.23" y1="107.39" x2="79.23" y2="139.4"/><line class="cls-7" x1="79.23" y1="102.16" x2="79.23" y2="103.78"/></g><path class="cls-11" d="M102.23,30.15a6.8,6.8,0,1,0-13.6,0l-.17,15h13.77Z"/><path class="cls-12" d="M102.23,30.15a6.8,6.8,0,1,0-13.6,0l-.17,2.93h13.77Z"/><path class="cls-13" d="M102.23,30.15a6.8,6.8,0,1,0-13.6,0l-.17,15h13.77Z"/><line class="cls-14" x1="95.34" y1="16" x2="95.34" y2="23.13"/><path class="cls-11" d="M113.77,58.27c0-10-8.3-19.11-18.53-19.11S76.71,48.29,76.71,58.27l-.48,40.89h37.54Z"/><path class="cls-12" d="M113.77,58.27c0-10-8.3-19.11-18.53-19.11S76.71,48.29,76.71,58.27l-.48,8h37.54Z"/><path class="cls-7" d="M102.23,65.16V58.27c0-10-3.2-19.11-7.14-19.11S88,48.29,88,58.27l-.19,6.89"/><line class="cls-14" x1="73.74" y1="66.01" x2="116.74" y2="66.01"/><line class="cls-14" x1="73.74" y1="71.12" x2="116.74" y2="71.12"/><path class="cls-15" d="M80.28,85.16l.43-26.84a15.56,15.56,0,0,1,6.18-12.24"/><path class="cls-13" d="M113.77,58.27c0-10-8.3-19.11-18.53-19.11S76.71,48.29,76.71,58.27l-.48,40.89h37.54Z"/><line class="cls-16" x1="83.64" y1="75.35" x2="83.64" y2="84.17"/><line class="cls-16" x1="106.36" y1="75.35" x2="106.36" y2="84.17"/><line class="cls-16" x1="91.21" y1="75.35" x2="91.21" y2="81.59"/><line class="cls-16" x1="98.79" y1="75.35" x2="98.79" y2="81.59"/><rect class="cls-17" x="58.24" y="97.51" width="74" height="42.49"/><polyline class="cls-18" points="118.24 130.26 118.24 140 72.24 140 72.24 94 118.24 94 118.24 104.58"/><circle class="cls-19" cx="118.24" cy="110" r="1.5"/><circle class="cls-19" cx="118.24" cy="117.42" r="1.5"/><circle class="cls-19" cx="118.24" cy="124.84" r="1.5"/><polygon class="cls-18" points="122.63 93.99 67.86 93.99 95.24 84.17 122.63 93.99"/><path class="cls-17" d="M106.36,140V113.26c0-6-5-11.57-11.21-11.57s-11.22,5.53-11.22,11.57V140"/><line class="cls-18" x1="36.5" y1="140" x2="153.5" y2="140"/><line class="cls-14" x1="88.46" y1="33.28" x2="102.23" y2="33.28"/><path class="cls-11" d="M58.4,43.15a7.07,7.07,0,0,0-14.14,0l-.18,15H58.4Z"/><path class="cls-12" d="M58.4,43.15a7.07,7.07,0,0,0-14.14,0l-.18,2.93H58.4Z"/><path class="cls-13" d="M58.4,43.15a7.07,7.07,0,0,0-14.14,0l-.18,15H58.4Z"/><polyline class="cls-11" points="60.08 94 60.08 57.97 51.24 50.97 42.4 57.97 42.4 94"/><line class="cls-13" x1="42.4" y1="89.08" x2="42.4" y2="94"/><line class="cls-20" x1="43.4" y1="65.33" x2="41.4" y2="65.33"/><line class="cls-20" x1="43.4" y1="69.28" x2="41.4" y2="69.28"/><line class="cls-20" x1="43.4" y1="73.24" x2="41.4" y2="73.24"/><line class="cls-20" x1="43.4" y1="77.2" x2="41.4" y2="77.2"/><line class="cls-20" x1="43.4" y1="81.15" x2="41.4" y2="81.15"/><line class="cls-20" x1="43.4" y1="85.11" x2="41.4" y2="85.11"/><polyline class="cls-13" points="60.08 94 60.08 57.97 51.24 50.97 42.4 57.97 42.4 61.36"/><polyline class="cls-18" points="40.84 94 40.84 140 61.64 140 61.64 94"/><path class="cls-21" d="M55.52,92.71V79.9a4.28,4.28,0,0,0-8.55,0V92.71"/><line class="cls-16" x1="51.24" y1="102.82" x2="51.24" y2="111.63"/><path class="cls-21" d="M47,132.84V123a4.28,4.28,0,0,1,8.55,0v9.81Z"/><line class="cls-14" x1="44.08" y1="46.08" x2="58.4" y2="46.08"/><ellipse class="cls-21" cx="51.24" cy="67.47" rx="3.12" ry="3"/><line class="cls-14" x1="64.24" y1="93.48" x2="38.24" y2="93.48"/><line class="cls-14" x1="62.16" y1="58.15" x2="40.32" y2="58.15"/><line class="cls-14" x1="51.24" y1="29" x2="51.24" y2="36.13"/><path class="cls-11" d="M146.15,43.15a7.08,7.08,0,0,0-14.15,0l-.18,15h14.33Z"/><path class="cls-12" d="M146.15,43.15a7.08,7.08,0,0,0-14.15,0l-.18,2.93h14.33Z"/><path class="cls-13" d="M146.15,43.15a7.08,7.08,0,0,0-14.15,0l-.18,15h14.33Z"/><polyline class="cls-18" points="147.82 94 147.82 57.97 138.98 50.97 130.14 57.97 130.14 94"/><polyline class="cls-18" points="128.58 94 128.58 140 149.38 140 149.38 94"/><path class="cls-21" d="M143.26,92.71V79.9a4.28,4.28,0,0,0-8.55,0V92.71"/><line class="cls-16" x1="138.98" y1="102.82" x2="138.98" y2="111.63"/><path class="cls-21" d="M134.71,132.84V123a4.28,4.28,0,0,1,8.55,0v9.81Z"/><line class="cls-14" x1="131.82" y1="46.08" x2="146.15" y2="46.08"/><ellipse class="cls-21" cx="138.98" cy="67.47" rx="3.12" ry="3"/><line class="cls-14" x1="151.98" y1="93.48" x2="125.98" y2="93.48"/><line class="cls-14" x1="149.9" y1="58.15" x2="128.06" y2="58.15"/><line class="cls-14" x1="138.98" y1="29" x2="138.98" y2="36.13"/><line class="cls-15" x1="76.23" y1="104.39" x2="76.23" y2="136.4"/><line class="cls-15" x1="76.23" y1="99.16" x2="76.23" y2="100.78"/></g><g id="sparkles"><circle class="cls-22" cx="187.22" cy="51.91" r="3.12"/><circle class="cls-23" cx="124.87" cy="1.91" r="1.91"/><rect class="cls-24" x="0.79" y="24.48" width="3.8" height="3.8" transform="translate(-17.87 9.63) rotate(-45)"/><circle class="cls-25" cx="170.73" cy="127.58" r="4.33"/><circle class="cls-22" cx="168.82" cy="125.67" r="4.33"/><circle class="cls-26" cx="31.83" cy="46.74" r="3.12"/><circle class="cls-23" cx="30.55" cy="45.47" r="3.12"/><circle class="cls-27" cx="110.4" cy="151.99" r="1.75"/><line class="cls-28" x1="175.92" y1="25.28" x2="173.61" y2="23.37"/><line class="cls-28" x1="169.64" y1="28.18" x2="169.69" y2="25.18"/><line class="cls-28" x1="163.46" y1="25.08" x2="165.83" y2="23.25"/><line class="cls-28" x1="162.03" y1="18.31" x2="164.94" y2="19.02"/><line class="cls-28" x1="166.44" y1="12.97" x2="167.69" y2="15.7"/><line class="cls-28" x1="173.35" y1="13.09" x2="172" y2="15.77"/><line class="cls-28" x1="177.57" y1="18.57" x2="174.64" y2="19.18"/><circle class="cls-29" cx="36.69" cy="27.84" r="1.75"/><circle class="cls-24" cx="133.42" cy="158.73" r="1.27"/><path class="cls-30" d="M16.09,119.76a1,1,0,0,1-.12-2,6.64,6.64,0,0,0,5-3.46,1,1,0,0,1,1.77.93,8.68,8.68,0,0,1-6.56,4.52Z"/><path class="cls-30" d="M11.51,118.92a1,1,0,0,1-.47-.11,8.69,8.69,0,0,1-4.51-6.56,1,1,0,0,1,2-.24A6.67,6.67,0,0,0,12,117a1,1,0,0,1-.47,1.88Z"/><path class="cls-30" d="M8.35,108.55a1,1,0,0,1-.88-1.47A8.69,8.69,0,0,1,14,102.57a1,1,0,1,1,.23,2,6.67,6.67,0,0,0-5,3.47A1,1,0,0,1,8.35,108.55Z"/><path class="cls-30" d="M22.72,111.19a1,1,0,0,1-1-.89,6.67,6.67,0,0,0-3.47-5,1,1,0,0,1-.42-1.36,1,1,0,0,1,1.35-.41,8.69,8.69,0,0,1,4.52,6.56,1,1,0,0,1-.87,1.11Z"/></g></g></g></svg>