<?xml version="1.0" encoding="UTF-8"?>
<svg width="200px" height="38px" viewBox="0 0 200 38" version="1.1" xmlns="http://www.w3.org/2000/svg" xmlns:xlink="http://www.w3.org/1999/xlink">
    <!-- Generator: Sketch 52.5 (67469) - http://www.bohemiancoding.com/sketch -->
    <title>Group</title>
    <desc>Created with Sketch.</desc>
    <g id="Symbols" stroke="none" stroke-width="1" fill="none" fill-rule="evenodd">
        <g id="Nav/Light/In" transform="translate(-30.000000, -17.000000)" fill="#3181FF">
            <g id="Nav-Light">
                <g id="Group" transform="translate(30.000000, 17.000000)">
                    <g id="Group-2">
                        <g id="Group-3">
                            <path d="M29.4404587,23.8751281 C28.8282701,25.2969363 27.968145,26.5764106 26.8639097,27.6798807 C25.7604396,28.7833507 24.5092791,29.6427105 23.0599224,30.2556644 C21.5860782,30.870914 20.0410671,31.1892521 18.3965753,31.1892521 C16.7773363,31.1892521 15.2070724,30.8701488 13.7347587,30.2556644 C12.285402,29.6427105 11.0342414,28.7833507 9.9055186,27.6798807 C8.82500562,26.5756454 7.94192348,25.2969363 7.35269189,23.8751281 C6.71295474,22.3783269 6.41986942,20.83102 6.41986942,19.2110158 C6.41986942,17.5672892 6.71371998,16.0207476 7.35269189,14.5231811 C7.94192348,13.1006077 8.82500562,11.8241944 9.9055186,10.7199591 C11.0342414,9.61495856 12.285402,8.75559873 13.7347587,8.1418796 C15.2070724,7.50443816 16.7773363,7.20905713 18.3965753,7.20905713 C20.0403019,7.20905713 21.5860782,7.50443816 23.0591572,8.1418796 C24.5092791,8.75559873 25.7604396,9.61495856 26.8639097,10.7199591 C27.968145,11.8249596 28.8282701,13.1006077 29.4404587,14.5231811 C30.0786654,16.0207476 30.398534,17.5672892 30.398534,19.2110158 C30.398534,20.83102 30.0786654,22.3783269 29.4404587,23.8751281 L29.4404587,23.8751281 Z M30.4237868,14.1313804 C29.7848148,12.5350985 28.8275048,11.1615002 27.6482764,9.95931468 C26.4216034,8.75559873 25.0472399,7.82354149 23.4777412,7.16008203 C21.8814592,6.47290026 20.1635048,6.13007462 18.3965753,6.13007462 C16.6059235,6.13007462 14.9369441,6.47213503 13.2924524,7.16008203 C11.7459108,7.82354149 10.3462944,8.75559873 9.14487419,9.95931468 C7.94192348,11.1615002 7.03282332,12.5350985 6.37089433,14.1313804 C5.65922501,15.7261318 5.34012167,17.420364 5.34012167,19.2110158 C5.34012167,20.9787105 5.65922501,22.6721774 6.37089433,24.2921817 C7.03358855,25.837958 7.94192348,27.2360439 9.14487419,28.4389946 C10.3462944,29.6427105 11.7459108,30.5747678 13.2924524,31.237462 C14.9369441,31.9246438 16.6066887,32.2697651 18.3965753,32.2697651 C20.1635048,32.2705304 21.8822245,31.925409 23.4777412,31.2382272 C25.0472399,30.5747678 26.4216034,29.6427105 27.6482764,28.4389946 C28.8275048,27.2360439 29.7848148,25.837958 30.4237868,24.2921817 C31.1339256,22.6721774 31.4798122,20.9787105 31.4798122,19.2110158 C31.4782817,17.4211292 31.1339256,15.7261318 30.4237868,14.1313804 L30.4237868,14.1313804 Z M26.0542902,19.5798595 C25.9808276,21.7148674 25.1207025,23.4825622 23.5512038,24.906666 C21.9564524,26.3300047 20.1145297,26.9926989 18.0047746,26.8687307 C15.8697666,26.7485887 14.1020719,25.9114207 12.6787332,24.3664095 C11.2798821,22.7701276 10.6179532,20.9305007 10.7151381,18.793197 C10.8375758,16.6842071 11.6716829,14.9165123 13.2671996,13.493939 C14.8129759,12.0706003 16.6793861,11.4308632 18.8136288,11.5280481 C20.8988964,11.628294 22.6681217,12.4868886 24.0906951,14.0571525 C25.5147989,15.6281817 26.1767279,17.4685738 26.0542902,19.5798595 L26.0542902,19.5798595 Z M18.3965753,10.4483004 C15.9914391,10.4483004 13.904641,11.2839379 12.1882171,13.0018923 C10.4687322,14.7198467 9.63615559,16.7821573 9.63615559,19.2110158 C9.63615559,21.6176825 10.4687322,23.6792278 12.1882171,25.396417 C13.904641,27.1151366 15.9914391,27.9737312 18.3965753,27.972966 C20.8269643,27.9737312 22.8632568,27.1151366 24.5812112,25.3971822 C26.2999309,23.6792278 27.1585255,21.6176825 27.1585255,19.2110158 C27.1585255,16.7821573 26.2999309,14.7198467 24.5812112,13.0018923 C22.8632568,11.2839379 20.826199,10.4483004 18.3965753,10.4483004 L18.3965753,10.4483004 Z M25.3671084,26.1570614 C23.4272356,28.0716814 21.0963273,29.0282262 18.3965753,29.0282262 C15.6723358,29.0282262 13.3414275,28.0716814 11.451295,26.1570614 C9.51295262,24.2432066 8.55487737,21.911533 8.55487737,19.2110158 C8.55487737,16.4638192 9.51295262,14.1551027 11.451295,12.2404827 C13.3414275,10.3013751 15.6723358,9.34483031 18.3965753,9.34483031 C21.0963273,9.34406508 23.4272356,10.3013751 25.3671084,12.2404827 C27.2809632,14.1551027 28.2130205,16.4638192 28.2130205,19.2110158 C28.2130205,21.911533 27.2809632,24.2439718 25.3671084,26.1570614 L25.3671084,26.1570614 Z M18.3965753,8.2658478 C15.37772,8.2658478 12.801171,9.34483031 10.6891201,11.4806035 C8.52962459,13.6156114 7.47589486,16.1936909 7.47589486,19.211781 C7.47589486,22.2061488 8.52962459,24.7826978 10.6891201,26.8932182 C12.801171,29.0282262 15.37772,30.1095044 18.3965753,30.1095044 C21.3909431,30.1095044 23.9690226,29.0282262 26.1040305,26.8932182 C28.2398037,24.7826978 29.2942987,22.206914 29.2935334,19.211781 C29.2935334,16.1921605 28.2390385,13.6148462 26.1040305,11.4806035 C23.9690226,9.34483031 21.3909431,8.2658478 18.3965753,8.2658478 L18.3965753,8.2658478 Z" id="Fill-1"></path>
                            <path d="M23.4298374,15.2247493 L23.4298374,23.1755495 C23.6762433,22.8748119 23.8843875,22.5526476 24.0672789,22.2297181 C24.5547341,21.3298007 24.7980791,20.3082109 24.7980791,19.2123932 C24.7980791,17.6926349 24.3504161,16.3680117 23.4298374,15.2247493 L23.4298374,15.2247493 Z M20.5823949,25.217964 C21.0851548,25.0473164 21.5427659,24.8055019 21.9735936,24.5185384 C21.9843069,24.5093556 21.994255,24.5017032 22.0057335,24.4940509 L22.0057335,13.9024218 C21.5588358,13.5955623 21.0836244,13.3506868 20.5823949,13.1731521 L20.5823949,25.217964 Z M17.7104649,12.8486921 L17.7104649,25.5385978 C17.7119953,25.539363 17.714291,25.539363 17.7165868,25.539363 C17.9354442,25.5875729 18.1787892,25.5875729 18.4213689,25.5875729 C18.6654792,25.5875729 18.9095894,25.5875729 19.1276816,25.539363 C19.1299773,25.539363 19.132273,25.539363 19.1345687,25.5378325 L19.1345687,12.8494573 C18.9011718,12.8249698 18.6624182,12.812726 18.4213689,12.812726 C18.1795544,12.812726 17.9430966,12.8249698 17.7104649,12.8486921 L17.7104649,12.8486921 Z M14.8385348,24.4940509 C14.8500134,24.5039989 14.8607267,24.5093556 14.868379,24.5185384 C15.3022677,24.8055019 15.7813054,25.0473164 16.2618734,25.217964 L16.2618734,13.1654997 C15.760644,13.3422692 15.2839021,13.581788 14.8385348,13.8863519 L14.8385348,24.4940509 Z M12.7769895,22.206761 C12.9614113,22.5511171 13.1672598,22.8748119 13.4151962,23.1755495 L13.4151962,15.2033227 C12.4923218,16.3511765 12.022467,17.6796259 12.0217017,19.1886709 C12.022467,20.3082109 12.2642815,21.3298007 12.7769895,22.206761 L12.7769895,22.206761 Z" id="Fill-3"></path>
                            <path d="M13.6395633,37.0138862 C14.2540477,37.1776467 14.8792454,37.3107977 15.5159216,37.4110436 L16.1365278,33.5381851 C15.6345331,33.4578353 15.1394255,33.3537633 14.6565617,33.2236732 L13.6395633,37.0138862 Z M20.6751415,33.5366546 L21.2865649,37.4110436 C21.9255368,37.311563 22.5530302,37.1768815 23.1675146,37.0138862 L22.1673514,33.2221427 C21.6814266,33.3514676 21.1809624,33.4578353 20.6751415,33.5366546 L20.6751415,33.5366546 Z M17.4259502,37.6092397 C18.0687483,37.6429101 18.7176683,37.6436753 19.3742406,37.6100049 L19.1691574,33.6942932 C18.6587451,33.7210765 18.1536895,33.7218417 17.6547557,33.6950585 L17.4259502,37.6092397 Z M10.039894,35.6288094 C10.6122904,35.9211295 11.2038177,36.1859011 11.8075888,36.4170023 L13.1949613,32.749227 C12.7258718,32.5678661 12.265965,32.3620176 11.8198325,32.1339774 L10.039894,35.6288094 Z M23.629717,32.7438703 L25.0155591,36.416237 C25.625452,36.1820749 26.2185098,35.9180685 26.7947324,35.6234527 L25.0102024,32.1286207 C24.56407,32.3574262 24.1026328,32.5625094 23.629717,32.7438703 L23.629717,32.7438703 Z M4.07641123,16.9157325 L0.198961314,16.3150224 C0.0994806571,16.9448115 0.0329051404,17.5830182 0,18.2319382 L3.91571171,18.4331952 C3.9432602,17.9189567 3.99759194,17.4146663 4.07641123,16.9157325 L4.07641123,16.9157325 Z M9.27848437,30.481068 L6.80065077,33.5213499 C7.301115,33.9269249 7.8245363,34.3072471 8.36479279,34.6600208 L10.5174012,31.3786896 C10.0888691,31.1024395 9.67487652,30.8009366 9.27848437,30.481068 L9.27848437,30.481068 Z M3.91800742,19.9720844 L0,20.1771676 C0.0352008479,20.81767 0.100245893,21.4482243 0.197430843,22.0665349 L4.07258506,21.4543462 C3.99759194,20.9691867 3.94402544,20.4756096 3.91800742,19.9720844 L3.91800742,19.9720844 Z M5.47373185,25.7878767 L1.98502173,27.5792937 C2.2750461,28.1470987 2.59261897,28.6973033 2.93774033,29.2283769 L6.23820244,27.1094389 C5.96195231,26.6839678 5.70712878,26.2439572 5.47373185,25.7878767 L5.47373185,25.7878767 Z M7.11822364,28.3192768 L4.07488076,30.7940494 C4.48198622,31.2960441 4.91357923,31.7750818 5.36889454,32.2319276 L8.15664865,29.4717219 C7.7923964,29.1059392 7.4465098,28.7225561 7.11822364,28.3192768 L7.11822364,28.3192768 Z M4.85618654,14.0017145 L1.19147218,12.6043939 C0.964197138,13.1974517 0.765235824,13.8027532 0.599944886,14.4233595 L4.39015792,15.4395926 C4.52101325,14.9498417 4.67712136,14.4708041 4.85618654,14.0017145 L4.85618654,14.0017145 Z M26.3317647,31.3626197 L28.4507027,34.663847 C28.9932549,34.3103081 29.515911,33.9307511 30.0148447,33.5267066 L27.5308892,30.4871899 C27.1482713,30.8001713 26.7472878,31.0917262 26.3317647,31.3626197 L26.3317647,31.3626197 Z M28.6687949,29.4648348 L31.4389486,32.2418756 C31.8973249,31.7827341 32.3304483,31.3006356 32.7367886,30.7986409 L29.6773757,28.3437643 C29.3613333,28.7363303 29.0253948,29.1090002 28.6687949,29.4648348 L28.6687949,29.4648348 Z M30.5795888,27.106378 L33.8701028,29.2452121 C34.2205808,28.7034252 34.545806,28.1425073 34.8396566,27.5662847 L31.3394679,25.7932333 C31.109132,26.2462529 30.8550737,26.6847331 30.5795888,27.106378 L30.5795888,27.106378 Z M36.6180647,16.3119615 L32.7429104,16.9218544 C32.819434,17.4207882 32.8752962,17.9273743 32.9028447,18.4416128 L32.90361,18.4538565 L36.8193217,18.2487733 L36.8185564,18.2357643 C36.7825904,17.5845486 36.7160148,16.9417506 36.6180647,16.3119615 L36.6180647,16.3119615 Z M31.9616047,24.4005041 L35.6247886,25.8077728 C35.8551245,25.2055322 36.0571468,24.5872217 36.2254987,23.9566674 L32.4291638,22.9610955 C32.2975432,23.4516117 32.1414351,23.9321798 31.9616047,24.4005041 L31.9616047,24.4005041 Z M32.7429104,21.4826599 L36.6195951,22.0856658 C36.7206063,21.4497548 36.7887122,20.8031305 36.8193217,20.1473234 L32.9043752,19.9437707 C32.8783572,20.4656615 32.8232602,20.9776043 32.7429104,21.4826599 L32.7429104,21.4826599 Z M4.3939841,22.9741046 L0.600710122,23.9735025 C0.766766296,24.5933436 0.962666667,25.2001756 1.18841123,25.7924681 L4.85924748,24.4058608 C4.6801823,23.9405974 4.5263699,23.462325 4.3939841,22.9741046 L4.3939841,22.9741046 Z M19.3696492,0.789152781 C18.7360339,0.757012876 18.0924706,0.757012876 17.4443158,0.790683252 L17.649399,4.7071602 C18.1590461,4.68037695 18.664867,4.68190742 19.1630355,4.70562973 L19.3696492,0.789152781 Z M23.1736365,1.38680196 C22.5537954,1.22151102 21.9209454,1.08759475 21.2796778,0.988114095 L20.6858548,4.86556402 C21.1955019,4.94514854 21.6952008,5.05228156 22.185717,5.18313688 L23.1736365,1.38680196 Z M32.426868,15.4327055 L36.2186116,14.4294813 C36.0494944,13.7973966 35.8505331,13.1836774 35.6194319,12.5806716 L31.9585437,13.9955926 C32.1391394,14.4631517 32.293717,14.9437198 32.426868,15.4327055 L32.426868,15.4327055 Z M31.3440594,12.6135767 L34.8335347,10.8213944 C34.5427451,10.2512937 34.2221113,9.69802824 33.8754595,9.16389364 L30.5910673,11.3088497 C30.8634913,11.7281989 31.1160191,12.1651485 31.3440594,12.6135767 L31.3440594,12.6135767 Z M29.6988023,10.0814114 L32.7360233,7.59745591 C32.3312136,7.10005262 31.8996206,6.62254547 31.4481314,6.17105633 L28.662673,8.93126195 C29.0276905,9.29474897 29.3728119,9.67889735 29.6988023,10.0814114 L29.6988023,10.0814114 Z M26.7794277,2.7718788 C26.2131532,2.48261966 25.628513,2.22167424 25.0308638,1.9921035 L23.6144123,5.65146121 C24.0949804,5.8351178 24.5625395,6.04479242 25.0170896,6.27742411 L26.7794277,2.7718788 Z M27.5416025,7.92038543 L30.0309147,4.89158203 C29.5220329,4.47682422 28.990194,4.09038013 28.4376937,3.73224976 L26.3126338,7.02965093 C26.7373397,7.30590106 27.1475061,7.60281256 27.5416025,7.92038543 L27.5416025,7.92038543 Z M8.14823105,8.9366186 L5.3551203,6.18483058 C4.90592687,6.63478924 4.48122099,7.10847022 4.08023741,7.60281256 L7.13965024,10.0592196 C7.45645787,9.66665358 7.79316163,9.29321849 8.14823105,8.9366186 L8.14823105,8.9366186 Z M10.5043922,7.02735522 L8.36861897,3.73684117 C7.82606677,4.08961489 7.3034107,4.46840662 6.80371171,4.87627732 L9.27618866,7.9219159 C9.66875464,7.60281256 10.0796863,7.30360535 10.5043922,7.02735522 L10.5043922,7.02735522 Z M11.8106497,1.98215543 C11.2061134,2.21325665 10.6184123,2.47649777 10.0460159,2.76728739 L11.8351373,6.25905845 C12.282035,6.03254865 12.7419417,5.82823068 13.2117965,5.64686979 L11.8106497,1.98215543 Z M6.23590673,11.2981364 L2.94156651,9.16925029 C2.5910885,9.71027202 2.26815898,10.2696594 1.97354319,10.845882 L5.46914043,12.6250553 C5.70100689,12.1689747 5.95812613,11.7274336 6.23590673,11.2981364 L6.23590673,11.2981364 Z M15.507504,0.993470746 C14.8677668,1.09601235 14.2418039,1.22992862 13.6280848,1.39292385 L14.6504399,5.18160641 C15.1371298,5.05075108 15.6352984,4.94591378 16.1426497,4.86403354 L15.507504,0.993470746 Z" id="Fill-5"></path>
                            <path d="M47.763954,19.3035328 L51.5465147,19.3035328 C52.865016,19.3035328 53.8468136,18.1403744 53.8468136,16.3321221 C53.8468136,14.4458158 52.6584023,13.3599462 51.391937,13.3599462 L47.763954,13.3599462 L47.763954,19.3035328 Z M44.1979551,28.5804867 L44.1979551,10.2339578 L51.6245687,10.2339578 C55.0092068,10.2339578 57.4640833,13.3346934 57.4640833,16.3321221 C57.4640833,19.4588757 55.1645497,22.4302864 51.7538936,22.4302864 L47.763954,22.4302864 L47.763954,28.5804867 L44.1979551,28.5804867 Z" id="Fill-8"></path>
                            <path d="M67.5491262,17.8244085 C65.4562063,17.8504265 63.6777982,19.0403682 62.9546503,20.564718 L62.9546503,28.5805632 L59.4919582,28.5805632 L59.4919582,15.0397153 L62.6699826,15.0397153 L62.6699826,17.9338372 C63.6265274,16.0995669 65.4087616,14.8591197 66.8565878,14.8591197 C67.2177791,14.8591197 67.39914,14.8591197 67.5537176,14.8851377 L67.5491262,17.8244085 Z" id="Fill-10"></path>
                            <path d="M79.1338018,20.6731519 C78.9532061,18.6575207 77.4801272,17.3137666 75.5938209,17.3137666 C73.7335326,17.3137666 72.2604536,18.6575207 72.1051108,20.6731519 L79.1338018,20.6731519 Z M68.487841,21.8875811 C68.487841,18.0376797 71.22662,14.8076193 75.6458569,14.8076193 C80.0643286,14.8076193 82.3753408,18.0177836 82.3753408,21.6870893 C82.3753408,22.1263347 82.3110609,22.636747 82.2597901,22.9214147 L72.1571468,22.9214147 C72.3377424,25.0403527 73.9401463,26.3060528 75.7483985,26.3060528 C77.3844727,26.3060528 78.6792517,25.3028286 79.1184971,24.1917062 L82.0409327,25.2982372 C81.0583699,27.3659044 78.7328182,28.8389834 75.7353895,28.8389834 C71.0827557,28.8389834 68.487841,25.6341757 68.487841,21.8875811 L68.487841,21.8875811 Z" id="Fill-12"></path>
                            <path d="M97.3142745,28.5801806 L100.776967,28.5801806 L100.776967,15.0400979 L97.3142745,15.0400979 L97.3142745,28.5801806 Z M97.1336789,11.448081 C97.1336789,10.4402654 98.0381876,9.56177467 99.0460032,9.56177467 C100.027801,9.56177467 100.957562,10.4402654 100.957562,11.448081 C100.957562,12.4819146 100.027801,13.3604053 99.0460032,13.3604053 C98.0381876,13.3604053 97.1336789,12.4558966 97.1336789,11.448081 L97.1336789,11.448081 Z" id="Fill-14"></path>
                            <polygon id="Fill-16" points="82.8405276 28.5802571 89.8516182 17.8218067 83.5919892 17.8218067 83.5919892 15.0279307 94.9672197 15.0279307 87.9568943 25.7856159 95.0261429 25.7856159 95.0261429 28.5802571"></polygon>
                        </g>
                    </g>
                    <path d="M112.05,19.75 C112.05,15.475 115.125,10.9 120.475,10.9 C123.625,10.9 125.95,12.5 127.025,14.775 L125.65,15.625 C124.5,13.275 122.3,12.475 120.375,12.475 C116.125,12.475 113.8,16.275 113.8,19.85 C113.8,23.775 116.675,27.325 120.45,27.325 C122.45,27.325 124.8,26.325 125.925,24.025 L127.375,24.775 C126.225,27.425 123.075,28.9 120.35,28.9 C115.475,28.9 112.05,24.25 112.05,19.75 Z M139.975,28.75 L138.35,28.75 L138.35,26.7 C137.15,28.275 135.225,29 133.3,29 C130.85,29 128.975,27.225 128.975,24.95 C128.975,22.2 131.85,21.025 134.425,21.025 C136.225,21.025 137.6,21.4 138.275,21.7 L138.275,20.525 C138.275,18.275 136.9,16.775 134.6,16.775 C133.275,16.775 131.875,17.325 130.425,18.325 L129.825,17.2 C131.3,16.225 132.95,15.5 134.75,15.5 C138.15,15.5 139.975,17.625 139.975,20.675 L139.975,28.75 Z M137.85,25.875 C138.125,25.55 138.275,25.2 138.275,24.9 L138.275,22.775 C137.1,22.325 135.85,22.1 134.65,22.1 C132.8,22.1 130.6,22.85 130.6,24.825 C130.6,26.55 132.05,27.7 133.7,27.7 C135.225,27.7 137,27.125 137.85,25.875 Z M150.075,15.675 L150.075,17.225 C147.8,17.3 145.975,18.55 145.275,20.65 L145.275,28.75 L143.575,28.75 L143.575,15.725 L145.175,15.725 L145.175,18.85 C146.15,16.85 147.9,15.65 149.75,15.65 C149.875,15.65 149.95,15.65 150.075,15.675 Z M157.975,29 C154.2,29 151.45,25.9 151.45,22.2 C151.45,18.55 154.2,15.5 157.95,15.5 C161.775,15.5 164.4,18.6 164.4,22.175 C164.4,22.425 164.4,22.75 164.375,22.85 L153.225,22.85 C153.45,25.65 155.55,27.7 158.05,27.7 C159.75,27.7 161.425,26.75 162.05,25.35 L163.525,25.75 C162.725,27.65 160.5,29 157.975,29 Z M153.2,21.55 L162.775,21.55 C162.55,18.775 160.525,16.825 157.975,16.825 C155.425,16.825 153.375,18.8 153.2,21.55 Z M172.65,29 C168.875,29 166.125,25.9 166.125,22.2 C166.125,18.55 168.875,15.5 172.625,15.5 C176.45,15.5 179.075,18.6 179.075,22.175 C179.075,22.425 179.075,22.75 179.05,22.85 L167.9,22.85 C168.125,25.65 170.225,27.7 172.725,27.7 C174.425,27.7 176.1,26.75 176.725,25.35 L178.2,25.75 C177.4,27.65 175.175,29 172.65,29 Z M167.875,21.55 L177.45,21.55 C177.225,18.775 175.2,16.825 172.65,16.825 C170.1,16.825 168.05,18.8 167.875,21.55 Z M188.2,15.675 L188.2,17.225 C185.925,17.3 184.1,18.55 183.4,20.65 L183.4,28.75 L181.7,28.75 L181.7,15.725 L183.3,15.725 L183.3,18.85 C184.275,16.85 186.025,15.65 187.875,15.65 C188,15.65 188.075,15.65 188.2,15.675 Z M194.8,29 C192.775,29 190.725,28.325 189.325,27.05 L190.1,25.9 C191.55,27.1 193.05,27.7 194.775,27.7 C196.85,27.7 198.225,26.8 198.225,25.25 C198.225,23.8 196.925,23.4 194.3,22.775 C191.275,22.025 189.925,21.5 189.925,19.45 C189.925,16.825 192.125,15.5 194.8,15.5 C196.8,15.5 198.5,16.225 199.5,17.275 L198.675,18.275 C197.7,17.275 196.225,16.775 194.75,16.775 C192.975,16.775 191.55,17.5 191.55,19.2 C191.55,20.575 192.475,20.875 194.8,21.425 C198.15,22.225 199.875,22.875 199.875,25.1 C199.875,27.475 197.875,29 194.8,29 Z" id="Careers"></path>
                </g>
            </g>
        </g>
    </g>
</svg>