<svg xmlns="http://www.w3.org/2000/svg" viewBox="0 0 120 120"><defs><style>.cls-1,.cls-2{fill:#3181ff;}.cls-1,.cls-14,.cls-23,.cls-8{opacity:0.3;}.cls-3{fill:#44cb67;}.cls-11,.cls-13,.cls-18,.cls-20,.cls-21,.cls-4,.cls-7{fill:none;}.cls-4{stroke:#3b6bee;}.cls-11,.cls-12,.cls-13,.cls-14,.cls-15,.cls-18,.cls-19,.cls-20,.cls-21,.cls-22,.cls-4,.cls-7{stroke-linecap:round;}.cls-11,.cls-12,.cls-18,.cls-19,.cls-21,.cls-4,.cls-7{stroke-width:2px;}.cls-25,.cls-5{fill:#1e55eb;}.cls-16,.cls-19,.cls-20,.cls-21,.cls-22,.cls-5{stroke:#1e55eb;}.cls-13,.cls-20,.cls-5{stroke-miterlimit:10;}.cls-6{fill:#85e870;}.cls-7{stroke:#192d9b;}.cls-11,.cls-12,.cls-18,.cls-19,.cls-21,.cls-7{stroke-linejoin:round;}.cls-10,.cls-12,.cls-14,.cls-15,.cls-23,.cls-9{fill:#50aaff;}.cls-11,.cls-12,.cls-13,.cls-14,.cls-15,.cls-9{stroke:#50aaff;}.cls-14,.cls-15,.cls-16,.cls-22,.cls-9{stroke-miterlimit:2.61;stroke-width:3px;}.cls-16,.cls-22,.cls-24{fill:#bbe8ff;}.cls-17{fill:#f0ffd7;}.cls-18{stroke:#fff;}.cls-19{fill:#f6f7f9;}</style></defs><title>work-life - BG</title><g id="sparkles"><circle class="cls-1" cx="105.48" cy="106.59" r="3.88"/><circle class="cls-2" cx="103.77" cy="104.88" r="3.88"/><rect class="cls-3" x="82.98" y="114.65" width="4.2" height="4.2" transform="translate(-57.64 94.36) rotate(-45)"/><path class="cls-4" d="M23,105.08a5.83,5.83,0,0,1-6.93-.57"/><path class="cls-4" d="M14,100.28a5.87,5.87,0,0,1,4-5.72"/><path class="cls-4" d="M22.66,95a5.87,5.87,0,0,1,3,6.29"/><circle class="cls-3" cx="2.32" cy="28.87" r="2.24"/><circle class="cls-5" cx="14.65" cy="13.7" r="1.59"/><circle class="cls-6" cx="118" cy="23.71" r="2"/><line class="cls-7" x1="65.66" y1="10.09" x2="62.96" y2="8.78"/><line class="cls-7" x1="58.83" y1="13.72" x2="59.25" y2="10.75"/><line class="cls-7" x1="53.26" y1="8.35" x2="56.21" y2="7.83"/><line class="cls-7" x1="56.65" y1="1.39" x2="58.06" y2="4.04"/><line class="cls-7" x1="64.32" y1="2.47" x2="62.23" y2="4.63"/></g><g id="hands"><g class="cls-8"><path class="cls-9" d="M61.22,33.84h0a27.07,27.07,0,0,1,37.91.66,26.18,26.18,0,0,1-.66,37.38c-.58.55-1.18,1-1.78,1.53C91.92,77.9,48.61,44.62,61.22,33.84Z"/><path class="cls-10" d="M64.29,34.19h0a27.07,27.07,0,0,0-37.91.65A26.19,26.19,0,0,0,27,72.22c.58.54,1.18,1,1.78,1.53,4.78,4.49,21.56,20.18,27.44,24.19,5.4,3.69,14.72,3,14.45-1.84,6.55,6.06,13.92-2.95,11.71-5.35,5.72,4.82,15.77-2.41,12.43-6.76,5.08,5,17.33-1.75,9.75-9.74C94.91,64.07,76.9,45,64.29,34.19Z"/><path class="cls-11" d="M23.69,53.62a21.07,21.07,0,0,1,6.07-15.19A21.71,21.71,0,0,1,45.39,31.9"/><line class="cls-12" x1="71.62" y1="96.99" x2="57.34" y2="83.51"/><line class="cls-12" x1="82.8" y1="91.14" x2="67.9" y2="76.79"/><line class="cls-12" x1="94.49" y1="83.75" x2="78.67" y2="68.96"/><path class="cls-13" d="M86,55a1.51,1.51,0,0,1,2.13,0A1.5,1.5,0,1,1,86,55Z"/><path class="cls-13" d="M81.13,50.05a1.5,1.5,0,1,1,0,2.13A1.51,1.51,0,0,1,81.13,50.05Z"/><path class="cls-11" d="M19.19,57.39A26.2,26.2,0,0,0,27,72.22c.58.54,1.18,1,1.78,1.53,4.78,4.49,21.56,20.18,27.44,24.19,5.4,3.69,14.72,3,14.45-1.84,6.55,6.06,13.92-2.95,11.71-5.35,5.72,4.82,15.77-2.41,12.43-6.76,5.08,5,17.33-1.75,9.75-9.74-3.73-3.92-8.69-9.17-14.11-14.75"/><line class="cls-11" x1="23.66" y1="40.86" x2="21.07" y2="39.36"/><line class="cls-11" x1="21.33" y1="46.33" x2="18.44" y2="45.49"/><line class="cls-11" x1="20.38" y1="52.2" x2="17.38" y2="52.08"/><path class="cls-11" d="M78.74,47.64c-5.08-5-10.09-9.73-14.45-13.45h0a27.07,27.07,0,0,0-37.91.65c-.32.33-.63.67-.94,1"/><path class="cls-14" d="M68.7,31.39c-2.6,1.4-4.64,2.93-5.52,4.54-2.82,5.15-5,16.87-5.51,18.33-1.4,4,4.08,7.14,8.12,3.2s7-8.12,7.55-17.47"/><path class="cls-15" d="M69.44,28.66c-3.39,1.61-6.14,3.45-7.2,5.39-2.82,5.15-5,16.87-5.51,18.33-1.4,4,4.08,7.14,8.12,3.2s7-8.12,7.55-17.47"/></g><path class="cls-16" d="M58.22,30.84h0a27.07,27.07,0,0,1,37.91.66,26.18,26.18,0,0,1-.66,37.38c-.58.55-1.18,1-1.78,1.53C88.92,74.9,45.61,41.62,58.22,30.84Z"/><path class="cls-17" d="M61.29,31.19h0a27.07,27.07,0,0,0-37.91.65A26.19,26.19,0,0,0,24,69.22c.58.54,1.18,1,1.78,1.53,4.78,4.49,21.56,20.18,27.44,24.19C58.65,98.63,68,98,67.7,93.1c6.55,6.06,13.92-2.95,11.71-5.35,5.72,4.82,15.77-2.41,12.43-6.76,5.08,5,17.33-1.75,9.75-9.74C91.91,61.07,73.9,42,61.29,31.19Z"/><path class="cls-18" d="M20.69,50.62a21.07,21.07,0,0,1,6.07-15.19A21.71,21.71,0,0,1,42.39,28.9"/><line class="cls-19" x1="68.62" y1="93.99" x2="54.34" y2="80.51"/><line class="cls-19" x1="79.8" y1="88.14" x2="64.9" y2="73.79"/><line class="cls-19" x1="91.49" y1="80.75" x2="75.67" y2="65.96"/><path class="cls-20" d="M83,52a1.51,1.51,0,0,1,2.13,0A1.5,1.5,0,1,1,83,52Z"/><path class="cls-20" d="M78.13,47.05a1.5,1.5,0,1,1,0,2.13A1.51,1.51,0,0,1,78.13,47.05Z"/><path class="cls-21" d="M16.19,54.39A26.2,26.2,0,0,0,24,69.22c.58.54,1.18,1,1.78,1.53,4.78,4.49,21.56,20.18,27.44,24.19C58.65,98.63,68,98,67.7,93.1c6.55,6.06,13.92-2.95,11.71-5.35,5.72,4.82,15.77-2.41,12.43-6.76,5.08,5,17.33-1.75,9.75-9.74-3.73-3.92-8.69-9.17-14.11-14.75"/><line class="cls-21" x1="20.66" y1="37.86" x2="18.07" y2="36.36"/><line class="cls-21" x1="18.33" y1="43.33" x2="15.44" y2="42.49"/><line class="cls-21" x1="17.38" y1="49.2" x2="14.38" y2="49.08"/><path class="cls-21" d="M75.74,44.64c-5.08-5-10.09-9.73-14.45-13.45h0a27.07,27.07,0,0,0-37.91.65c-.32.33-.63.67-.94,1"/><path class="cls-14" d="M65.7,28.39c-2.6,1.4-4.64,2.93-5.52,4.54-2.82,5.15-5,16.87-5.51,18.33-1.4,4,4.08,7.14,8.12,3.2s7-8.12,7.55-17.47"/><path class="cls-22" d="M66.44,25.66c-3.39,1.61-6.14,3.45-7.2,5.39-2.82,5.15-5,16.87-5.51,18.33-1.4,4,4.08,7.14,8.12,3.2s7-8.12,7.55-17.47"/></g><path class="cls-23" d="M62.27,84.83a7.17,7.17,0,0,0-4.59-2.36,6.9,6.9,0,0,0-1.52-6.76,7.16,7.16,0,0,0-4.44-2.32A7,7,0,0,0,41.27,65.2l-1.82,1.64a7.27,7.27,0,0,0-1.77-3.72,6.81,6.81,0,0,0-9-1.19l-4.91,4.4-.17.17a6.83,6.83,0,0,0,.24,9.09,7.24,7.24,0,0,0,4.3,2.32,6.84,6.84,0,0,0,1.38,7.18,7,7,0,0,0,5.17,2.39,6.22,6.22,0,0,0,1-.1,7.19,7.19,0,0,0,7,7.45,6.6,6.6,0,0,0,1.83-.27,7.16,7.16,0,0,0,1.85,4.53,7.08,7.08,0,0,0,5.18,2.38,7,7,0,0,0,3.83-1.2l6.9-6.18.16-.18A6.8,6.8,0,0,0,62.27,84.83Z"/><path class="cls-24" d="M47.36,72.53c3.94-4.87-2-11.48-7.27-8.07l-5.34,4.8c3.94-4.86-2-11.48-7.27-8.07l-4.72,4.25c-3.94,4.87,2,11.49,7.27,8.08L28.43,75c-3.94,4.87,2,11.48,7.27,8.07Z"/><path class="cls-24" d="M52.07,82.9l1.16-1c3.94-4.87-2-11.48-7.27-8.07L36.5,82.31c-3.94,4.86,2,11.48,7.27,8.07L47.57,87l-2.21,2c-3.94,4.87,2,11.48,7.27,8.07l6.71-6C63.28,86.1,57.32,79.49,52.07,82.9Z"/><path class="cls-25" d="M60.27,82.83a7.17,7.17,0,0,0-4.59-2.36,6.9,6.9,0,0,0-1.52-6.76,7.23,7.23,0,0,0-4.43-2.33A7,7,0,0,0,39.27,63.2l-1.81,1.63a7.25,7.25,0,0,0-1.78-3.71,6.81,6.81,0,0,0-9-1.19l-4.91,4.4-.17.17a6.83,6.83,0,0,0,.24,9.09,7.24,7.24,0,0,0,4.3,2.32,6.84,6.84,0,0,0,1.38,7.18,7,7,0,0,0,5.17,2.39,6.2,6.2,0,0,0,1-.1,7.21,7.21,0,0,0,7,7.45,6.6,6.6,0,0,0,1.83-.27,7.16,7.16,0,0,0,1.85,4.53,7.08,7.08,0,0,0,5.18,2.38,7,7,0,0,0,3.83-1.2l6.9-6.18.16-.18A6.8,6.8,0,0,0,60.27,82.83ZM23.86,66.48l4.54-4.09a4,4,0,0,1,5.26,5.84l-4.54,4.09a4,4,0,0,1-5.26-5.84Zm5.88,14.61A3.85,3.85,0,0,1,29.53,76L41,65.66a4,4,0,0,1,5.26,5.84l-10.7,9.63-.07.06h0l-.7.63A3.84,3.84,0,0,1,29.74,81.09Zm8.06,7.35a3.84,3.84,0,0,1-.2-5.1L46.87,75a4,4,0,0,1,5.26,5.84l-9.27,8.35A3.85,3.85,0,0,1,37.8,88.44Zm20.44,1.5-6.52,5.88A4,4,0,0,1,46.46,90L53,84.1a4,4,0,0,1,5.26,5.84Z"/></svg>