<svg xmlns="http://www.w3.org/2000/svg" viewBox="0 0 120 120"><defs><style>.cls-1{isolation:isolate;}.cls-16,.cls-2{opacity:0.3;}.cls-2{mix-blend-mode:multiply;}.cls-3,.cls-4,.cls-5{fill:#50aaff;}.cls-3,.cls-4,.cls-6,.cls-7,.cls-9{stroke:#50aaff;}.cls-14,.cls-22,.cls-3,.cls-4,.cls-7,.cls-8,.cls-9{stroke-linecap:round;}.cls-13,.cls-14,.cls-22,.cls-3,.cls-4,.cls-6,.cls-7,.cls-8,.cls-9{stroke-linejoin:round;}.cls-3,.cls-8{stroke-width:3px;}.cls-13,.cls-14,.cls-22,.cls-4,.cls-6,.cls-7,.cls-9{stroke-width:2px;}.cls-13,.cls-14,.cls-22,.cls-6,.cls-7{fill:none;}.cls-11,.cls-8{fill:#bbe8ff;}.cls-13,.cls-19,.cls-8{stroke:#1e55eb;}.cls-9{fill:#e6f5ff;}.cls-10{fill:#66b5ff;}.cls-12,.cls-19{fill:#1e55eb;}.cls-14{stroke:#fff;}.cls-15{fill:#f0ffd7;}.cls-16,.cls-17{fill:#3181ff;}.cls-18{fill:#44cb67;}.cls-19{stroke-miterlimit:10;}.cls-20{fill:#192d9b;}.cls-21{fill:#1aa651;}.cls-22{stroke:#192d9b;}</style></defs><title>daycare</title><g class="cls-1"><g id="daycare"><g id="Blocks"><g class="cls-2"><rect class="cls-3" x="52.51" y="52.01" width="56.97" height="56.97" transform="translate(-12.34 146.29) rotate(-80)"/><polyline class="cls-4" points="99.43 101.43 98.67 105.73 55.77 98.17 63.33 55.27 106.23 62.83 102.79 82.36"/><path class="cls-5" d="M101.79,88.05A1.87,1.87,0,1,1,104,86.53,1.87,1.87,0,0,1,101.79,88.05Z"/><path class="cls-5" d="M100.78,93.74A1.87,1.87,0,1,1,103,92.22,1.87,1.87,0,0,1,100.78,93.74Z"/><path class="cls-5" d="M99.78,99.43A1.87,1.87,0,1,1,102,97.91,1.87,1.87,0,0,1,99.78,99.43Z"/><path class="cls-5" d="M80.45,93.22,68.23,91.07l4.39-24.86L87,68.75c3.5.62,5.11,4.22,4.55,7.37A6.28,6.28,0,0,1,87,81.24a6.18,6.18,0,0,1,3.5,7.18C89.72,92.9,85.36,94.09,80.45,93.22Zm-2-20L77.75,77l4.65.82a1.72,1.72,0,0,0,2.2-1.6c.24-1.36-.44-2-1.31-2.18Zm4,10.13-5.64-1-.74,4.17,5.4,1a2.14,2.14,0,0,0,1-4.13Z"/><path class="cls-5" d="M72.62,66.21,87,68.75c3.5.62,5.11,4.22,4.55,7.37A6.28,6.28,0,0,1,87,81.24a6.18,6.18,0,0,1,3.5,7.18C89.87,92,87,93.48,83.3,93.48a16.78,16.78,0,0,1-2.85-.26L68.23,91.07l4.39-24.86m0-2a2,2,0,0,0-2,1.65L66.26,90.72A2,2,0,0,0,67.89,93l12.22,2.15a18.82,18.82,0,0,0,3.19.29c5.08,0,8.42-2.44,9.18-6.71a8.39,8.39,0,0,0-1.8-7.23,8.56,8.56,0,0,0,2.88-5.07c.92-5.22-2.41-9-6.17-9.69L73,64.24a2,2,0,0,0-.34,0Z"/><path class="cls-6" d="M82.45,83.35l-5.64-1-.74,4.17,5.4,1a2.14,2.14,0,0,0,1-4.13Z"/><path class="cls-6" d="M78.42,73.22,77.75,77l4.65.82a1.72,1.72,0,0,0,2.2-1.6c.24-1.36-.44-2-1.31-2.18Z"/><line class="cls-7" x1="66.27" y1="64.21" x2="60.98" y2="94.22"/><line class="cls-7" x1="66.84" y1="60.97" x2="66.88" y2="60.76"/></g><rect class="cls-8" x="49.51" y="49.01" width="56.97" height="56.97" transform="translate(-11.87 140.86) rotate(-80)"/><polyline class="cls-9" points="96.43 98.43 95.67 102.73 52.77 95.17 60.33 52.27 103.23 59.83 99.79 79.36"/><path class="cls-10" d="M98.79,85.05A1.87,1.87,0,1,1,101,83.53,1.87,1.87,0,0,1,98.79,85.05Z"/><path class="cls-10" d="M97.78,90.74A1.87,1.87,0,1,1,100,89.22,1.87,1.87,0,0,1,97.78,90.74Z"/><path class="cls-10" d="M96.78,96.43A1.87,1.87,0,1,1,99,94.91,1.87,1.87,0,0,1,96.78,96.43Z"/><path class="cls-11" d="M77.45,90.22,65.23,88.07l4.39-24.86L84,65.75c3.5.62,5.11,4.22,4.55,7.37A6.28,6.28,0,0,1,84,78.24a6.18,6.18,0,0,1,3.5,7.18C86.72,89.9,82.36,91.09,77.45,90.22Zm-2-20L74.75,74l4.65.82a1.72,1.72,0,0,0,2.2-1.6c.24-1.36-.44-2-1.31-2.18Zm4,10.13-5.64-1-.74,4.17,5.4,1a2.14,2.14,0,0,0,1-4.13Z"/><path class="cls-12" d="M69.62,63.21,84,65.75c3.5.62,5.11,4.22,4.55,7.37A6.28,6.28,0,0,1,84,78.24a6.18,6.18,0,0,1,3.5,7.18C86.87,89,84,90.48,80.3,90.48a16.78,16.78,0,0,1-2.85-.26L65.23,88.07l4.39-24.86m0-2a2,2,0,0,0-2,1.65L63.26,87.72A2,2,0,0,0,64.89,90l12.22,2.15a18.82,18.82,0,0,0,3.19.29c5.08,0,8.42-2.44,9.18-6.71a8.39,8.39,0,0,0-1.8-7.23,8.56,8.56,0,0,0,2.88-5.07c.92-5.22-2.41-9-6.17-9.69L70,61.24a2,2,0,0,0-.34,0Z"/><path class="cls-13" d="M79.45,80.35l-5.64-1-.74,4.17,5.4,1a2.14,2.14,0,0,0,1-4.13Z"/><path class="cls-13" d="M75.42,70.22,74.75,74l4.65.82a1.72,1.72,0,0,0,2.2-1.6c.24-1.36-.44-2-1.31-2.18Z"/><line class="cls-14" x1="63.27" y1="61.21" x2="57.98" y2="91.22"/><line class="cls-14" x1="63.84" y1="57.97" x2="63.88" y2="57.76"/><g class="cls-2"><polyline class="cls-3" points="13.97 33.2 12 22.04 68.11 12.14 78 68.25 21.89 78.14 18.65 59.75"/><line class="cls-6" x1="15.35" y1="55.45" x2="20.28" y2="54.58"/><line class="cls-6" x1="14.35" y1="49.76" x2="19.27" y2="48.89"/><line class="cls-6" x1="13.35" y1="44.07" x2="18.27" y2="43.2"/><line class="cls-6" x1="12.34" y1="38.38" x2="17.27" y2="37.51"/><rect class="cls-4" x="23.09" y="23.23" width="43.82" height="43.82" transform="translate(-7.16 8.5) rotate(-10)"/><path class="cls-5" d="M39.68,33.19,46,32.08,59,55.57l-7,1.22-2.38-4.62L43,53.34,42.4,58.5l-7,1.23Zm8.09,14.59-3.58-7.36-1,8.16Z"/><path class="cls-5" d="M39.68,33.19,46,32.08,59,55.57l-7,1.22-2.38-4.62L43,53.34,42.4,58.5l-7,1.23Zm8.09,14.59-3.58-7.36-1,8.16Z"/><path class="cls-5" d="M46,32.08,59,55.57l-7,1.22-2.38-4.62L43,53.34,42.4,58.5l-7,1.23,4.29-26.54L46,32.08m0-2a1.39,1.39,0,0,0-.35,0l-6.27,1.1a2,2,0,0,0-1.63,1.65L33.41,59.41a2,2,0,0,0,2,2.32l.35,0,7-1.23a2,2,0,0,0,1.64-1.74l.44-3.68,3.74-.66,1.71,3.32a2,2,0,0,0,1.78,1.08,1.31,1.31,0,0,0,.34,0l7-1.23a2,2,0,0,0,1.46-1.11,2,2,0,0,0-.06-1.83L47.7,31.11a2,2,0,0,0-1.75-1Z"/><polygon class="cls-6" points="47.77 47.78 44.19 40.42 43.23 48.58 47.77 47.78"/><line class="cls-7" x1="25.39" y1="34.78" x2="30.68" y2="64.79"/><line class="cls-7" x1="24.82" y1="31.54" x2="24.78" y2="31.33"/></g><polyline class="cls-8" points="10.97 30.2 9 19.04 65.11 9.14 75 65.25 18.89 75.14 15.65 56.75"/><line class="cls-13" x1="12.35" y1="52.45" x2="17.28" y2="51.58"/><line class="cls-13" x1="11.35" y1="46.76" x2="16.27" y2="45.89"/><line class="cls-13" x1="10.35" y1="41.07" x2="15.27" y2="40.2"/><line class="cls-13" x1="9.34" y1="35.38" x2="14.27" y2="34.51"/><rect class="cls-9" x="20.09" y="20.23" width="43.82" height="43.82" transform="translate(-6.68 7.93) rotate(-10)"/><path class="cls-15" d="M36.68,30.19,43,29.08,56,52.57l-7,1.22-2.38-4.62L40,50.34,39.4,55.5l-7,1.23Zm8.09,14.59-3.58-7.36-1,8.16Z"/><path class="cls-15" d="M36.68,30.19,43,29.08,56,52.57l-7,1.22-2.38-4.62L40,50.34,39.4,55.5l-7,1.23Zm8.09,14.59-3.58-7.36-1,8.16Z"/><path class="cls-12" d="M43,29.08,56,52.57l-7,1.22-2.38-4.62L40,50.34,39.4,55.5l-7,1.23,4.29-26.54L43,29.08m0-2a1.39,1.39,0,0,0-.35,0l-6.27,1.1a2,2,0,0,0-1.63,1.65L30.41,56.41a2,2,0,0,0,2,2.32l.35,0,7-1.23a2,2,0,0,0,1.64-1.74l.44-3.68,3.74-.66,1.71,3.32a2,2,0,0,0,1.78,1.08,1.31,1.31,0,0,0,.34,0l7-1.23a2,2,0,0,0,1.46-1.11,2,2,0,0,0-.06-1.83L44.7,28.11a2,2,0,0,0-1.75-1Z"/><polygon class="cls-13" points="44.77 44.78 41.19 37.42 40.23 45.58 44.77 44.78"/><line class="cls-14" x1="22.39" y1="31.78" x2="27.68" y2="61.79"/><line class="cls-14" x1="21.82" y1="28.54" x2="21.78" y2="28.33"/></g><g id="sparkles"><circle class="cls-16" cx="30.14" cy="95.34" r="3.88"/><circle class="cls-17" cx="28.43" cy="93.63" r="3.88"/><rect class="cls-18" x="77.47" y="0.87" width="4.2" height="4.2" transform="translate(21.2 57.14) rotate(-45)"/><circle class="cls-18" cx="16.15" cy="107.59" r="2.24"/><circle class="cls-19" cx="2.11" cy="50.74" r="1.59"/><circle class="cls-20" cx="37.02" cy="7.66" r="1.5"/><circle class="cls-17" cx="66.52" cy="118.41" r="1.5"/><circle class="cls-21" cx="118.02" cy="45.04" r="1.5"/><line class="cls-22" x1="98.58" y1="32.03" x2="95.88" y2="30.72"/><line class="cls-22" x1="91.74" y1="35.66" x2="92.16" y2="32.69"/><line class="cls-22" x1="86.18" y1="30.29" x2="89.13" y2="29.77"/><line class="cls-22" x1="89.57" y1="23.33" x2="90.98" y2="25.98"/><line class="cls-22" x1="97.24" y1="24.41" x2="95.15" y2="26.56"/></g></g></g></svg>