<?xml version="1.0" encoding="UTF-8"?>
<svg width="20px" height="20px" viewBox="0 0 20 20" version="1.1" xmlns="http://www.w3.org/2000/svg" xmlns:xlink="http://www.w3.org/1999/xlink">
    <!-- Generator: Sketch 52.5 (67469) - http://www.bohemiancoding.com/sketch -->
    <title>document</title>
    <desc>Created with Sketch.</desc>
    <g id="document" stroke="none" stroke-width="1" fill="none" fill-rule="evenodd">
        <g transform="translate(3.000000, 1.000000)" fill="#3181FF" fill-rule="nonzero" id="Combined-Shape">
            <path d="M12,7 L7.98852539,7 C7.43624064,7 6.98852539,6.55228475 6.98852539,6 L6.98852539,2 L2,2 L2,16 L12,16 L12,7 Z M10.6062661,5 L8.98852539,3.36259123 L8.98852539,5 L10.6062661,5 Z M1,0 L8.06005859,0 C8.32736943,0 8.58355303,0.10702259 8.77142483,0.297178491 L13.7113662,5.29717849 C13.896295,5.4843556 14,5.73687659 14,6 L14,17 C14,17.5522847 13.5522847,18 13,18 L1,18 C0.44771525,18 0,17.5522847 0,17 L0,1 C0,0.44771525 0.44771525,0 1,0 Z"></path>
        </g>
    </g>
</svg>