<svg xmlns="http://www.w3.org/2000/svg" viewBox="0 0 120 120"><defs><style>.cls-1,.cls-17{opacity:0.3;}.cls-2,.cls-3,.cls-6{fill:#50aaff;}.cls-3,.cls-4,.cls-5,.cls-6,.cls-7,.cls-9{stroke:#50aaff;}.cls-10,.cls-11,.cls-12,.cls-15,.cls-16,.cls-20,.cls-24,.cls-3,.cls-4,.cls-5,.cls-6,.cls-7,.cls-9{stroke-linecap:round;}.cls-10,.cls-11,.cls-12,.cls-16,.cls-24,.cls-3,.cls-4,.cls-5,.cls-6,.cls-9{stroke-linejoin:round;}.cls-11,.cls-16,.cls-20,.cls-24,.cls-3,.cls-5,.cls-9{stroke-width:2px;}.cls-10,.cls-11,.cls-15,.cls-20,.cls-24,.cls-4,.cls-5,.cls-7{fill:none;}.cls-10,.cls-12,.cls-4,.cls-6{stroke-width:3px;}.cls-15,.cls-22,.cls-7{stroke-miterlimit:10;}.cls-8{fill:#e6f5ff;}.cls-14,.cls-9{fill:#bbe8ff;}.cls-10,.cls-11,.cls-12,.cls-15,.cls-16{stroke:#1e55eb;}.cls-12,.cls-16{fill:#e1fffa;}.cls-13{fill:#1e55eb;}.cls-17,.cls-18{fill:#3181ff;}.cls-19{fill:#00c6c6;}.cls-20{stroke:#3b6bee;}.cls-21,.cls-22{fill:#192d9b;}.cls-22{stroke:#192d9b;}.cls-23{fill:#00a0aa;}.cls-24{stroke:#fff;}</style></defs><title>dog_1</title><g class="cls-1"><path class="cls-2" d="M104.86,55.84a22.49,22.49,0,0,0-.19-3,2.08,2.08,0,0,0-3-1.62,23.18,23.18,0,0,1-32.6-14.9,23.77,23.77,0,0,0-3.22,2.51C62.59,26.37,54.76,12.61,51.79,12.46c-5.28-.25-11.3,17.78-10.32,29.75,0,.29.05.58.07.88a20.9,20.9,0,0,0-6.17,9.85h0L24.41,89.29l25,12.51L71,101l.5-11.78A10.16,10.16,0,0,1,81.67,79h0A23.2,23.2,0,0,0,104.86,55.84Z"/><path class="cls-3" d="M95.3,53.28c1.15,8.11,9.17,6.92,9.31,5.93a22,22,0,0,0,.25-3.37,22.75,22.75,0,0,0-.19-3,2.08,2.08,0,0,0-3-1.6A23.11,23.11,0,0,1,95.3,53.28Z"/><path class="cls-4" d="M27.88,77.74,24.41,89.29l25,12.51L71,101l.5-11.78A10.16,10.16,0,0,1,81.67,79h0a23.2,23.2,0,0,0,23.2-23.2,22.49,22.49,0,0,0-.19-3,2.08,2.08,0,0,0-3-1.62,23.18,23.18,0,0,1-32.6-14.9,23.77,23.77,0,0,0-3.22,2.51C62.59,26.37,54.76,12.61,51.79,12.46c-5.28-.25-11.3,17.78-10.32,29.75,0,.29.05.58.07.88a20.9,20.9,0,0,0-6.17,9.85"/><line class="cls-5" x1="35.45" y1="57.8" x2="32.58" y2="56.93"/><line class="cls-5" x1="33.85" y1="63.11" x2="30.98" y2="62.25"/><line class="cls-5" x1="32.25" y1="68.43" x2="29.38" y2="67.56"/><line class="cls-5" x1="30.65" y1="73.75" x2="27.78" y2="72.88"/><path class="cls-6" d="M69.37,34.27a25.7,25.7,0,0,0-4.48.08C61.37,23.36,54.63,12.7,52,12.6c-2.14-.08-4.12,18-2,28.42a26.24,26.24,0,0,0-7.53,26.85,15,15,0,0,1,13.45-6.54,24.78,24.78,0,0,1,6,1.45c.4.19.81.37,1.23.53l.07,0h0a14.68,14.68,0,0,0,4.1.87,15,15,0,0,0,2.05-29.93Z"/><circle class="cls-2" cx="71.86" cy="50.12" r="3.3"/><path class="cls-2" d="M73.65,97.47a62.74,62.74,0,0,1-50-14.42l-2.55,8.68A62.74,62.74,0,0,0,73.62,106l0-.13Z"/><path class="cls-4" d="M52.22,96.93A62.58,62.58,0,0,1,23.69,83.05l-2.55,8.68A62.74,62.74,0,0,0,73.62,106l0-.13V97.47a62.64,62.64,0,0,1-8.19.66"/><path class="cls-7" d="M57.32,97.73a1.5,1.5,0,1,1,1.35,1.65A1.49,1.49,0,0,1,57.32,97.73Z"/><circle class="cls-3" cx="73.65" cy="108.98" r="4.56"/></g><path class="cls-8" d="M101.86,52.84a22.49,22.49,0,0,0-.19-3,2.08,2.08,0,0,0-3-1.62,23.18,23.18,0,0,1-32.6-14.9,23.77,23.77,0,0,0-3.22,2.51C59.59,23.37,51.76,9.61,48.79,9.46c-5.28-.25-11.3,17.78-10.32,29.75,0,.29.05.58.07.88a20.9,20.9,0,0,0-6.17,9.85h0L21.41,86.29l25,12.51L68,98l.5-11.78A10.16,10.16,0,0,1,78.67,76h0A23.2,23.2,0,0,0,101.86,52.84Z"/><path class="cls-9" d="M92.3,50.28c1.15,8.11,9.17,6.92,9.31,5.93a22,22,0,0,0,.25-3.37,22.75,22.75,0,0,0-.19-3,2.08,2.08,0,0,0-3-1.6A23.11,23.11,0,0,1,92.3,50.28Z"/><path class="cls-10" d="M24.88,74.74,21.41,86.29l25,12.51L68,98l.5-11.78A10.16,10.16,0,0,1,78.67,76h0a23.2,23.2,0,0,0,23.2-23.2,22.49,22.49,0,0,0-.19-3,2.08,2.08,0,0,0-3-1.62,23.18,23.18,0,0,1-32.6-14.9,23.77,23.77,0,0,0-3.22,2.51C59.59,23.37,51.76,9.61,48.79,9.46c-5.28-.25-11.3,17.78-10.32,29.75,0,.29.05.58.07.88a20.9,20.9,0,0,0-6.17,9.85"/><line class="cls-11" x1="32.45" y1="54.8" x2="29.58" y2="53.93"/><line class="cls-11" x1="30.85" y1="60.11" x2="27.98" y2="59.25"/><line class="cls-11" x1="29.25" y1="65.43" x2="26.38" y2="64.56"/><line class="cls-11" x1="27.65" y1="70.75" x2="24.78" y2="69.88"/><path class="cls-12" d="M66.37,31.27a25.7,25.7,0,0,0-4.48.08C58.37,20.36,51.63,9.7,49,9.6c-2.14-.08-4.12,18-2,28.42a26.24,26.24,0,0,0-7.53,26.85,15,15,0,0,1,13.45-6.54,24.78,24.78,0,0,1,6,1.45c.4.19.81.37,1.23.53l.07,0h0a14.68,14.68,0,0,0,4.1.87,15,15,0,0,0,2.05-29.93Z"/><circle class="cls-13" cx="68.86" cy="47.12" r="3.3"/><path class="cls-14" d="M70.65,94.47a62.74,62.74,0,0,1-50-14.42l-2.55,8.68A62.74,62.74,0,0,0,70.62,103l0-.13Z"/><path class="cls-10" d="M49.22,93.93A62.58,62.58,0,0,1,20.69,80.05l-2.55,8.68A62.74,62.74,0,0,0,70.62,103l0-.13V94.47a62.64,62.64,0,0,1-8.19.66"/><path class="cls-15" d="M54.32,94.73a1.5,1.5,0,1,1,1.35,1.65A1.49,1.49,0,0,1,54.32,94.73Z"/><circle class="cls-16" cx="70.65" cy="105.98" r="4.56"/><g id="sparkles"><circle class="cls-17" cx="116.12" cy="83.98" r="3.88"/><circle class="cls-18" cx="114.41" cy="82.27" r="3.88"/><rect class="cls-19" x="1.33" y="37.31" width="4.2" height="4.2" transform="translate(-26.86 13.97) rotate(-45)"/><path class="cls-20" d="M101.9,17.74A5.86,5.86,0,0,1,98.81,24"/><path class="cls-20" d="M94.13,24.26A5.93,5.93,0,0,1,91.26,22a5.83,5.83,0,0,1-1-3.53"/><path class="cls-20" d="M92.37,14.28a5.86,5.86,0,0,1,6.94-.44"/><circle class="cls-19" cx="95.2" cy="91.36" r="2.24"/><circle class="cls-21" cx="14.16" cy="103.01" r="1.59"/><circle class="cls-22" cx="33.45" cy="1" r="1"/><circle class="cls-21" cx="14.16" cy="48" r="1"/><circle class="cls-23" cx="29.7" cy="118" r="2"/></g><path class="cls-24" d="M53.15,54.34c-.44,0-.88-.05-1.31-.05a18.91,18.91,0,0,0-9.47,2.54c0-.31,0-.61,0-.92A22.3,22.3,0,0,1,56.94,36.56"/><polyline class="cls-24" points="58.17 55.32 57.42 55.05 57.4 55.11"/></svg>