<?xml version="1.0" encoding="UTF-8"?>
<svg width="190px" height="162px" viewBox="0 0 190 162" version="1.1" xmlns="http://www.w3.org/2000/svg" xmlns:xlink="http://www.w3.org/1999/xlink">
    <!-- Generator: Sketch 52.5 (67469) - http://www.bohemiancoding.com/sketch -->
    <title>jobs_engineering</title>
    <desc>Created with Sketch.</desc>
    <g id="Page-1" stroke="none" stroke-width="1" fill="none" fill-rule="evenodd">
        <g id="Jobs-Page---Listing---Desktop-(1)" transform="translate(-1077.000000, -1408.000000)">
            <g id="Sidebar" transform="translate(1035.000000, 354.000000)">
                <g id="Why-Prezi-Copy-2" transform="translate(0.000000, 1032.000000)">
                    <g id="Illustration">
                        <g id="jobs_engineering" transform="translate(42.000000, 23.000000)">
                            <path d="M142.71,8.25157233 C123.139626,13.7884184 103.875751,20.3687819 85,27.9647799 L131,144.845283 C146.150531,138.75583 161.612399,133.482123 177.32,129.046541 L142.71,8.25157233 Z" id="Path" fill="#BBE8FF" opacity="0.5"></path>
                            <ellipse id="Oval" fill="#BBE8FF" opacity="0.5" cx="55.37" cy="101.373585" rx="40.82" ry="41.0767296"></ellipse>
                            <g id="Group" opacity="0.3" transform="translate(27.000000, 38.238994)">
                                <rect id="Rectangle" fill="#50AAFF" x="11" y="0" width="120" height="84.0251572" rx="6"></rect>
                                <path d="M9.5,38.1685535 L12.5,38.1685535" id="Path" stroke="#50AAFF" stroke-width="2" stroke-linecap="round" stroke-linejoin="round"></path>
                                <path d="M9.5,32.4628931 L12.5,32.4628931" id="Path" stroke="#50AAFF" stroke-width="2" stroke-linecap="round" stroke-linejoin="round"></path>
                                <path d="M9.5,26.7471698 L12.5,26.7471698" id="Path" stroke="#50AAFF" stroke-width="2" stroke-linecap="round" stroke-linejoin="round"></path>
                                <path d="M9.5,21.0314465 L12.5,21.0314465" id="Path" stroke="#50AAFF" stroke-width="2" stroke-linecap="round" stroke-linejoin="round"></path>
                                <path d="M11,16.2716981 L11,6.03773585 C11,2.70318642 13.6862915,0 17,0 L125,0 C128.313708,0 131,2.70318642 131,6.03773585 L131,77.9874214 C131,81.3219708 128.313708,84.0251572 125,84.0251572 L17,84.0251572 C13.6862915,84.0251572 11,81.3219708 11,77.9874214 L11,44.9509434" id="Path" stroke="#50AAFF" stroke-width="3" stroke-linecap="round"></path>
                                <rect id="Rectangle" fill="#50AAFF" x="18.91" y="10.2540881" width="104.17" height="66.4654088"></rect>
                                <polyline id="Path" stroke="#50AAFF" stroke-width="2" stroke-linecap="round" stroke-linejoin="round" points="123.09 68.3069182 123.09 76.709434 18.91 76.709434 18.91 10.2540881 123.09 10.2540881 123.09 59.7534591"></polyline>
                                <ellipse id="Oval" stroke="#50AAFF" stroke-width="0.75" stroke-linecap="round" cx="123.09" cy="64.0301887" rx="1.13" ry="1.13710692"></ellipse>
                                <path d="M133.5,92.5786164 L8.5,92.5786164 C4.081722,92.5786164 0.5,88.9743678 0.5,84.5283019 L0.5,83.5220126 L141.5,83.5220126 L141.5,84.5283019 C141.5,88.9743678 137.918278,92.5786164 133.5,92.5786164 Z" id="Path" stroke="#50AAFF" stroke-width="3" fill="#50AAFF" stroke-linecap="round" stroke-linejoin="round"></path>
                                <path d="M83,87.5471698 L59,87.5471698 C57.3431458,87.5471698 56,86.1955766 56,84.5283019 L56,83.5220126 L86,83.5220126 L86,84.5283019 C86,86.1955766 84.6568542,87.5471698 83,87.5471698 Z" id="Path" stroke="#50AAFF" stroke-width="2" fill="#50AAFF" stroke-linecap="round" stroke-linejoin="round"></path>
                                <ellipse id="Oval" fill="#50AAFF" cx="71.5" cy="5.53459119" rx="1.5" ry="1.50943396"></ellipse>
                            </g>
                            <rect id="Rectangle" fill="#BBE8FF" x="35" y="35.2201258" width="120" height="84.0251572" rx="6"></rect>
                            <path d="M33.5,73.3886792 L36.5,73.3886792" id="Path" stroke="#1E55EB" stroke-width="2" stroke-linecap="round" stroke-linejoin="round"></path>
                            <path d="M33.5,67.6830189 L36.5,67.6830189" id="Path" stroke="#1E55EB" stroke-width="2" stroke-linecap="round" stroke-linejoin="round"></path>
                            <path d="M33.5,61.9672956 L36.5,61.9672956" id="Path" stroke="#1E55EB" stroke-width="2" stroke-linecap="round" stroke-linejoin="round"></path>
                            <path d="M33.5,56.2515723 L36.5,56.2515723" id="Path" stroke="#1E55EB" stroke-width="2" stroke-linecap="round" stroke-linejoin="round"></path>
                            <path d="M35,51.4918239 L35,41.2578616 C35,37.9233122 37.6862915,35.2201258 41,35.2201258 L149,35.2201258 C152.313708,35.2201258 155,37.9233122 155,41.2578616 L155,113.207547 C155,116.542097 152.313708,119.245283 149,119.245283 L41,119.245283 C37.6862915,119.245283 35,116.542097 35,113.207547 L35,80.1710692" id="Path" stroke="#1E55EB" stroke-width="3" stroke-linecap="round"></path>
                            <rect id="Rectangle" fill="#E6F5FF" x="42.91" y="45.4742138" width="104.17" height="66.4654088"></rect>
                            <polyline id="Path" stroke="#1E55EB" stroke-width="2" stroke-linecap="round" stroke-linejoin="round" points="147.09 103.527044 147.09 111.92956 42.91 111.92956 42.91 45.4742138 147.09 45.4742138 147.09 94.9735849"></polyline>
                            <ellipse id="Oval" stroke="#1E55EB" stroke-width="0.75" stroke-linecap="round" cx="147.09" cy="99.2503145" rx="1.13" ry="1.13710692"></ellipse>
                            <path d="M157.5,127.798742 L32.5,127.798742 C28.081722,127.798742 24.5,124.194494 24.5,119.748428 L24.5,118.742138 L165.5,118.742138 L165.5,119.748428 C165.5,124.194494 161.918278,127.798742 157.5,127.798742 Z" id="Path" stroke="#1E55EB" stroke-width="3" fill="#BBE8FF" stroke-linecap="round" stroke-linejoin="round"></path>
                            <path d="M107,122.767296 L83,122.767296 C81.3431458,122.767296 80,121.415702 80,119.748428 L80,118.742138 L110,118.742138 L110,119.748428 C110,121.415702 108.656854,122.767296 107,122.767296 Z" id="Path" stroke="#1E55EB" stroke-width="2" fill="#E6F5FF" stroke-linecap="round" stroke-linejoin="round"></path>
                            <ellipse id="Oval" fill="#2A7DFF" cx="95.5" cy="40.754717" rx="1.5" ry="1.50943396"></ellipse>
                            <path d="M48.76,11.763522 L47.25,9.14716981" id="Path" stroke="#1E55EB" stroke-width="2" stroke-linecap="round" stroke-linejoin="round"></path>
                            <path d="M41.41,10.9786164 L43.42,8.74465409" id="Path" stroke="#1E55EB" stroke-width="2" stroke-linecap="round" stroke-linejoin="round"></path>
                            <path d="M39.88,3.72327044 L42.62,4.9509434" id="Path" stroke="#1E55EB" stroke-width="2" stroke-linecap="round" stroke-linejoin="round"></path>
                            <path d="M46.27,0 L45.96,3.00880503" id="Path" stroke="#1E55EB" stroke-width="2" stroke-linecap="round" stroke-linejoin="round"></path>
                            <path d="M51.76,4.98113208 L48.82,5.60503145" id="Path" stroke="#1E55EB" stroke-width="2" stroke-linecap="round" stroke-linejoin="round"></path>
                            <ellipse id="Oval" fill="#85E870" cx="17.06" cy="27.6528302" rx="3.12" ry="3.13962264"></ellipse>
                            <ellipse id="Oval" fill="#3181FF" cx="37.67" cy="141.554717" rx="1.91" ry="1.92201258"></ellipse>
                            <polygon id="Rectangle" fill="#1E55EB" transform="translate(3.099191, 100.110822) rotate(-45.000000) translate(-3.099191, -100.110822) " points="1.19919146 98.2108221 5.01114115 98.1988724 4.99919146 102.010822 1.18724178 102.022772"></polygon>
                            <ellipse id="Oval" fill="#85E870" opacity="0.15" cx="115.55" cy="145.791195" rx="4.33" ry="4.3572327"></ellipse>
                            <ellipse id="Oval" fill="#85E870" cx="113.65" cy="143.879245" rx="4.33" ry="4.3572327"></ellipse>
                            <ellipse id="Oval" fill="#3181FF" opacity="0.15" cx="165.98" cy="20.8603774" rx="3.12" ry="3.13962264"></ellipse>
                            <ellipse id="Oval" fill="#3181FF" cx="164.71" cy="19.572327" rx="3.12" ry="3.13962264"></ellipse>
                            <ellipse id="Oval" fill="#1E55EB" cx="187.67" cy="62.3899371" rx="1.75" ry="1.76100629"></ellipse>
                            <path d="M178.95,156.427673 L176.63,154.50566" id="Path" stroke="#192D9B" stroke-width="2" stroke-linecap="round" stroke-linejoin="round"></path>
                            <path d="M172.67,159.345912 L172.72,156.327044" id="Path" stroke="#192D9B" stroke-width="2" stroke-linecap="round" stroke-linejoin="round"></path>
                            <path d="M166.48,156.226415 L168.86,154.384906" id="Path" stroke="#192D9B" stroke-width="2" stroke-linecap="round" stroke-linejoin="round"></path>
                            <path d="M165.05,149.413836 L167.97,150.128302" id="Path" stroke="#192D9B" stroke-width="2" stroke-linecap="round" stroke-linejoin="round"></path>
                            <path d="M169.46,144.040252 L170.72,146.787421" id="Path" stroke="#192D9B" stroke-width="2" stroke-linecap="round" stroke-linejoin="round"></path>
                            <path d="M176.38,144.161006 L175.03,146.857862" id="Path" stroke="#192D9B" stroke-width="2" stroke-linecap="round" stroke-linejoin="round"></path>
                            <path d="M180.6,149.675472 L177.66,150.289308" id="Path" stroke="#192D9B" stroke-width="2" stroke-linecap="round" stroke-linejoin="round"></path>
                            <ellipse id="Oval" fill="#85E870" cx="169.92" cy="92.5786164" rx="1.75" ry="1.76100629"></ellipse>
                            <ellipse id="Oval" fill="#15549A" cx="17" cy="148.930818" rx="1.27" ry="1.27798742"></ellipse>
                            <rect id="Rectangle" fill="#E6F5FF" x="49" y="50.7773585" width="92" height="54.8830189"></rect>
                            <rect id="Rectangle" fill="#BBE8FF" x="49" y="50.7773585" width="92" height="12.5484277"></rect>
                            <rect id="Rectangle" stroke="#1E55EB" stroke-width="2" stroke-linecap="round" stroke-linejoin="round" x="49" y="50.7773585" width="92" height="54.8830189"></rect>
                            <path d="M49,63.3257862 L141,63.3257862" id="Path" stroke="#1E55EB" stroke-width="2" stroke-linecap="round" stroke-linejoin="round"></path>
                            <ellipse id="Oval" fill="#1E55EB" cx="59.7" cy="56.6842767" rx="2" ry="2.01257862"></ellipse>
                            <ellipse id="Oval" fill="#1E55EB" cx="66.4" cy="56.6842767" rx="2" ry="2.01257862"></ellipse>
                            <ellipse id="Oval" fill="#1E55EB" cx="73.1" cy="56.6842767" rx="2" ry="2.01257862"></ellipse>
                            <g id="Group" opacity="0.19" transform="translate(74.000000, 69.433962)">
                                <rect id="Rectangle" fill="#3181FF" x="0.51" y="0.966037736" width="44.98" height="30.7421384"></rect>
                                <rect id="Rectangle" stroke="#3181FF" stroke-width="2" stroke-linecap="round" stroke-linejoin="round" x="0.51" y="0.966037736" width="44.98" height="30.7421384"></rect>
                            </g>
                            <rect id="Rectangle" fill="#F0FFD7" x="72.51" y="68.3874214" width="44.98" height="30.7421384"></rect>
                            <rect id="Rectangle" stroke="#50AAFF" stroke-width="2" stroke-linecap="round" stroke-linejoin="round" x="72.51" y="68.3874214" width="44.98" height="30.7421384"></rect>
                            <polyline id="Path" stroke="#50AAFF" stroke-width="2" stroke-linecap="round" stroke-linejoin="round" points="88.07 90.0125786 81.94 83.8440252 88.07 77.6754717"></polyline>
                            <polyline id="Path" stroke="#50AAFF" stroke-width="2" stroke-linecap="round" stroke-linejoin="round" points="101.93 77.6754717 108.06 83.8440252 101.93 90.0125786"></polyline>
                            <path d="M97.5,77.5044025 L92.74,89.8314465" id="Path" stroke="#50AAFF" stroke-width="2" stroke-linecap="round"></path>
                            <path d="M53.25,61.4842767 L53.25,103.597484" id="Path" stroke="#FFFFFF" stroke-width="2" stroke-linecap="round" stroke-linejoin="round"></path>
                            <path d="M53.25,53.3333333 L53.25,57.881761" id="Path" stroke="#FFFFFF" stroke-width="2" stroke-linecap="round" stroke-linejoin="round"></path>
                        </g>
                    </g>
                </g>
            </g>
        </g>
    </g>
</svg>