<svg xmlns="http://www.w3.org/2000/svg" viewBox="0 0 120 120"><defs><style>.cls-1{isolation:isolate;}.cls-2,.cls-3{fill:#3181ff;}.cls-2,.cls-8{opacity:0.3;}.cls-4{fill:#00c6c6;}.cls-10,.cls-11,.cls-12,.cls-13,.cls-16,.cls-17,.cls-18,.cls-5{fill:none;stroke-linecap:round;}.cls-5{stroke:#3b6bee;}.cls-10,.cls-12,.cls-16,.cls-17,.cls-19,.cls-21,.cls-5{stroke-width:2px;}.cls-6{fill:#192d9b;stroke:#192d9b;}.cls-11,.cls-6{stroke-miterlimit:10;}.cls-7{fill:#00a0aa;}.cls-8{mix-blend-mode:multiply;}.cls-19,.cls-20,.cls-9{fill:#50aaff;}.cls-10,.cls-11,.cls-12,.cls-13,.cls-19,.cls-20{stroke:#50aaff;}.cls-10,.cls-13,.cls-16,.cls-18{stroke-miterlimit:2.61;}.cls-12,.cls-17,.cls-19,.cls-20,.cls-21,.cls-22{stroke-linejoin:round;}.cls-13,.cls-18,.cls-20,.cls-22{stroke-width:3px;}.cls-14,.cls-22{fill:#bbe8ff;}.cls-15{fill:#e6f5ff;}.cls-16{stroke:#fff;}.cls-17,.cls-18,.cls-21,.cls-22{stroke:#1e55eb;}.cls-21{fill:#e1fffa;}</style></defs><title>food</title><g class="cls-1"><g id="Food"><g id="sparkles"><circle class="cls-2" cx="92.36" cy="116.12" r="3.88"/><circle class="cls-3" cx="90.65" cy="114.41" r="3.88"/><rect class="cls-4" x="0.91" y="53.22" width="4.2" height="4.2" transform="translate(-38.23 18.33) rotate(-45)"/><path class="cls-5" d="M20.6,11.66a5.88,5.88,0,0,1-6.93-.57"/><path class="cls-5" d="M11.66,6.85a5.89,5.89,0,0,1,4-5.71"/><path class="cls-5" d="M20.29,1.52a5.88,5.88,0,0,1,3,6.29"/><circle class="cls-4" cx="96.24" cy="100.35" r="2.24"/><circle class="cls-6" cx="15.22" cy="110" r="1.59"/><circle class="cls-6" cx="56.93" cy="7.21" r="1"/><circle class="cls-6" cx="119" cy="55.32" r="1"/><circle class="cls-7" cx="107" cy="21.71" r="2"/></g><g id="plate"><g class="cls-8"><circle class="cls-9" cx="63" cy="63" r="42.43"/><circle class="cls-9" cx="63" cy="63" r="35.47"/><path class="cls-10" d="M87.58,88.58a35.48,35.48,0,1,1,9.57-16"/><path class="cls-11" d="M94.55,79.21a1.5,1.5,0,0,1,1.25-2.73,1.5,1.5,0,1,1-1.25,2.73Z"/><path class="cls-11" d="M90.37,85.56a1.5,1.5,0,0,1,1.81-2.39,1.5,1.5,0,1,1-1.81,2.39Z"/><path class="cls-10" d="M32.75,63A30.25,30.25,0,0,1,63,32.75"/><line class="cls-12" x1="26.82" y1="38.08" x2="29.29" y2="39.79"/><line class="cls-12" x1="31.11" y1="32.8" x2="33.29" y2="34.86"/><line class="cls-12" x1="36.16" y1="28.23" x2="37.99" y2="30.6"/><line class="cls-12" x1="41.85" y1="24.49" x2="43.29" y2="27.12"/><path class="cls-13" d="M47.53,23.47a42.41,42.41,0,1,1-22.3,20.17"/></g><circle class="cls-14" cx="60" cy="60" r="42.43"/><circle class="cls-15" cx="60" cy="60" r="35.47"/><path class="cls-10" d="M84.58,85.58a35.48,35.48,0,1,1,9.57-16"/><path class="cls-11" d="M91.55,76.21a1.5,1.5,0,0,1,1.25-2.73,1.5,1.5,0,1,1-1.25,2.73Z"/><path class="cls-11" d="M87.37,82.56a1.5,1.5,0,0,1,1.81-2.39,1.5,1.5,0,1,1-1.81,2.39Z"/><path class="cls-16" d="M29.75,60A30.25,30.25,0,0,1,60,29.75"/><line class="cls-17" x1="23.82" y1="35.08" x2="26.29" y2="36.79"/><line class="cls-17" x1="28.11" y1="29.8" x2="30.29" y2="31.86"/><line class="cls-17" x1="33.16" y1="25.23" x2="34.99" y2="27.6"/><line class="cls-17" x1="38.85" y1="21.49" x2="40.29" y2="24.12"/><path class="cls-18" d="M44.53,20.47a42.41,42.41,0,1,1-22.3,20.17"/><g class="cls-8"><path class="cls-19" d="M63.32,49.4a16.27,16.27,0,0,0,13.32-4.62l.2-.22L95.36,23a2.73,2.73,0,0,0-.14-3.71l-.2-.2L74.27,38.54a1.7,1.7,0,0,1-2.13.21,1.65,1.65,0,0,1-.25-2.47l18.9-20.21a.85.85,0,0,0,0-1.19l-1.14-1.14a.86.86,0,0,0-1.19,0L68.29,32.56a1.7,1.7,0,0,1-2.13.21,1.64,1.64,0,0,1-.25-2.46L85.38,9.49l-.23-.23a2.74,2.74,0,0,0-3.72-.14L60,27.68l-.21.19A16.29,16.29,0,0,0,55.11,41.2l.36,2.93a3,3,0,0,0,.16.61L12,84.11c-2.14,1.94-1.93,5.56.46,8s6,2.6,8,.46L59.77,48.88a2.57,2.57,0,0,0,.62.16Z"/><path class="cls-20" d="M11.87,92.64h0c-2.56-2.57-2.79-6.45-.49-8.54L51.17,47.47,57,53.34,20.41,93.13C18.32,95.43,14.44,95.21,11.87,92.64Z"/><path class="cls-19" d="M113.85,35.45a3.07,3.07,0,0,0-4-.29L76.31,59.34a18.82,18.82,0,0,0-7,9.84l-2.6,8.62L33.35,112.21a5.74,5.74,0,0,0,8.1,0L71.27,82.38,113.85,39.8A3.08,3.08,0,0,0,113.85,35.45Z"/><path class="cls-20" d="M32.4,113.16h0c-2.57-2.57-3-6-.5-8.54l32-25.93,6,6L40.93,113.65C38.84,116,35,115.73,32.4,113.16Z"/><line class="cls-10" x1="100.59" y1="46.77" x2="102.88" y2="45.12"/><path class="cls-10" d="M73.12,70.33a15,15,0,0,1,5.53-7.75L97.83,48.76"/><circle class="cls-9" cx="17.07" cy="87.45" r="1.9"/><circle class="cls-9" cx="22.29" cy="82.23" r="1.9"/><circle class="cls-9" cx="37.59" cy="107.97" r="1.9"/><circle class="cls-9" cx="43.09" cy="103.03" r="1.9"/></g><path class="cls-21" d="M61.32,47.4a16.27,16.27,0,0,0,13.32-4.62l.2-.22L93.36,21a2.73,2.73,0,0,0-.14-3.71l-.2-.2L72.27,36.54a1.7,1.7,0,0,1-2.13.21,1.65,1.65,0,0,1-.25-2.47l18.9-20.21a.85.85,0,0,0,0-1.19l-1.14-1.14a.86.86,0,0,0-1.19,0L66.29,30.56a1.7,1.7,0,0,1-2.13.21,1.64,1.64,0,0,1-.25-2.46L83.38,7.49l-.23-.23a2.74,2.74,0,0,0-3.72-.14L58,25.68l-.21.19A16.29,16.29,0,0,0,53.11,39.2l.36,2.93a3,3,0,0,0,.16.61L10,82.11c-2.14,1.94-1.93,5.56.46,8s6,2.6,8,.46L57.77,46.88a2.57,2.57,0,0,0,.62.16Z"/><path class="cls-22" d="M9.87,90.64h0c-2.56-2.57-2.79-6.45-.49-8.54L49.17,45.47,55,51.34,18.41,91.13C16.32,93.43,12.44,93.21,9.87,90.64Z"/><path class="cls-21" d="M111.85,33.45a3.07,3.07,0,0,0-4-.29L74.31,57.34a18.82,18.82,0,0,0-7,9.84l-2.6,8.62L31.35,110.21a5.74,5.74,0,0,0,8.1,0L69.27,80.38,111.85,37.8A3.08,3.08,0,0,0,111.85,33.45Z"/><path class="cls-22" d="M30.4,111.16h0c-2.57-2.57-3-6-.5-8.54l32-25.93,6,6L38.93,111.65C36.84,114,33,113.73,30.4,111.16Z"/><line class="cls-16" x1="98.59" y1="44.77" x2="100.88" y2="43.12"/><path class="cls-16" d="M71.12,68.33a15,15,0,0,1,5.53-7.75L95.83,46.76"/><circle class="cls-9" cx="15.07" cy="85.45" r="1.9"/><circle class="cls-9" cx="20.29" cy="80.23" r="1.9"/><circle class="cls-9" cx="35.59" cy="105.97" r="1.9"/><circle class="cls-9" cx="41.09" cy="101.03" r="1.9"/></g></g></g></svg>