<svg xmlns="http://www.w3.org/2000/svg" viewBox="0 0 120 120"><defs><style>.cls-1,.cls-14{opacity:0.3;}.cls-2,.cls-3,.cls-4,.cls-5{fill:#50aaff;}.cls-2,.cls-3,.cls-4,.cls-6,.cls-8{stroke:#50aaff;}.cls-12,.cls-13,.cls-2,.cls-20,.cls-21,.cls-6,.cls-7,.cls-9{stroke-linecap:round;}.cls-10,.cls-12,.cls-13,.cls-2,.cls-20,.cls-3,.cls-4,.cls-6,.cls-7,.cls-8,.cls-9{stroke-linejoin:round;}.cls-10,.cls-2,.cls-4,.cls-7,.cls-9{stroke-width:3px;}.cls-12,.cls-13,.cls-20,.cls-21,.cls-3,.cls-6,.cls-8{stroke-width:2px;}.cls-12,.cls-13,.cls-20,.cls-21,.cls-6{fill:none;}.cls-7{fill:#bbe8ff;}.cls-10,.cls-12,.cls-7,.cls-9{stroke:#1e55eb;}.cls-8{fill:#e6f5ff;}.cls-10,.cls-9{fill:#ffebff;}.cls-11{fill:#3b6bee;}.cls-13{stroke:#fff;}.cls-14,.cls-15{fill:#3181ff;}.cls-16{fill:#e628e1;}.cls-17{fill:#1e55eb;}.cls-18{fill:#192d9b;}.cls-19{fill:#a409b8;}.cls-20{stroke:#192d9b;}.cls-21{stroke:#3b6bee;}</style></defs><title>gym</title><g class="cls-1"><path class="cls-2" d="M75.84,56h32.88a5.84,5.84,0,0,1,5.83,5.84v4.38A5.83,5.83,0,0,1,108.72,72H17.47a5.84,5.84,0,0,1-5.84-5.84V61.81A5.85,5.85,0,0,1,17.47,56H65.76"/><path class="cls-3" d="M34.73,40.85v43.9H22.61a4,4,0,0,1-4-4V44.85a4,4,0,0,1,4-4Z"/><path class="cls-2" d="M29.93,56V36.82a4,4,0,0,1,4-4H46v60h-12a4,4,0,0,1-4-4V81.23"/><path class="cls-3" d="M91.46,84.75V40.85h12.12a4,4,0,0,1,4,4v35.9a4,4,0,0,1-4,4Z"/><path class="cls-4" d="M80.2,92.78v-60H92.26a4,4,0,0,1,4,4v52a4,4,0,0,1-4,4Z"/><circle class="cls-5" cx="70.8" cy="55.97" r="2.5"/><line class="cls-6" x1="28.43" y1="76.73" x2="31.43" y2="76.73"/><line class="cls-6" x1="28.43" y1="71.32" x2="31.43" y2="71.32"/><line class="cls-6" x1="28.43" y1="65.91" x2="31.43" y2="65.91"/><line class="cls-6" x1="28.43" y1="60.51" x2="31.43" y2="60.51"/><line class="cls-6" x1="34.73" y1="43.78" x2="34.73" y2="86.94"/><line class="cls-6" x1="34.73" y1="38.18" x2="34.73" y2="39.82"/><line class="cls-6" x1="22.72" y1="49.51" x2="22.72" y2="80.05"/><line class="cls-6" x1="22.72" y1="45.29" x2="22.72" y2="46.53"/></g><path class="cls-7" d="M72.84,53h32.88a5.84,5.84,0,0,1,5.83,5.84v4.38A5.83,5.83,0,0,1,105.72,69H14.47a5.84,5.84,0,0,1-5.84-5.84V58.81A5.85,5.85,0,0,1,14.47,53H62.76"/><path class="cls-8" d="M31.73,37.85v43.9H19.61a4,4,0,0,1-4-4V41.85a4,4,0,0,1,4-4Z"/><path class="cls-9" d="M26.93,53V33.82a4,4,0,0,1,4-4H43v60h-12a4,4,0,0,1-4-4V78.23"/><path class="cls-8" d="M88.46,81.75V37.85h12.12a4,4,0,0,1,4,4v35.9a4,4,0,0,1-4,4Z"/><path class="cls-10" d="M77.2,89.78v-60H89.26a4,4,0,0,1,4,4v52a4,4,0,0,1-4,4Z"/><circle class="cls-11" cx="67.8" cy="52.97" r="2.5"/><line class="cls-12" x1="25.43" y1="73.73" x2="28.43" y2="73.73"/><line class="cls-12" x1="25.43" y1="68.32" x2="28.43" y2="68.32"/><line class="cls-12" x1="25.43" y1="62.91" x2="28.43" y2="62.91"/><line class="cls-12" x1="25.43" y1="57.51" x2="28.43" y2="57.51"/><line class="cls-13" x1="31.73" y1="40.78" x2="31.73" y2="83.94"/><line class="cls-13" x1="31.73" y1="35.18" x2="31.73" y2="36.82"/><line class="cls-13" x1="19.72" y1="46.51" x2="19.72" y2="77.05"/><line class="cls-13" x1="19.72" y1="42.29" x2="19.72" y2="43.53"/><g id="sparkles"><circle class="cls-14" cx="100.75" cy="109.82" r="3.88"/><circle class="cls-15" cx="99.04" cy="108.12" r="3.88"/><rect class="cls-16" x="38.95" y="0.85" width="4.2" height="4.2" transform="translate(9.94 29.89) rotate(-45)"/><circle class="cls-16" cx="55.82" cy="97.47" r="2.24"/><circle class="cls-17" cx="1.59" cy="29.82" r="1.59"/><circle class="cls-18" cx="88.46" cy="10.39" r="1.5"/><circle class="cls-15" cx="85.08" cy="118.5" r="1.5"/><circle class="cls-19" cx="118.5" cy="78.23" r="1.5"/><line class="cls-20" x1="76.97" y1="22.1" x2="74.27" y2="20.79"/><line class="cls-20" x1="70.14" y1="25.73" x2="70.56" y2="22.76"/><line class="cls-20" x1="64.57" y1="20.36" x2="67.52" y2="19.84"/><line class="cls-20" x1="67.96" y1="13.4" x2="69.37" y2="16.05"/><line class="cls-20" x1="75.63" y1="14.48" x2="73.54" y2="16.63"/><path class="cls-21" d="M31.27,113a6.53,6.53,0,0,1-7.75.7"/><path class="cls-21" d="M20.51,109.43a6.57,6.57,0,0,1,3.27-7.06"/><path class="cls-21" d="M29,101.91a6.55,6.55,0,0,1,4.47,6.36"/></g></svg>