<svg xmlns="http://www.w3.org/2000/svg" viewBox="0 0 120 120"><defs><style>.cls-1{isolation:isolate;}.cls-2,.cls-3{fill:#3181ff;}.cls-10,.cls-17,.cls-2{opacity:0.3;}.cls-4{fill:#e628e1;}.cls-12,.cls-14,.cls-15,.cls-16,.cls-18,.cls-19,.cls-20,.cls-23,.cls-24,.cls-25,.cls-5,.cls-8{fill:none;}.cls-5{stroke:#3b6bee;}.cls-15,.cls-16,.cls-18,.cls-19,.cls-20,.cls-23,.cls-24,.cls-25,.cls-5,.cls-8{stroke-linecap:round;}.cls-12,.cls-14,.cls-16,.cls-18,.cls-20,.cls-21,.cls-23,.cls-25,.cls-26,.cls-5,.cls-8{stroke-width:2px;}.cls-27,.cls-6{fill:#1e55eb;}.cls-14,.cls-15,.cls-23,.cls-24,.cls-26,.cls-6{stroke:#1e55eb;}.cls-15,.cls-6,.cls-7{stroke-miterlimit:10;}.cls-7{fill:#a409b8;stroke:#a409b8;}.cls-15,.cls-7{stroke-width:0.75px;}.cls-8{stroke:#192d9b;}.cls-12,.cls-14,.cls-16,.cls-18,.cls-21,.cls-23,.cls-26,.cls-8{stroke-linejoin:round;}.cls-9{fill:#00c6c6;}.cls-11,.cls-21{fill:#50aaff;}.cls-12,.cls-18,.cls-19,.cls-20,.cls-21{stroke:#50aaff;}.cls-13{fill:#ffebff;}.cls-16{stroke:#fff;}.cls-17{mix-blend-mode:multiply;}.cls-19,.cls-20,.cls-24,.cls-25{stroke-miterlimit:2.61;}.cls-19,.cls-24{stroke-width:3px;}.cls-22{fill:#bbe8ff;}.cls-25{stroke:#e6f5ff;}.cls-26{fill:#e6f5ff;}</style></defs><title>health - BP</title><g class="cls-1"><g id="Healthcare"><g id="Sparkles"><circle class="cls-2" cx="105.48" cy="106.59" r="3.88"/><circle class="cls-3" cx="103.77" cy="104.88" r="3.88"/><rect class="cls-4" x="82.98" y="114.65" width="4.2" height="4.2" transform="translate(-57.64 94.36) rotate(-45)"/><path class="cls-5" d="M23,105.08a5.83,5.83,0,0,1-6.93-.57"/><path class="cls-5" d="M14,100.28a5.87,5.87,0,0,1,4-5.72"/><path class="cls-5" d="M22.66,95a5.87,5.87,0,0,1,3,6.29"/><circle class="cls-4" cx="2.32" cy="28.87" r="2.24"/><circle class="cls-6" cx="14.65" cy="13.7" r="1.59"/><circle class="cls-7" cx="118" cy="23.71" r="2"/><line class="cls-8" x1="95.66" y1="10.09" x2="92.96" y2="8.78"/><line class="cls-8" x1="88.83" y1="13.72" x2="89.25" y2="10.75"/><line class="cls-8" x1="83.26" y1="8.35" x2="86.21" y2="7.83"/><line class="cls-8" x1="86.65" y1="1.39" x2="88.06" y2="4.04"/><line class="cls-8" x1="94.32" y1="2.47" x2="92.23" y2="4.63"/></g><g id="Baidaids"><circle class="cls-9" cx="51.13" cy="100.25" r="1.5"/><circle class="cls-9" cx="68.63" cy="100.25" r="1.5"/><circle class="cls-9" cx="62.79" cy="100.25" r="1.5"/><circle class="cls-9" cx="56.96" cy="100.25" r="1.5"/><circle class="cls-9" cx="51.13" cy="92.75" r="1.5"/><circle class="cls-9" cx="68.63" cy="92.75" r="1.5"/><circle class="cls-9" cx="62.79" cy="92.75" r="1.5"/><circle class="cls-9" cx="56.96" cy="92.75" r="1.5"/><circle class="cls-9" cx="51.13" cy="85.25" r="1.5"/><circle class="cls-9" cx="68.63" cy="85.25" r="1.5"/><circle class="cls-9" cx="62.79" cy="85.25" r="1.5"/><circle class="cls-9" cx="56.96" cy="85.25" r="1.5"/><circle class="cls-9" cx="51.13" cy="37.25" r="1.5"/><circle class="cls-9" cx="68.63" cy="37.25" r="1.5"/><circle class="cls-9" cx="62.79" cy="37.25" r="1.5"/><circle class="cls-9" cx="56.96" cy="37.25" r="1.5"/><circle class="cls-9" cx="51.13" cy="29.75" r="1.5"/><circle class="cls-9" cx="68.63" cy="29.75" r="1.5"/><circle class="cls-9" cx="62.79" cy="29.75" r="1.5"/><circle class="cls-9" cx="56.96" cy="29.75" r="1.5"/><circle class="cls-9" cx="51.13" cy="22.25" r="1.5"/><circle class="cls-9" cx="68.63" cy="22.25" r="1.5"/><circle class="cls-9" cx="62.79" cy="22.25" r="1.5"/><circle class="cls-9" cx="56.96" cy="22.25" r="1.5"/><g class="cls-10"><rect class="cls-11" x="45.27" y="14.5" width="34.95" height="98.5" rx="13.67"/><rect class="cls-12" x="45.27" y="14.5" width="34.95" height="98.5" rx="13.67"/></g><path class="cls-13" d="M77.23,96.33A13.67,13.67,0,0,1,63.56,110H55.94A13.67,13.67,0,0,1,42.27,96.33V25.17A13.67,13.67,0,0,1,55.94,11.5h7.62A13.67,13.67,0,0,1,77.23,25.17V85.25"/><path class="cls-14" d="M77.23,96.33A13.67,13.67,0,0,1,63.56,110H55.94A13.67,13.67,0,0,1,42.27,96.33V25.17A13.67,13.67,0,0,1,55.94,11.5h7.62A13.67,13.67,0,0,1,77.23,25.17V85.25"/><line class="cls-13" x1="77.23" y1="85.25" x2="77.23" y2="96.33"/><circle class="cls-15" cx="77.23" cy="88.44" r="1.13"/><circle class="cls-15" cx="77.23" cy="93.14" r="1.13"/><path class="cls-16" d="M46.27,96.33V25.17a9.68,9.68,0,0,1,9.67-9.67"/><g class="cls-17"><path class="cls-11" d="M36.36,45.21h65A13.67,13.67,0,0,1,115,58.88v9.74a13.67,13.67,0,0,1-13.67,13.67H24.17A13.67,13.67,0,0,1,10.5,68.62V58.88A13.67,13.67,0,0,1,24.17,45.21H36.36"/><line class="cls-18" x1="9.97" y1="53.58" x2="12.78" y2="54.63"/><line class="cls-18" x1="13.44" y1="48.15" x2="15.56" y2="50.27"/><line class="cls-18" x1="18.87" y1="44.68" x2="19.92" y2="47.49"/><path class="cls-19" d="M10.5,58.88v9.74A13.67,13.67,0,0,0,24.17,82.29h77.16A13.67,13.67,0,0,0,115,68.62V58.88a13.67,13.67,0,0,0-13.67-13.67H24.17"/><path class="cls-20" d="M14.74,67.79V59.71A10.27,10.27,0,0,1,25,49.45"/><rect class="cls-21" x="44.45" y="49.16" width="36.6" height="29.18" rx="5.43"/><circle class="cls-11" cx="22.04" cy="54.47" r="1.59"/><circle class="cls-11" cx="22.04" cy="73.03" r="1.59"/><circle class="cls-11" cx="22.04" cy="66.84" r="1.59"/><circle class="cls-11" cx="22.04" cy="60.66" r="1.59"/><circle class="cls-11" cx="29.99" cy="54.47" r="1.59"/><circle class="cls-11" cx="29.99" cy="73.03" r="1.59"/><circle class="cls-11" cx="29.99" cy="66.84" r="1.59"/><circle class="cls-11" cx="29.99" cy="60.66" r="1.59"/><circle class="cls-11" cx="37.95" cy="54.47" r="1.59"/><circle class="cls-11" cx="37.95" cy="73.03" r="1.59"/><circle class="cls-11" cx="37.95" cy="66.84" r="1.59"/><circle class="cls-11" cx="37.95" cy="60.66" r="1.59"/><circle class="cls-11" cx="87.81" cy="54.47" r="1.59"/><circle class="cls-11" cx="87.81" cy="73.03" r="1.59"/><circle class="cls-11" cx="87.81" cy="66.84" r="1.59"/><circle class="cls-11" cx="87.81" cy="60.66" r="1.59"/><circle class="cls-11" cx="95.77" cy="54.47" r="1.59"/><circle class="cls-11" cx="95.77" cy="73.03" r="1.59"/><circle class="cls-11" cx="95.77" cy="66.84" r="1.59"/><circle class="cls-11" cx="95.77" cy="60.66" r="1.59"/><circle class="cls-11" cx="103.73" cy="54.47" r="1.59"/><circle class="cls-11" cx="103.73" cy="73.03" r="1.59"/><circle class="cls-11" cx="103.73" cy="66.84" r="1.59"/><circle class="cls-11" cx="103.73" cy="60.66" r="1.59"/><path class="cls-11" d="M63.42,72c-2.76-1.5-8.59-5.49-8.59-9.45A4.47,4.47,0,0,1,55,61.3,4.73,4.73,0,0,1,62.74,59l.68.61.67-.61A4.73,4.73,0,0,1,72,62.51C72,67.08,65.23,71,63.42,72Z"/><path class="cls-11" d="M67.27,58.78A3.73,3.73,0,0,1,71,62.51c0,3.38-4.92,6.83-7.57,8.31-2.65-1.53-7.6-5-7.6-8.31a3.42,3.42,0,0,1,.13-1,3.73,3.73,0,0,1,6.11-1.8L63.42,61l1.34-1.23a3.76,3.76,0,0,1,2.51-1m0-2a5.72,5.72,0,0,0-3.85,1.49A5.74,5.74,0,0,0,54,61a5.92,5.92,0,0,0-.19,1.47c0,5.73,9.59,10.57,9.59,10.57S73,68.46,73,62.51a5.73,5.73,0,0,0-5.73-5.73Z"/><path class="cls-11" d="M62.42,71c-2.76-1.5-8.59-5.49-8.59-9.45A4.47,4.47,0,0,1,54,60.3,4.73,4.73,0,0,1,61.74,58l.68.61.67-.61A4.73,4.73,0,0,1,71,61.51C71,66.08,64.23,70,62.42,71Z"/><path class="cls-11" d="M66.27,57.78A3.73,3.73,0,0,1,70,61.51c0,3.38-4.92,6.83-7.57,8.31-2.65-1.53-7.6-5-7.6-8.31a3.42,3.42,0,0,1,.13-1,3.73,3.73,0,0,1,6.11-1.8L62.42,60l1.34-1.23a3.76,3.76,0,0,1,2.51-1m0-2a5.72,5.72,0,0,0-3.85,1.49A5.74,5.74,0,0,0,53,60a5.92,5.92,0,0,0-.19,1.47c0,5.73,9.59,10.57,9.59,10.57S72,67.46,72,61.51a5.73,5.73,0,0,0-5.73-5.73Z"/></g><path class="cls-22" d="M33.36,42.21h65A13.67,13.67,0,0,1,112,55.88v9.74A13.67,13.67,0,0,1,98.33,79.29H21.17A13.67,13.67,0,0,1,7.5,65.62V55.88A13.67,13.67,0,0,1,21.17,42.21H33.36"/><line class="cls-23" x1="6.97" y1="50.58" x2="9.78" y2="51.63"/><line class="cls-23" x1="10.44" y1="45.15" x2="12.56" y2="47.27"/><line class="cls-23" x1="15.87" y1="41.68" x2="16.92" y2="44.49"/><path class="cls-24" d="M7.5,55.88v9.74A13.67,13.67,0,0,0,21.17,79.29H98.33A13.67,13.67,0,0,0,112,65.62V55.88A13.67,13.67,0,0,0,98.33,42.21H21.17"/><path class="cls-25" d="M11.74,64.79V56.71A10.27,10.27,0,0,1,22,46.45"/><rect class="cls-26" x="41.45" y="46.16" width="36.6" height="29.18" rx="5.43"/><circle class="cls-11" cx="19.04" cy="51.47" r="1.59"/><circle class="cls-11" cx="19.04" cy="70.03" r="1.59"/><circle class="cls-11" cx="19.04" cy="63.84" r="1.59"/><circle class="cls-11" cx="19.04" cy="57.66" r="1.59"/><circle class="cls-11" cx="26.99" cy="51.47" r="1.59"/><circle class="cls-11" cx="26.99" cy="70.03" r="1.59"/><circle class="cls-11" cx="26.99" cy="63.84" r="1.59"/><circle class="cls-11" cx="26.99" cy="57.66" r="1.59"/><circle class="cls-11" cx="34.95" cy="51.47" r="1.59"/><circle class="cls-11" cx="34.95" cy="70.03" r="1.59"/><circle class="cls-11" cx="34.95" cy="63.84" r="1.59"/><circle class="cls-11" cx="34.95" cy="57.66" r="1.59"/><circle class="cls-11" cx="84.81" cy="51.47" r="1.59"/><circle class="cls-11" cx="84.81" cy="70.03" r="1.59"/><circle class="cls-11" cx="84.81" cy="63.84" r="1.59"/><circle class="cls-11" cx="84.81" cy="57.66" r="1.59"/><circle class="cls-11" cx="92.77" cy="51.47" r="1.59"/><circle class="cls-11" cx="92.77" cy="70.03" r="1.59"/><circle class="cls-11" cx="92.77" cy="63.84" r="1.59"/><circle class="cls-11" cx="92.77" cy="57.66" r="1.59"/><circle class="cls-11" cx="100.73" cy="51.47" r="1.59"/><circle class="cls-11" cx="100.73" cy="70.03" r="1.59"/><circle class="cls-11" cx="100.73" cy="63.84" r="1.59"/><circle class="cls-11" cx="100.73" cy="57.66" r="1.59"/><g class="cls-10"><path class="cls-11" d="M60.42,69c-2.76-1.5-8.59-5.49-8.59-9.45A4.47,4.47,0,0,1,52,58.3,4.73,4.73,0,0,1,59.74,56l.68.61.67-.61A4.73,4.73,0,0,1,69,59.51C69,64.08,62.23,68,60.42,69Z"/><path class="cls-11" d="M64.27,55.78A3.73,3.73,0,0,1,68,59.51c0,3.38-4.92,6.83-7.57,8.31-2.65-1.53-7.6-5-7.6-8.31a3.42,3.42,0,0,1,.13-1,3.73,3.73,0,0,1,6.11-1.8L60.42,58l1.34-1.23a3.76,3.76,0,0,1,2.51-1m0-2a5.72,5.72,0,0,0-3.85,1.49A5.74,5.74,0,0,0,51,58a5.92,5.92,0,0,0-.19,1.47c0,5.73,9.59,10.57,9.59,10.57S70,65.46,70,59.51a5.73,5.73,0,0,0-5.73-5.73Z"/></g><path class="cls-13" d="M59.42,68c-2.76-1.5-8.59-5.49-8.59-9.45A4.47,4.47,0,0,1,51,57.3,4.73,4.73,0,0,1,58.74,55l.68.61.67-.61A4.73,4.73,0,0,1,68,58.51C68,63.08,61.23,67,59.42,68Z"/><path class="cls-27" d="M63.27,54.78A3.73,3.73,0,0,1,67,58.51c0,3.38-4.92,6.83-7.57,8.31-2.65-1.53-7.6-5-7.6-8.31a3.42,3.42,0,0,1,.13-1,3.73,3.73,0,0,1,6.11-1.8L59.42,57l1.34-1.23a3.76,3.76,0,0,1,2.51-1m0-2a5.72,5.72,0,0,0-3.85,1.49A5.74,5.74,0,0,0,50,57a5.92,5.92,0,0,0-.19,1.47c0,5.73,9.59,10.57,9.59,10.57S69,64.46,69,58.51a5.73,5.73,0,0,0-5.73-5.73Z"/></g></g></g></svg>