<svg id="Layer_1" data-name="Layer 1" xmlns="http://www.w3.org/2000/svg" viewBox="0 0 190 160"><defs><style>.cls-1,.cls-8{fill:#e6f5ff;}.cls-2{opacity:0.19;}.cls-3,.cls-4{fill:#3181ff;}.cls-4,.cls-8{fill-rule:evenodd;}.cls-5{fill:#f7faff;}.cls-6{fill:#bbe8ff;}.cls-7{fill:#1e55eb;}.cls-9{fill:#50aaff;}.cls-10{fill:#e6f0ff;}.cls-11{fill:#e1fffa;}.cls-12{opacity:0.3;}.cls-13{fill:#00c6c6;}.cls-14{opacity:0.15;}.cls-15{fill:#192d9b;}.cls-16{fill:#3648a8;}</style></defs><title>no_results</title><circle class="cls-1" cx="40.29" cy="47.01" r="39.7"/><path class="cls-1" d="M66.35,147.26A83,83,0,0,1,190,62.91l-23.87,41.26a35.35,35.35,0,0,0-52.65,35.89Z"/><g class="cls-2"><path class="cls-3" d="M76.65,26.88A40.82,40.82,0,1,1,35.84,67.69,40.81,40.81,0,0,1,76.65,26.88"/><polyline class="cls-3" points="113.41 97.45 152.32 136.23 146.02 142.52 107.26 103.89"/><path class="cls-3" d="M146,144a1.51,1.51,0,0,1-1.06-.44l-39.82-39.69,2.12-2.12L146,140.4l4.18-4.17L111.29,97.46l2.12-2.13,40,39.84a1.47,1.47,0,0,1,.44,1.06,1.5,1.5,0,0,1-.44,1.07l-6.3,6.28A1.53,1.53,0,0,1,146,144Z"/><path class="cls-3" d="M76.84,20.47A47.52,47.52,0,1,1,29.32,68,47.52,47.52,0,0,1,76.84,20.47"/><path class="cls-3" d="M76.84,117a49.08,49.08,0,0,1-49-49,1.5,1.5,0,0,1,3,0A46,46,0,1,0,41.1,39a1.5,1.5,0,0,1-2.33-1.89A49,49,0,1,1,76.84,117Z"/><path class="cls-4" d="M76.65,27A40.73,40.73,0,1,1,35.92,67.69,40.74,40.74,0,0,1,76.65,27"/><path class="cls-3" d="M76.65,109.42a41.73,41.73,0,0,1,0-83.46,1,1,0,0,1,0,2,39.73,39.73,0,1,0,35.74,57.12,1,1,0,0,1,1.33-.46,1,1,0,0,1,.46,1.33A41.45,41.45,0,0,1,76.65,109.42Z"/><path class="cls-3" d="M116.57,78a2,2,0,0,1-.48-.06,2,2,0,0,1,.81-4,2,2,0,0,1,.71,3.7A1.89,1.89,0,0,1,116.57,78Zm0-2.78a.77.77,0,0,0-.77.61.8.8,0,0,0,.6.9h0a.78.78,0,0,0,.56-.09.82.82,0,0,0,.34-.51.8.8,0,0,0-.11-.59.73.73,0,0,0-.48-.31Z"/><path class="cls-3" d="M114.91,83.73a2,2,0,0,1-.75-.15h0a2,2,0,0,1,1.39-3.78,2,2,0,0,1,1.17,1,2,2,0,0,1-1.81,2.92Zm0-2.78a.76.76,0,0,0-.28,1.47h0a.71.71,0,0,0,.57,0,.79.79,0,0,0,.41-.45.72.72,0,0,0,0-.61.67.67,0,0,0-.42-.37A.73.73,0,0,0,114.92,81Z"/><path class="cls-3" d="M117.17,72.86h-.1a1,1,0,0,1-.9-1.09,39.19,39.19,0,0,0,.21-4.07A39.77,39.77,0,0,0,76.65,28a1,1,0,0,1,0-2,41.78,41.78,0,0,1,41.73,41.73,40.29,40.29,0,0,1-.22,4.27A1,1,0,0,1,117.17,72.86Z"/><path class="cls-3" d="M41.69,74.59a1,1,0,0,1-1-.84,37.17,37.17,0,0,1-.5-6.06A36.49,36.49,0,0,1,76.65,31.24a1,1,0,0,1,0,2A34.49,34.49,0,0,0,42.2,67.69a35.35,35.35,0,0,0,.47,5.73,1,1,0,0,1-.82,1.15Z"/><path class="cls-3" d="M70,78.13c0-4.58,1.07-8.25,5.78-11,2.83-1.69,9.17-4.23,9.17-9.51,0-3.88-3.24-6.07-6.7-6.07-4.08,0-6.77,3.1-8.32,5.64L63.75,53c2.47-5.78,8.32-9.09,14.73-9.09,7.13,0,14.67,4.08,14.67,13.88,0,6-3,9.1-7.4,11.85-3.74,2.33-8,3.73-8,8.53Zm-1,11.7a5.29,5.29,0,1,1,5.28,5.29A5.47,5.47,0,0,1,69,89.83Z"/><path class="cls-3" d="M74.25,96.12A6.45,6.45,0,0,1,68,89.83a6.29,6.29,0,0,1,12.58,0A6.46,6.46,0,0,1,74.25,96.12Zm0-10.43A4.38,4.38,0,0,0,70,89.83a4.45,4.45,0,0,0,4.28,4.29,4.22,4.22,0,1,0,0-8.43Zm3.46-6.56H70a1,1,0,0,1-1-1c0-4.26.76-8.64,6.28-11.86.42-.25.92-.52,1.47-.82,3-1.65,7.2-3.92,7.2-7.83,0-3.33-2.87-5.07-5.7-5.07s-5.37,1.74-7.46,5.16a1,1,0,0,1-.65.46,1,1,0,0,1-.77-.16l-6.14-4.23a1,1,0,0,1-.35-1.21c2.55-6,8.55-9.7,15.65-9.7,7.8,0,15.67,4.6,15.67,14.88,0,6.87-3.78,10.17-7.88,12.7-.66.41-1.35.8-2,1.18-3.09,1.75-5.53,3.13-5.53,6.5A1,1,0,0,1,77.71,79.13Zm-6.74-2h5.8c.45-3.82,3.51-5.56,6.49-7.24.65-.36,1.31-.74,2-1.14,4.16-2.58,6.93-5.43,6.93-11,0-9.51-7.36-12.88-13.67-12.88-6,0-11.07,3-13.47,7.75l4.6,3.16c2.36-3.43,5.31-5.23,8.59-5.23,3.83,0,7.7,2.43,7.7,7.07,0,5.1-5,7.8-8.24,9.59-.53.28-1,.54-1.41.78C72.2,70.35,71.12,73.37,71,77.13Z"/><path class="cls-3" d="M69.21,77.39c0-4.58,1.06-8.25,5.78-11,2.83-1.69,9.17-4.23,9.17-9.51,0-3.89-3.24-6.07-6.7-6.07-4.09,0-6.77,3.1-8.32,5.64L63,52.22c2.46-5.78,8.32-9.09,14.73-9.09,7.13,0,14.67,4.08,14.67,13.88,0,6-3,9.1-7.41,11.85-3.73,2.33-8,3.73-8,8.53Zm-1,11.7a5.29,5.29,0,1,1,5.29,5.29A5.48,5.48,0,0,1,68.22,89.09Z"/><path class="cls-3" d="M73.51,95.38a6.46,6.46,0,0,1-6.29-6.29,6.29,6.29,0,0,1,12.58,0A6.46,6.46,0,0,1,73.51,95.38Zm0-10.43a4.39,4.39,0,0,0-4.29,4.14,4.46,4.46,0,0,0,4.29,4.29,4.22,4.22,0,1,0,0-8.43ZM77,78.39H69.21a1,1,0,0,1-1-1c0-4.26.76-8.64,6.28-11.86.42-.25.92-.52,1.47-.82,3-1.66,7.2-3.92,7.2-7.83,0-3.33-2.87-5.07-5.7-5.07S72.09,53.54,70,57a1,1,0,0,1-.65.46,1,1,0,0,1-.78-.16L62.44,53a1,1,0,0,1-.35-1.21c2.55-6,8.55-9.7,15.65-9.7,7.8,0,15.67,4.6,15.67,14.88,0,6.87-3.79,10.16-7.88,12.7-.67.41-1.35.8-2,1.18C80.41,72.64,78,74,78,77.39A1,1,0,0,1,77,78.39Zm-6.74-2H76c.45-3.83,3.51-5.56,6.49-7.24.65-.37,1.31-.74,2-1.14,4.16-2.58,6.93-5.43,6.93-11,0-9.51-7.36-12.88-13.67-12.88-6,0-11.07,2.94-13.47,7.75L68.86,55c2.36-3.43,5.32-5.23,8.6-5.23,3.83,0,7.7,2.42,7.7,7.07,0,5.1-5,7.8-8.25,9.58-.52.29-1,.55-1.4.79C71.46,69.61,70.38,72.63,70.23,76.39Z"/></g><path class="cls-5" d="M75.91,23.91A40.82,40.82,0,1,1,35.1,64.73,40.82,40.82,0,0,1,75.91,23.91"/><polyline class="cls-6" points="112.67 94.49 151.58 133.27 145.28 139.55 106.52 100.92"/><path class="cls-7" d="M145.28,141.05a1.47,1.47,0,0,1-1.06-.44L104.4,100.93l2.11-2.13,38.77,38.63,4.18-4.16L110.55,94.49l2.12-2.12,40,39.84a1.5,1.5,0,0,1,0,2.12l-6.3,6.28A1.48,1.48,0,0,1,145.28,141.05Z"/><path class="cls-6" d="M76.1,17.5A47.52,47.52,0,1,1,28.58,65,47.52,47.52,0,0,1,76.1,17.5"/><path class="cls-7" d="M76.1,114a49.08,49.08,0,0,1-49-49,1.5,1.5,0,0,1,3,0A46,46,0,1,0,40.36,36,1.5,1.5,0,0,1,38,34.13,49,49,0,1,1,76.1,114Z"/><path class="cls-8" d="M75.91,24A40.73,40.73,0,1,1,35.18,64.73,40.73,40.73,0,0,1,75.91,24"/><path class="cls-9" d="M75.91,106.46a41.73,41.73,0,0,1,0-83.46,1,1,0,0,1,0,2,39.73,39.73,0,1,0,35.73,57.11,1,1,0,0,1,1.34-.46,1,1,0,0,1,.46,1.34A41.48,41.48,0,0,1,75.91,106.46Z"/><path class="cls-9" d="M115.82,75a2,2,0,0,1-.47-.06,2,2,0,1,1,1.52-.24A2,2,0,0,1,115.82,75Zm0-2.78a.78.78,0,0,0-.77.61.79.79,0,0,0,.6.9h0a.68.68,0,0,0,.55-.09.79.79,0,0,0,.35-.5.78.78,0,0,0-.12-.6.69.69,0,0,0-.47-.31Z"/><path class="cls-9" d="M114.17,80.76a2,2,0,0,1-.75-.14h0a2,2,0,0,1,1.39-3.79,2,2,0,0,1,1.24,2.6A2,2,0,0,1,115,80.59,1.89,1.89,0,0,1,114.17,80.76Zm0-2.78a.76.76,0,0,0-.28,1.48h0a.75.75,0,0,0,.57,0,.74.74,0,0,0,.41-.44.78.78,0,0,0,0-.62.73.73,0,0,0-.42-.37A1.18,1.18,0,0,0,114.18,78Z"/><path class="cls-9" d="M116.43,69.89h-.1a1,1,0,0,1-.9-1.1,39,39,0,0,0,.21-4.06A39.77,39.77,0,0,0,75.91,25a1,1,0,0,1,0-2,41.78,41.78,0,0,1,41.73,41.73,40.1,40.1,0,0,1-.22,4.26A1,1,0,0,1,116.43,69.89Z"/><path class="cls-10" d="M41,71.62a1,1,0,0,1-1-.83,37.17,37.17,0,0,1-.5-6.06A36.49,36.49,0,0,1,75.91,28.28a1,1,0,0,1,0,2A34.48,34.48,0,0,0,41.46,64.73a35.35,35.35,0,0,0,.47,5.73,1,1,0,0,1-.82,1.15Z"/><g class="cls-2"><path class="cls-3" d="M69.21,75.16c0-4.58,1.06-8.24,5.78-11,2.83-1.69,9.17-4.23,9.17-9.52,0-3.88-3.24-6.07-6.7-6.07-4.09,0-6.77,3.11-8.32,5.65L63,50c2.46-5.79,8.32-9.1,14.73-9.1,7.13,0,14.67,4.09,14.67,13.89,0,6-3,9.09-7.41,11.84-3.73,2.33-8,3.74-8,8.53Zm-1,11.71a5.29,5.29,0,1,1,5.29,5.29A5.48,5.48,0,0,1,68.22,86.87Z"/><path class="cls-3" d="M73.51,93.16a6.46,6.46,0,0,1-6.29-6.29,6.29,6.29,0,0,1,12.58,0A6.46,6.46,0,0,1,73.51,93.16Zm0-10.43a4.39,4.39,0,0,0-4.29,4.14,4.47,4.47,0,0,0,4.29,4.29,4.22,4.22,0,1,0,0-8.43ZM77,76.16H69.21a1,1,0,0,1-1-1c0-4.25.76-8.64,6.28-11.85.42-.25.92-.53,1.47-.83,3-1.65,7.2-3.91,7.2-7.83,0-3.33-2.87-5.07-5.7-5.07S72.09,51.32,70,54.75a1.05,1.05,0,0,1-.65.46,1,1,0,0,1-.78-.16l-6.13-4.23a1,1,0,0,1-.35-1.22c2.55-6,8.55-9.7,15.65-9.7,7.8,0,15.67,4.61,15.67,14.89,0,6.87-3.79,10.16-7.88,12.69-.67.42-1.35.81-2,1.19C80.41,70.42,78,71.8,78,75.16A1,1,0,0,1,77,76.16Zm-6.74-2H76c.45-3.82,3.51-5.55,6.49-7.23.65-.37,1.31-.74,2-1.15,4.16-2.57,6.93-5.43,6.93-11,0-9.51-7.36-12.89-13.67-12.89-6,0-11.07,3-13.47,7.75l4.59,3.17c2.36-3.43,5.32-5.24,8.6-5.24,3.83,0,7.7,2.43,7.7,7.07,0,5.11-5,7.8-8.25,9.59-.52.28-1,.55-1.4.79C71.46,67.38,70.38,70.4,70.23,74.16Z"/></g><path class="cls-11" d="M68.47,74.42c0-4.58,1.06-8.24,5.78-11,2.83-1.69,9.17-4.23,9.17-9.52,0-3.88-3.24-6.07-6.7-6.07-4.09,0-6.77,3.11-8.32,5.65l-6.13-4.24c2.46-5.78,8.32-9.09,14.73-9.09,7.13,0,14.67,4.09,14.67,13.89,0,6-3,9.09-7.41,11.84-3.73,2.33-8,3.74-8,8.53Zm-1,11.71a5.29,5.29,0,1,1,5.29,5.29A5.48,5.48,0,0,1,67.48,86.13Z"/><path class="cls-7" d="M72.77,92.42a6.46,6.46,0,0,1-6.29-6.29,6.29,6.29,0,0,1,12.58,0A6.46,6.46,0,0,1,72.77,92.42Zm0-10.44a4.39,4.39,0,0,0-4.29,4.15,4.47,4.47,0,0,0,4.29,4.29,4.22,4.22,0,1,0,0-8.44Zm3.46-6.56H68.47a1,1,0,0,1-1-1c0-4.26.76-8.64,6.28-11.86.41-.24.92-.52,1.47-.82,3-1.65,7.2-3.91,7.2-7.83,0-3.33-2.87-5.07-5.7-5.07S71.35,50.58,69.26,54a1,1,0,0,1-.65.45,1,1,0,0,1-.78-.15L61.7,50.08a1,1,0,0,1-.35-1.22c2.55-6,8.55-9.7,15.65-9.7,7.8,0,15.67,4.6,15.67,14.89,0,6.87-3.79,10.16-7.88,12.69-.67.42-1.35.81-2,1.19-3.09,1.75-5.53,3.13-5.53,6.49A1,1,0,0,1,76.23,75.42Zm-6.74-2h5.79c.46-3.82,3.52-5.55,6.49-7.23.66-.37,1.32-.74,2-1.15,4.17-2.57,6.94-5.43,6.94-11,0-9.51-7.36-12.89-13.67-12.89-6,0-11.07,3-13.47,7.75l4.59,3.17c2.36-3.43,5.32-5.24,8.6-5.24,3.83,0,7.7,2.43,7.7,7.07,0,5.1-5,7.8-8.25,9.59-.52.28-1,.54-1.4.79C70.72,66.64,69.64,69.66,69.49,73.42Z"/><path class="cls-7" d="M30.59,61h-.18l-3.31-.4a1.5,1.5,0,0,1-1.31-1.67,1.52,1.52,0,0,1,1.67-1.31l3.31.4a1.5,1.5,0,0,1-.18,3Z"/><path class="cls-7" d="M31.87,54.39a1.32,1.32,0,0,1-.39-.06l-3.22-.88a1.5,1.5,0,1,1,.79-2.89l3.22.88a1.5,1.5,0,0,1-.4,3Z"/><path class="cls-7" d="M34.11,48.08a1.61,1.61,0,0,1-.6-.12l-3-1.35a1.5,1.5,0,0,1,1.2-2.74l3.06,1.34a1.5,1.5,0,0,1-.61,2.87Z"/><path class="cls-7" d="M37.24,42.17a1.51,1.51,0,0,1-.79-.23l-2.83-1.77a1.51,1.51,0,0,1,1.6-2.55L38,39.4a1.5,1.5,0,0,1-.8,2.77Z"/><g class="cls-12"><circle class="cls-13" cx="185.85" cy="93.14" r="4.04"/></g><circle class="cls-13" cx="184.07" cy="91.36" r="4.04"/><rect class="cls-13" x="1.27" y="79.52" width="3.8" height="3.8" transform="translate(-56.64 26.09) rotate(-45)"/><g class="cls-14"><circle class="cls-3" cx="54.47" cy="5.05" r="3.51"/></g><circle class="cls-3" cx="52.93" cy="3.51" r="3.51"/><circle class="cls-3" cx="47.04" cy="125.29" r="2.38"/><circle class="cls-15" cx="28.66" cy="158.03" r="1.75"/><circle class="cls-15" cx="166.78" cy="43.87" r="1.27"/><circle class="cls-3" cx="144.13" cy="86.3" r="1.75"/><path class="cls-16" d="M97.24,148.15a1,1,0,0,1-.11-2,6.69,6.69,0,0,0,5-3.47,1,1,0,0,1,1.35-.42,1,1,0,0,1,.41,1.36,8.67,8.67,0,0,1-6.56,4.51Z"/><path class="cls-16" d="M92.67,147.32a1,1,0,0,1-.47-.12,8.7,8.7,0,0,1-4.52-6.56,1,1,0,1,1,2-.23,6.65,6.65,0,0,0,3.47,5,1,1,0,0,1,.41,1.36A1,1,0,0,1,92.67,147.32Z"/><path class="cls-16" d="M89.51,137a1,1,0,0,1-.89-1.47A8.69,8.69,0,0,1,95.18,131a1,1,0,0,1,.24,2,6.65,6.65,0,0,0-5,3.46A1,1,0,0,1,89.51,137Z"/><path class="cls-16" d="M103.87,139.58a1,1,0,0,1-1-.88,6.67,6.67,0,0,0-3.47-5,1,1,0,0,1,.94-1.77,8.73,8.73,0,0,1,4.52,6.56,1,1,0,0,1-.88,1.11Z"/><path class="cls-3" d="M155.71,31.91a1,1,0,0,1-.49-.14l-2.61-1.49a1,1,0,1,1,1-1.73l2.6,1.49a1,1,0,0,1-.5,1.87Z"/><path class="cls-3" d="M150,35.82a1,1,0,0,1-1-.85l-.45-3a1,1,0,1,1,2-.31l.46,3a1,1,0,0,1-.84,1.14Z"/><path class="cls-3" d="M143.39,33.8a1,1,0,0,1-.67-.26,1,1,0,0,1-.06-1.41l2-2.21a1,1,0,0,1,1.47,1.35l-2,2.21A1,1,0,0,1,143.39,33.8Z"/><path class="cls-3" d="M143.84,27.58h-.07l-3-.22a1,1,0,0,1-.92-1.06,1,1,0,0,1,1.07-.93l3,.22a1,1,0,0,1-.07,2Z"/><path class="cls-3" d="M146,23.84a1,1,0,0,1-.83-.43l-1.69-2.48a1,1,0,1,1,1.65-1.13l1.69,2.48a1,1,0,0,1-.26,1.39A1,1,0,0,1,146,23.84Z"/><path class="cls-3" d="M150.25,23.19a1,1,0,0,1-.29-.05,1,1,0,0,1-.66-1.25l.87-2.87a1,1,0,0,1,1.92.59l-.88,2.87A1,1,0,0,1,150.25,23.19Z"/><path class="cls-3" d="M153.42,26.11a1,1,0,0,1-.37-1.93l2.79-1.1a1,1,0,0,1,.74,1.86L153.79,26A1,1,0,0,1,153.42,26.11Z"/></svg>