<svg xmlns="http://www.w3.org/2000/svg" viewBox="0 0 120 120"><defs><style>.cls-1{isolation:isolate;}.cls-18,.cls-2{opacity:0.3;}.cls-2{mix-blend-mode:multiply;}.cls-13,.cls-14,.cls-3{fill:#50aaff;}.cls-11,.cls-12,.cls-21,.cls-4,.cls-5,.cls-7,.cls-8,.cls-9{fill:none;}.cls-13,.cls-14,.cls-15,.cls-16,.cls-4,.cls-5,.cls-9{stroke:#50aaff;}.cls-11,.cls-12,.cls-13,.cls-14,.cls-15,.cls-16,.cls-17,.cls-21,.cls-4,.cls-5,.cls-7,.cls-8,.cls-9{stroke-linecap:round;}.cls-11,.cls-12,.cls-13,.cls-14,.cls-15,.cls-16,.cls-17,.cls-4,.cls-7,.cls-9{stroke-linejoin:round;}.cls-13,.cls-15,.cls-17,.cls-4,.cls-7{stroke-width:3px;}.cls-23,.cls-5,.cls-8{stroke-miterlimit:10;}.cls-16,.cls-6{fill:#bbe8ff;}.cls-12,.cls-17,.cls-7,.cls-8{stroke:#1e55eb;}.cls-11,.cls-12,.cls-14,.cls-16,.cls-21,.cls-9{stroke-width:2px;}.cls-10,.cls-15{fill:#e1fffa;}.cls-11{stroke:#fff;}.cls-17{fill:#e6f5ff;}.cls-18,.cls-19{fill:#3181ff;}.cls-20{fill:#00c6c6;}.cls-21{stroke:#3b6bee;}.cls-22,.cls-23{fill:#192d9b;}.cls-23{stroke:#192d9b;}.cls-24{fill:#00a0aa;}</style></defs><title>pacifier</title><g class="cls-1"><g id="pacifier"><g class="cls-2"><path class="cls-3" d="M57,69a23.62,23.62,0,1,0,0,33.41A23.62,23.62,0,0,0,57,69ZM52.54,97.88a17.27,17.27,0,1,1,0-24.42A17.26,17.26,0,0,1,52.54,97.88Z"/><path class="cls-4" d="M57,69a23.62,23.62,0,1,0,0,33.41A23.62,23.62,0,0,0,57,69Z"/><path class="cls-4" d="M40.81,102.94a17.28,17.28,0,1,1,11.73-5.06"/><path class="cls-5" d="M45.76,102.07a1.5,1.5,0,0,1,2.75-1.18,1.5,1.5,0,1,1-2.75,1.18Z"/></g><path class="cls-6" d="M54,66a23.62,23.62,0,1,0,0,33.41A23.62,23.62,0,0,0,54,66ZM49.54,94.88a17.27,17.27,0,1,1,0-24.42A17.26,17.26,0,0,1,49.54,94.88Z"/><path class="cls-7" d="M54,66a23.62,23.62,0,1,0,0,33.41A23.62,23.62,0,0,0,54,66Z"/><path class="cls-7" d="M37.81,99.94a17.28,17.28,0,1,1,11.73-5.06"/><path class="cls-8" d="M42.76,99.07a1.5,1.5,0,0,1,2.75-1.18,1.5,1.5,0,1,1-2.75,1.18Z"/><g class="cls-2"><path class="cls-3" d="M101.48,22.77a22.83,22.83,0,0,0-30.93.65,22.48,22.48,0,0,0-6.73,13.93,18.24,18.24,0,0,1-5.24,11.07l-4.16,4.16,19,19L78.09,67a16.52,16.52,0,0,1,10.3-4.74,22.66,22.66,0,0,0,13.09-39.47"/><path class="cls-9" d="M98.07,26.56c.25.22.49.45.72.68"/><path class="cls-9" d="M93.54,23.65a16.87,16.87,0,0,1,2.3,1.22"/><path class="cls-9" d="M61.29,52.24l1.08-1.08A21.8,21.8,0,0,0,68.62,38a17.73,17.73,0,0,1,5.26-10.89,18,18,0,0,1,17-4.35"/><path class="cls-4" d="M70.55,23.42a22.48,22.48,0,0,0-6.73,13.93,18.24,18.24,0,0,1-5.24,11.07l-4.16,4.16,19,19L78.09,67a16.52,16.52,0,0,1,10.3-4.74,22.66,22.66,0,0,0,13.09-39.47"/><line class="cls-9" x1="96.68" y1="21.21" x2="98.13" y2="18.59"/><line class="cls-9" x1="91.48" y1="19.17" x2="92.19" y2="16.26"/><line class="cls-9" x1="85.92" y1="18.56" x2="85.86" y2="15.56"/><line class="cls-9" x1="80.39" y1="19.41" x2="79.56" y2="16.53"/><line class="cls-9" x1="75.29" y1="21.66" x2="73.73" y2="19.1"/></g><path class="cls-10" d="M98.48,19.77a22.83,22.83,0,0,0-30.93.65,22.48,22.48,0,0,0-6.73,13.93,18.24,18.24,0,0,1-5.24,11.07l-4.16,4.16,19,19L75.09,64a16.52,16.52,0,0,1,10.3-4.74A22.66,22.66,0,0,0,98.48,19.77"/><path class="cls-11" d="M95.07,23.56c.25.22.49.45.72.68"/><path class="cls-11" d="M90.54,20.65a16.87,16.87,0,0,1,2.3,1.22"/><path class="cls-11" d="M58.29,49.24l1.08-1.08A21.8,21.8,0,0,0,65.62,35a17.73,17.73,0,0,1,5.26-10.89,18,18,0,0,1,17-4.35"/><path class="cls-7" d="M67.55,20.42a22.48,22.48,0,0,0-6.73,13.93,18.24,18.24,0,0,1-5.24,11.07l-4.16,4.16,19,19L75.09,64a16.52,16.52,0,0,1,10.3-4.74A22.66,22.66,0,0,0,98.48,19.77"/><line class="cls-12" x1="93.68" y1="18.21" x2="95.13" y2="15.59"/><line class="cls-12" x1="88.48" y1="16.17" x2="89.19" y2="13.26"/><line class="cls-12" x1="82.92" y1="15.56" x2="82.86" y2="12.56"/><line class="cls-12" x1="77.39" y1="16.41" x2="76.56" y2="13.53"/><line class="cls-12" x1="72.29" y1="18.66" x2="70.73" y2="16.1"/><g class="cls-2"><rect class="cls-13" x="56.48" y="41.22" width="9.35" height="47.25" rx="4.5" transform="translate(-27.94 62.24) rotate(-45)"/><rect class="cls-14" x="46.63" y="61.71" width="15.84" height="19.47" rx="6.78" transform="translate(-34.54 59.5) rotate(-45)"/><rect class="cls-13" x="52.36" y="29.87" width="9.35" height="78.19" rx="4.5" transform="translate(-32.06 60.53) rotate(-45)"/></g><rect class="cls-15" x="53.48" y="38.22" width="9.35" height="47.25" rx="4.5" transform="translate(-26.7 59.24) rotate(-45)"/><rect class="cls-16" x="43.63" y="58.71" width="15.84" height="19.47" rx="6.78" transform="translate(-33.3 56.5) rotate(-45)"/><rect class="cls-17" x="49.36" y="26.87" width="9.35" height="78.19" rx="4.5" transform="translate(-30.82 57.53) rotate(-45)"/></g><g id="sparkles"><circle class="cls-18" cx="30.04" cy="5.59" r="3.88"/><circle class="cls-19" cx="28.33" cy="3.88" r="3.88"/><rect class="cls-20" x="0.87" y="45.07" width="4.2" height="4.2" transform="translate(-32.48 15.92) rotate(-45)"/><path class="cls-21" d="M110.3,81.43a5.84,5.84,0,0,1-3.09,6.22"/><path class="cls-21" d="M102.54,88a5.87,5.87,0,0,1-3.85-5.8"/><path class="cls-21" d="M100.78,78a5.88,5.88,0,0,1,6.94-.43"/><circle class="cls-20" cx="118" cy="54.75" r="2.24"/><circle class="cls-22" cx="69.14" cy="118.41" r="1.59"/><circle class="cls-23" cx="47.01" cy="27.14" r="1"/><circle class="cls-22" cx="13.71" cy="55.75" r="1"/><circle class="cls-24" cx="12.71" cy="108.29" r="2"/></g></g></svg>