<svg xmlns="http://www.w3.org/2000/svg" viewBox="0 0 120 120"><defs><style>.cls-1{isolation:isolate;}.cls-11,.cls-12,.cls-14,.cls-15,.cls-2,.cls-22,.cls-3,.cls-8{fill:none;}.cls-2,.cls-3,.cls-5,.cls-9{stroke:#50aaff;}.cls-11,.cls-14,.cls-15,.cls-2,.cls-22,.cls-3,.cls-5,.cls-6,.cls-7,.cls-8,.cls-9{stroke-linecap:round;}.cls-11,.cls-12,.cls-15,.cls-2,.cls-22,.cls-3,.cls-5,.cls-6,.cls-7,.cls-8,.cls-9{stroke-linejoin:round;}.cls-14,.cls-15,.cls-2,.cls-22,.cls-3,.cls-5,.cls-6,.cls-7,.cls-8,.cls-9{stroke-width:2px;}.cls-3{stroke-dasharray:5.12 6.14;}.cls-16,.cls-4,.cls-9{opacity:0.3;}.cls-4{mix-blend-mode:multiply;}.cls-5,.cls-9{fill:#50aaff;}.cls-6{fill:#bbe8ff;}.cls-11,.cls-12,.cls-19,.cls-6,.cls-7,.cls-8{stroke:#1e55eb;}.cls-7{fill:#ffebff;}.cls-10{fill:#e6f5ff;}.cls-11{stroke-width:3px;}.cls-12{stroke-width:4px;}.cls-13{fill:#3b6bee;}.cls-14,.cls-15{stroke:#fff;}.cls-14,.cls-19{stroke-miterlimit:10;}.cls-16,.cls-17{fill:#3181ff;}.cls-18{fill:#e628e1;}.cls-19{fill:#1e55eb;}.cls-20{fill:#192d9b;}.cls-21{fill:#a409b8;}.cls-22{stroke:#192d9b;}</style></defs><title>paper-planes</title><g class="cls-1"><line class="cls-2" x1="35.14" y1="99.67" x2="32.64" y2="99.67"/><path class="cls-3" d="M26.5,99.67H19a9,9,0,0,1-9-9v-.86a9,9,0,0,1,9-9H56.72a9,9,0,0,0,9-9v-.07a9,9,0,0,1,9-9H79a9,9,0,0,0,9-9V45.89a9,9,0,0,0-9-9H55.25c-5,0-9-3.45-9-7.66s4-7.66,9-7.66h18"/><line class="cls-2" x1="76.37" y1="21.57" x2="78.87" y2="21.57"/><g class="cls-4"><polyline class="cls-5" points="12.23 21 55.88 48.76 57.19 35.24 29 26.04 12.23 21"/><polyline class="cls-5" points="12.23 21 72.69 30.06 57.19 35.24 12.23 21"/><polygon class="cls-5" points="50.65 38.41 32.36 45.55 12.23 21 50.65 38.41"/><line class="cls-2" x1="50.65" y1="38.41" x2="55.88" y2="48.76"/></g><polyline class="cls-6" points="9.23 18 52.88 45.76 54.19 32.24 26 23.04 9.23 18"/><polyline class="cls-7" points="9.23 18 69.69 27.06 54.19 32.24 9.23 18"/><polygon class="cls-7" points="47.65 35.41 29.36 42.55 9.23 18 47.65 35.41"/><line class="cls-8" x1="47.65" y1="35.41" x2="52.88" y2="45.76"/><polygon class="cls-9" points="116.87 39.06 11.47 68.61 40.74 79.02 42.91 101.35 59.12 87.69 85.42 99.69 116.87 39.06"/><polyline class="cls-6" points="113.87 36.06 39.91 98.35 37.74 76.02 84.33 46.2 113.87 36.06"/><polyline class="cls-10" points="113.87 36.06 8.47 65.61 37.74 76.02 113.87 36.06"/><polygon class="cls-10" points="48.55 81.24 82.42 96.69 113.87 36.06 48.55 81.24"/><polyline class="cls-11" points="23.03 61.53 8.47 65.61 37.74 76.02 113.87 36.06"/><line class="cls-12" x1="43.59" y1="57.84" x2="42.51" y2="53.99"/><line class="cls-12" x1="36.31" y1="59.88" x2="35.23" y2="56.03"/><line class="cls-12" x1="29.03" y1="61.92" x2="27.95" y2="58.07"/><line class="cls-11" x1="113.87" y1="36.06" x2="48.51" y2="54.39"/><path class="cls-13" d="M104.43,54.26a1.88,1.88,0,0,1-1.73,3.33,1.86,1.86,0,0,1-.8-2.52A1.89,1.89,0,0,1,104.43,54.26Z"/><path class="cls-13" d="M107.13,49.05a1.87,1.87,0,1,1-2.52.8A1.86,1.86,0,0,1,107.13,49.05Z"/><polyline class="cls-11" points="108.11 47.16 113.87 36.06 48.55 81.24 82.42 96.69 101.72 59.48"/><line class="cls-14" x1="67.03" y1="54.39" x2="69.52" y2="53.69"/><polyline class="cls-15" points="37.35 70.57 24.98 66.18 64.17 55.19"/><line class="cls-8" x1="48.08" y1="81.08" x2="39.91" y2="98.35"/><circle class="cls-16" cx="70.02" cy="116.12" r="3.88"/><circle class="cls-17" cx="68.31" cy="114.41" r="3.88"/><rect class="cls-18" x="61.95" y="0.87" width="4.2" height="4.2" transform="translate(16.66 46.16) rotate(-45)"/><circle class="cls-18" cx="1.5" cy="42.85" r="2.24"/><circle class="cls-19" cx="18.59" cy="50.74" r="1.59"/><circle class="cls-20" cx="108" cy="96.69" r="1.5"/><circle class="cls-17" cx="113.37" cy="15.41" r="1.5"/><circle class="cls-21" cx="118.5" cy="79.04" r="1.5"/><line class="cls-22" x1="101.06" y1="25.27" x2="98.36" y2="23.96"/><line class="cls-22" x1="94.22" y1="28.9" x2="94.64" y2="25.93"/><line class="cls-22" x1="88.65" y1="23.53" x2="91.61" y2="23.01"/><line class="cls-22" x1="92.04" y1="16.57" x2="93.46" y2="19.22"/><line class="cls-22" x1="99.71" y1="17.65" x2="97.63" y2="19.81"/></g></svg>