<svg xmlns="http://www.w3.org/2000/svg" viewBox="0 0 120 120"><defs><style>.cls-1,.cls-2{fill:#3181ff;}.cls-1,.cls-8{opacity:0.3;}.cls-3{fill:#44cb67;}.cls-4{fill:#85e870;}.cls-5{fill:#1e55eb;}.cls-6{fill:#192d9b;}.cls-10,.cls-11,.cls-12,.cls-14,.cls-18,.cls-19,.cls-21,.cls-23,.cls-7{fill:none;}.cls-7{stroke:#192d9b;}.cls-10,.cls-11,.cls-13,.cls-14,.cls-18,.cls-20,.cls-21,.cls-23,.cls-7{stroke-linecap:round;}.cls-10,.cls-11,.cls-12,.cls-13,.cls-18,.cls-19,.cls-20,.cls-23,.cls-7{stroke-linejoin:round;}.cls-10,.cls-12,.cls-14,.cls-19,.cls-21,.cls-23,.cls-7{stroke-width:2px;}.cls-13,.cls-9{fill:#50aaff;}.cls-10,.cls-11,.cls-12,.cls-13,.cls-14{stroke:#50aaff;}.cls-11,.cls-13,.cls-18,.cls-20{stroke-width:3px;}.cls-14,.cls-21{stroke-miterlimit:10;}.cls-15{fill:#e6f5ff;}.cls-16{fill:#f0ffd7;}.cls-17{fill:#66b5ff;}.cls-18,.cls-19,.cls-20,.cls-23{stroke:#1e55eb;}.cls-20,.cls-22{fill:#bbe8ff;}.cls-21{stroke:#fff;}</style></defs><title>party</title><g id="sparkles"><circle class="cls-1" cx="17.24" cy="46.21" r="3.88"/><circle class="cls-2" cx="15.53" cy="44.51" r="3.88"/><rect class="cls-3" x="25.96" y="0.92" width="4.2" height="4.2" transform="translate(6.09 20.73) rotate(-45)"/><circle class="cls-4" cx="66.28" cy="100.45" r="2.24"/><circle class="cls-5" cx="1.59" cy="57.01" r="1.59"/><circle class="cls-6" cx="109.64" cy="9.2" r="1.5"/><circle class="cls-2" cx="54.11" cy="118.46" r="1.5"/><circle class="cls-3" cx="118.5" cy="30.91" r="1.5"/><line class="cls-7" x1="99.15" y1="105.34" x2="96.45" y2="104.02"/><line class="cls-7" x1="92.32" y1="108.97" x2="92.74" y2="106"/><line class="cls-7" x1="86.75" y1="103.6" x2="89.7" y2="103.08"/><line class="cls-7" x1="90.14" y1="96.64" x2="91.55" y2="99.29"/><line class="cls-7" x1="97.81" y1="97.72" x2="95.72" y2="99.87"/></g><g class="cls-8"><polygon class="cls-9" points="16.83 109.13 91.01 81.94 44.02 34.95 16.83 109.13"/><path class="cls-9" d="M35.45,58.33C50.91,72.6,50.12,91.06,44.06,99.15l-12.22,4.48c5.48-6.92.63-18.86-4.59-22.93Z"/><path class="cls-9" d="M76.9,74c1.3,4.76-1.68,11.13-5.68,15.22L55.26,95C66.21,84,62.63,59.71,47.35,43.57Z"/><path class="cls-10" d="M31.84,103.63c5.48-6.92,1.13-18.11-4.09-22.18"/><path class="cls-10" d="M44.06,99.15c6.06-8.09,6.85-26.55-8.61-40.82"/><path class="cls-10" d="M61.31,72.45a52.41,52.41,0,0,0-14-28.88"/><path class="cls-9" d="M61.6,77a2.5,2.5,0,1,1-.32,5,2.5,2.5,0,0,1,.32-5Z"/><path class="cls-10" d="M55.26,95a20.73,20.73,0,0,0,5-8.61"/><path class="cls-10" d="M71.22,89.2c4-4.09,7-10.46,5.68-15.22"/><polyline class="cls-11" points="27.25 80.7 16.83 109.13 91.01 81.94"/><line class="cls-12" x1="35.93" y1="64.28" x2="31.24" y2="62.56"/><line class="cls-12" x1="33.69" y1="70.38" x2="29" y2="68.66"/><line class="cls-12" x1="31.46" y1="76.48" x2="26.76" y2="74.76"/><line class="cls-11" x1="44.01" y1="34.95" x2="35.45" y2="58.33"/><path class="cls-13" d="M91,81.94c2-2-6.89-14.14-19.87-27.12S46,33,44,35s6.9,14.15,19.88,27.12c4.3,4.31,8.52,8.17,12.3,11.32C83.81,79.75,89.67,83.28,91,81.94Z"/><line class="cls-14" x1="41.25" y1="57.11" x2="24.91" y2="101.02"/><line class="cls-14" x1="44.32" y1="48.85" x2="43.38" y2="51.37"/></g><polygon class="cls-15" points="13.83 106.13 88.01 78.94 41.02 31.95 13.83 106.13"/><path class="cls-16" d="M32.45,55.33C47.91,69.6,47.12,88.06,41.06,96.15l-12.22,4.48c5.48-6.92.63-18.86-4.59-22.93Z"/><path class="cls-16" d="M73.9,71c1.3,4.76-1.68,11.13-5.68,15.22L52.26,92c11-10.95,7.37-35.28-7.91-51.42Z"/><path class="cls-10" d="M28.84,100.63c5.48-6.92,1.13-18.11-4.09-22.18"/><path class="cls-10" d="M41.06,96.15c6.06-8.09,6.85-26.55-8.61-40.82"/><path class="cls-10" d="M58.31,69.45a52.41,52.41,0,0,0-14-28.88"/><path class="cls-17" d="M58.6,74a2.5,2.5,0,1,1-.32,5,2.5,2.5,0,0,1,.32-5Z"/><path class="cls-10" d="M52.26,92a20.73,20.73,0,0,0,5-8.61"/><path class="cls-10" d="M68.22,86.2c4-4.09,7-10.46,5.68-15.22"/><polyline class="cls-18" points="24.25 77.7 13.83 106.13 88.01 78.94"/><line class="cls-19" x1="32.93" y1="61.28" x2="28.24" y2="59.56"/><line class="cls-19" x1="30.69" y1="67.38" x2="26" y2="65.66"/><line class="cls-19" x1="28.46" y1="73.48" x2="23.76" y2="71.76"/><line class="cls-18" x1="41.01" y1="31.95" x2="32.45" y2="55.33"/><path class="cls-20" d="M88,78.94c2-2-6.89-14.14-19.87-27.12S43,30,41,32s6.9,14.15,19.88,27.12c4.3,4.31,8.52,8.17,12.3,11.32C80.81,76.75,86.67,80.28,88,78.94Z"/><line class="cls-21" x1="38.25" y1="54.11" x2="21.91" y2="98.02"/><line class="cls-21" x1="41.32" y1="45.85" x2="40.38" y2="48.37"/><g class="cls-8"><path class="cls-9" d="M78.26,12.77a11.8,11.8,0,0,1,1.88-.12,9.86,9.86,0,0,1,9.8,8.76,19.48,19.48,0,0,1-.31,7.22c2.43-1.1,5.83-3.61,6.5-5.47.09-.3,7,2.4,7,2.4C101.26,31,94.1,35,91.1,36a15.11,15.11,0,0,1-4.76.73,30.29,30.29,0,0,1-5.83,6.84c-6.32,5.54-13.73,7.6-20.34,5.65l2.11-7.09c4,1.21,9-.32,13.31-4.1a23.73,23.73,0,0,0,2.66-2.74,18.82,18.82,0,0,1-5.83-3.34A10.5,10.5,0,0,1,68.73,21.7,11.26,11.26,0,0,1,78.26,12.77Zm3.67,15.94a13.43,13.43,0,0,0,.67-6.16A2.59,2.59,0,0,0,80,20.05a4,4,0,0,0-4,3.11,3.11,3.11,0,0,0,1.34,3.21A11.91,11.91,0,0,0,82,28.7Z"/><path class="cls-12" d="M89.63,28.63c2.43-1.1,5.83-3.61,6.5-5.47l7,2.4C101.26,31,94.1,35,91.1,36a15.11,15.11,0,0,1-4.76.73m-8.09-1.44a18.82,18.82,0,0,1-5.83-3.34A10.5,10.5,0,0,1,68.73,21.7a11.26,11.26,0,0,1,9.55-9,10.73,10.73,0,0,1,1.88-.11A9.83,9.83,0,0,1,90,21.39a19.5,19.5,0,0,1-.3,7.22,24,24,0,0,1-3.31,8.09,30.29,30.29,0,0,1-5.83,6.84c-6.32,5.54-13.73,7.6-20.34,5.65l2.11-7.09c4,1.21,9-.32,13.31-4.1a23.73,23.73,0,0,0,2.66-2.74A21.34,21.34,0,0,0,82,28.7a13.4,13.4,0,0,0,.67-6.15A2.6,2.6,0,0,0,80,20a4,4,0,0,0-4,3.11,3.11,3.11,0,0,0,1.3,3.22,11.94,11.94,0,0,0,4.68,2.34"/></g><path class="cls-16" d="M76.26,10.77a11.8,11.8,0,0,1,1.88-.12,9.86,9.86,0,0,1,9.8,8.76,19.48,19.48,0,0,1-.31,7.22c2.43-1.1,5.83-3.61,6.5-5.47.09-.3,7,2.4,7,2.4C99.26,29,92.1,33,89.1,34a15.11,15.11,0,0,1-4.76.73,30.29,30.29,0,0,1-5.83,6.84c-6.32,5.54-13.73,7.6-20.34,5.65l2.11-7.09c4,1.21,9-.32,13.31-4.1a23.73,23.73,0,0,0,2.66-2.74,18.82,18.82,0,0,1-5.83-3.34A10.5,10.5,0,0,1,66.73,19.7,11.26,11.26,0,0,1,76.26,10.77Zm3.67,15.94a13.43,13.43,0,0,0,.67-6.16A2.59,2.59,0,0,0,78,18.05a4,4,0,0,0-4,3.11,3.11,3.11,0,0,0,1.34,3.21A11.91,11.91,0,0,0,80,26.7Z"/><path class="cls-19" d="M87.63,26.63c2.43-1.1,5.83-3.61,6.5-5.47l7,2.4C99.26,29,92.1,33,89.1,34a15.11,15.11,0,0,1-4.76.73m-8.09-1.44a18.82,18.82,0,0,1-5.83-3.34A10.5,10.5,0,0,1,66.73,19.7a11.26,11.26,0,0,1,9.55-9,10.73,10.73,0,0,1,1.88-.11A9.83,9.83,0,0,1,88,19.39a19.5,19.5,0,0,1-.3,7.22,24,24,0,0,1-3.31,8.09,30.29,30.29,0,0,1-5.83,6.84c-6.32,5.54-13.73,7.6-20.34,5.65l2.11-7.09c4,1.21,9-.32,13.31-4.1a23.73,23.73,0,0,0,2.66-2.74A21.34,21.34,0,0,0,80,26.7a13.4,13.4,0,0,0,.67-6.15A2.6,2.6,0,0,0,78,18a4,4,0,0,0-4,3.11,3.11,3.11,0,0,0,1.3,3.22,11.94,11.94,0,0,0,4.68,2.34"/><g class="cls-8"><path class="cls-9" d="M110.37,41.29A4.81,4.81,0,0,1,112,43.52c.9,2.7-.55,6.18-3.39,7.91a10.17,10.17,0,0,1-8.16,1.1,19.9,19.9,0,0,0,.36,3.61l-4.66.92a26,26,0,0,1-.27-7.83,23.88,23.88,0,0,1-3.71-5.7l4.29-2.08a24.17,24.17,0,0,0,1.69,3,12.77,12.77,0,0,1,7.92-4.13A5.92,5.92,0,0,1,110.37,41.29Zm-8.93,6.51a5,5,0,0,0,4.63-.43c1-.65,1.45-1.24,1.45-1.85-.07-.35-.47-.54-1-.48A8.1,8.1,0,0,0,101.44,47.8Z"/><path class="cls-12" d="M98.08,44.4a12.76,12.76,0,0,1,8-4.11,5.92,5.92,0,0,1,4.32,1A4.81,4.81,0,0,1,112,43.52c.9,2.7-.55,6.18-3.39,7.91a10.17,10.17,0,0,1-8.16,1.1m1-4.72a5,5,0,0,0,4.62-.43c1-.65,1.53-1.44,1.46-1.85s-.47-.54-1-.48a8,8,0,0,0-5.05,2.76c-1.06,1.34-1,4.72-1,4.72a19.9,19.9,0,0,0,.36,3.61l-4.66.92a26,26,0,0,1-.27-7.83m0,0a23.88,23.88,0,0,1-3.71-5.7l4.29-2.08a24.17,24.17,0,0,0,1.69,3S96,47,95.81,49.22Z"/></g><path class="cls-22" d="M108.37,39.29A4.81,4.81,0,0,1,110,41.52c.9,2.7-.55,6.18-3.39,7.91a10.17,10.17,0,0,1-8.16,1.1,19.9,19.9,0,0,0,.36,3.61l-4.66.92a26,26,0,0,1-.27-7.83,23.88,23.88,0,0,1-3.71-5.7l4.29-2.08a24.17,24.17,0,0,0,1.69,3,12.77,12.77,0,0,1,7.92-4.13A5.92,5.92,0,0,1,108.37,39.29ZM99.44,45.8a5,5,0,0,0,4.63-.43c1-.65,1.45-1.24,1.45-1.85-.07-.35-.47-.54-1-.48A8.1,8.1,0,0,0,99.44,45.8Z"/><path class="cls-19" d="M96.08,42.4a12.76,12.76,0,0,1,8-4.11,5.92,5.92,0,0,1,4.32,1A4.81,4.81,0,0,1,110,41.52c.9,2.7-.55,6.18-3.39,7.91a10.17,10.17,0,0,1-8.16,1.1m1-4.72a5,5,0,0,0,4.62-.43c1-.65,1.53-1.44,1.46-1.85s-.47-.54-1-.48a8,8,0,0,0-5.05,2.76c-1.06,1.34-1,4.72-1,4.72a19.9,19.9,0,0,0,.36,3.61l-4.66.92a26,26,0,0,1-.27-7.83m0,0a23.88,23.88,0,0,1-3.71-5.7l4.29-2.08a24.17,24.17,0,0,0,1.69,3S94,45,93.81,47.22Z"/><g class="cls-8"><circle class="cls-9" cx="98.88" cy="70.26" r="4.03"/><circle class="cls-10" cx="98.88" cy="70.26" r="4.03"/></g><circle class="cls-15" cx="96.88" cy="68.26" r="4.03"/><circle class="cls-23" cx="96.88" cy="68.26" r="4.03"/><g class="cls-8"><path class="cls-9" d="M58.73,18.9a66.17,66.17,0,0,0-6.74.76l2.23,13.67a51.88,51.88,0,0,1,5.42-.58Z"/><path class="cls-12" d="M58.73,18.9a66.17,66.17,0,0,0-6.74.76l2.23,13.67a51.88,51.88,0,0,1,5.42-.58Z"/></g><path class="cls-22" d="M56.73,16.9a66.17,66.17,0,0,0-6.74.76l2.23,13.67a51.88,51.88,0,0,1,5.42-.58Z"/><path class="cls-19" d="M56.73,16.9a66.17,66.17,0,0,0-6.74.76l2.23,13.67a51.88,51.88,0,0,1,5.42-.58Z"/><g class="cls-8"><path class="cls-9" d="M87.69,63.17a65.87,65.87,0,0,0-1.45-6.63L72.87,60.15A51.55,51.55,0,0,1,74,65.48Z"/><path class="cls-12" d="M87.69,63.17a65.87,65.87,0,0,0-1.45-6.63L72.87,60.15A51.55,51.55,0,0,1,74,65.48Z"/></g><path class="cls-15" d="M85.69,61.17a65.87,65.87,0,0,0-1.45-6.63L70.87,58.15A51.55,51.55,0,0,1,72,63.48Z"/><path class="cls-19" d="M85.69,61.17a65.87,65.87,0,0,0-1.45-6.63L70.87,58.15A51.55,51.55,0,0,1,72,63.48Z"/></svg>