<?xml version="1.0" encoding="UTF-8"?>
<svg width="30px" height="30px" viewBox="0 0 30 30" version="1.1" xmlns="http://www.w3.org/2000/svg" xmlns:xlink="http://www.w3.org/1999/xlink">
    <!-- Generator: Sketch 52.5 (67469) - http://www.bohemiancoding.com/sketch -->
    <title>picture-icon</title>
    <desc>Created with Sketch.</desc>
    <g id="picture-icon" stroke="none" stroke-width="1" fill="none" fill-rule="evenodd">
        <g id="camera" transform="translate(0.000000, 3.000000)" fill="#44CB67">
            <g id="Camera">
                <path d="M15,9 C12.5145,9 10.5,11.016 10.5,13.5 C10.5,15.984 12.5145,18 15,18 C17.484,18 19.5,15.984 19.5,13.5 C19.5,11.016 17.484,9 15,9 L15,9 Z M27,4.5 L23.4,4.5 C22.905,4.5 22.371,4.116 22.2165,3.645 L21.285,0.8535 C21.1275,0.384 20.5965,0 20.1,0 L9.9,0 C9.405,0 8.871,0.384 8.7165,0.852 L7.7835,3.645 C7.6275,4.116 7.095,4.5 6.6,4.5 L3,4.5 C1.35,4.5 0,5.85 0,7.5 L0,21 C0,22.65 1.35,24 3,24 L27,24 C28.65,24 30,22.65 30,21 L30,7.5 C30,5.85 28.65,4.5 27,4.5 L27,4.5 Z M15,21 C10.857,21 7.5,17.643 7.5,13.5 C7.5,9.357 10.857,6 15,6 C19.1415,6 22.5,9.357 22.5,13.5 C22.5,17.643 19.1415,21 15,21 L15,21 Z M26.25,9.3 C25.6695,9.3 25.2,8.829 25.2,8.2485 C25.2,7.671 25.6695,7.1985 26.25,7.1985 C26.8305,7.1985 27.3,7.6695 27.3,8.2485 C27.3,8.829 26.8305,9.3 26.25,9.3 L26.25,9.3 Z" id="Shape"></path>
            </g>
        </g>
    </g>
</svg>