<svg xmlns="http://www.w3.org/2000/svg" viewBox="0 0 120 120"><defs><style>.cls-1{isolation:isolate;}.cls-2,.cls-3{fill:#3181ff;}.cls-11,.cls-2,.cls-9{opacity:0.3;}.cls-4{fill:#44cb67;}.cls-13,.cls-15,.cls-19,.cls-20,.cls-21,.cls-24,.cls-25,.cls-26,.cls-27,.cls-28,.cls-5{fill:none;}.cls-5{stroke:#3b6bee;}.cls-10,.cls-13,.cls-15,.cls-18,.cls-19,.cls-20,.cls-21,.cls-23,.cls-24,.cls-25,.cls-26,.cls-27,.cls-28,.cls-5{stroke-linecap:round;}.cls-10,.cls-13,.cls-15,.cls-19,.cls-26,.cls-28,.cls-5{stroke-width:2px;}.cls-6,.cls-7{fill:#192d9b;}.cls-7{stroke:#192d9b;}.cls-10,.cls-13,.cls-15,.cls-19,.cls-20,.cls-21,.cls-23,.cls-25,.cls-27,.cls-7{stroke-miterlimit:10;}.cls-8{fill:#85e870;}.cls-10,.cls-12{fill:#50aaff;}.cls-10,.cls-13,.cls-25,.cls-26{stroke:#50aaff;}.cls-11{mix-blend-mode:multiply;}.cls-14{fill:#f0ffd7;}.cls-15,.cls-16,.cls-18,.cls-20,.cls-21,.cls-23,.cls-24,.cls-28{stroke:#1e55eb;}.cls-16,.cls-17,.cls-18,.cls-23{fill:#bbe8ff;}.cls-16,.cls-18,.cls-24,.cls-26,.cls-28{stroke-linejoin:round;}.cls-16,.cls-18,.cls-21,.cls-23,.cls-24{stroke-width:3px;}.cls-19{stroke:#e6f5ff;}.cls-22{fill:#1e55eb;}.cls-27{stroke:#fff;}</style></defs><title>piggy-bank</title><g class="cls-1"><g id="finace-us"><g id="sparkles"><circle class="cls-2" cx="5.59" cy="31.82" r="3.88"/><circle class="cls-3" cx="3.88" cy="30.11" r="3.88"/><rect class="cls-4" x="22.96" y="0.87" width="4.2" height="4.2" transform="translate(5.24 18.59) rotate(-45)"/><path class="cls-5" d="M101,21.06A5.82,5.82,0,0,1,94.36,23"/><path class="cls-5" d="M91,19.75A5.85,5.85,0,0,1,92.64,13"/><path class="cls-5" d="M97.14,11.7a5.85,5.85,0,0,1,5,4.81"/><circle class="cls-4" cx="16.01" cy="105.72" r="2.24"/><circle class="cls-6" cx="44.39" cy="118.41" r="1.59"/><circle class="cls-7" cx="111.97" cy="38.64" r="1"/><circle class="cls-7" cx="106.1" cy="106.72" r="1"/><circle class="cls-8" cx="118" cy="92.61" r="2"/></g><g id="piggy_bank" data-name="piggy bank"><g class="cls-9"><path class="cls-10" d="M103.87,68.84l-3.46-.91a27.32,27.32,0,0,0-6.56-13.39L97.67,46c-5.17-3.36-10.88-1.71-14.78.28a42.2,42.2,0,0,0-18.47-4.16c-20.08,0-36.36,13.43-36.36,30,0,11.94,11.7,33.15,11.7,33.15a2.26,2.26,0,0,0,2.1,1.42H54.52a2.26,2.26,0,0,0,2.24-2.47l-.28-2.82a43.82,43.82,0,0,0,7.94.73A44.45,44.45,0,0,0,70,101.8l1.44,3.5a2.26,2.26,0,0,0,2.1,1.42H86.19a2.27,2.27,0,0,0,2.25-2.47l-.9-9a31.83,31.83,0,0,0,9.62-10.09l4.36.11a3.12,3.12,0,0,0,3.1-2.76l1.45-10.2A3.13,3.13,0,0,0,103.87,68.84Z"/><path class="cls-10" d="M29.76,61.92h0c.08-.11.17-.21.25-.33h0a6.07,6.07,0,1,0-11-3.52,5.87,5.87,0,0,0,.34,2A12.8,12.8,0,0,1,16.55,59a1.16,1.16,0,0,0-1.48,1.69C18.15,66.14,26.36,66.55,29.76,61.92Z"/></g><g class="cls-11"><circle class="cls-12" cx="64.96" cy="25.77" r="10.49"/><circle class="cls-13" cx="64.96" cy="25.77" r="10.49"/></g><circle class="cls-14" cx="62.96" cy="23.77" r="10.49"/><circle class="cls-15" cx="62.96" cy="23.77" r="10.49"/><circle class="cls-13" cx="62.96" cy="23.77" r="6.28"/><path class="cls-16" d="M26.23,58.89s-6.78.27-7.68-7.83c0,0-2.28,2.21-.38,8.43.94,3.11,4.72,6.61,6.91,6.61"/><path class="cls-17" d="M100.87,65.84l-3.46-.91a27.32,27.32,0,0,0-6.56-13.39L94.67,43c-5.17-3.36-10.88-1.71-14.78.28a42.2,42.2,0,0,0-18.47-4.16c-20.08,0-36.36,13.43-36.36,30,0,11.94,11.7,33.15,11.7,33.15a2.26,2.26,0,0,0,2.1,1.42H51.52a2.26,2.26,0,0,0,2.24-2.47l-.28-2.82a43.82,43.82,0,0,0,7.94.73A44.45,44.45,0,0,0,67,98.8l1.44,3.5a2.26,2.26,0,0,0,2.1,1.42H83.19a2.27,2.27,0,0,0,2.25-2.47l-.9-9a31.83,31.83,0,0,0,9.62-10.09l4.36.11a3.12,3.12,0,0,0,3.1-2.76l1.45-10.2A3.13,3.13,0,0,0,100.87,65.84Z"/><circle class="cls-18" cx="22.08" cy="55.06" r="6.07"/><path class="cls-18" d="M27,58.58c-3.23,5-11.8,4.69-14.95-.91A1.16,1.16,0,0,1,13.55,56c2.32,1.2,6.86,2.6,8.27-1.21"/><path class="cls-19" d="M38.72,95.2c-3.62-7.36-8.66-19.13-8.66-26,0-8.83,5.78-16.61,14.47-21.06"/><path class="cls-20" d="M90.87,86.74a1.5,1.5,0,1,1-2.08,2.16,1.5,1.5,0,0,1,2.08-2.16Z"/><path class="cls-21" d="M93.23,83.69c.33-.49.64-1,.93-1.48l4.36.11a3.12,3.12,0,0,0,3.1-2.76l1.45-10.2a3.13,3.13,0,0,0-2.2-3.52l-3.46-.91a27.32,27.32,0,0,0-6.56-13.39L94.67,43c-5.17-3.36-10.88-1.71-14.78.28a42.2,42.2,0,0,0-18.47-4.16c-20.08,0-36.36,13.43-36.36,30,0,11.94,11.7,33.15,11.7,33.15a2.26,2.26,0,0,0,2.1,1.42H51.52a2.26,2.26,0,0,0,2.24-2.47l-.28-2.82a43.82,43.82,0,0,0,7.94.73A44.45,44.45,0,0,0,67,98.8l1.44,3.5a2.26,2.26,0,0,0,2.1,1.42H83.19a2.27,2.27,0,0,0,2.25-2.47l-.9-9c.44-.3.88-.6,1.3-.92"/><ellipse class="cls-22" cx="83.88" cy="62.12" rx="2.76" ry="3.09" transform="translate(-9.22 14.93) rotate(-9.65)"/><path class="cls-23" d="M75.18,46.38S85.74,37.23,94.67,43"/><line class="cls-17" x1="53.76" y1="101.25" x2="53.06" y2="94.26"/><line class="cls-24" x1="53.76" y1="101.25" x2="53.06" y2="94.26"/><line class="cls-24" x1="64.91" y1="93.74" x2="68.44" y2="102.3"/><g class="cls-11"><circle class="cls-12" cx="49.86" cy="42.67" r="20.58"/><path class="cls-25" d="M33,42.67a16.9,16.9,0,0,1,16.9-16.9"/><line class="cls-26" x1="28.94" y1="35.62" x2="31.78" y2="36.58"/><line class="cls-26" x1="31.47" y1="30.48" x2="33.97" y2="32.14"/><line class="cls-26" x1="35.23" y1="26.15" x2="37.22" y2="28.39"/><line class="cls-26" x1="39.98" y1="22.93" x2="41.32" y2="25.62"/><path class="cls-13" d="M44.83,22.72a20.57,20.57,0,1,1-14.92,25,20.29,20.29,0,0,1-.51-7.24"/><path class="cls-12" d="M53.39,38.7a6.47,6.47,0,0,0-3.24-1.32v3.36l.48.12c2.72.7,4.43,1.55,4.43,4.08,0,2.83-2.19,4-4.74,4.07v2.14H49.16V49a9.94,9.94,0,0,1-5-1.74l1.18-2.31a8.11,8.11,0,0,0,4,1.65V43.25c-.23-.06-.46-.12-.7-.2-2.62-.74-3.9-1.61-3.9-3.73,0-2.6,1.92-4.09,4.43-4.29v-2h1.16v2a9,9,0,0,1,4.26,1.52Zm-4.06,1.81V37.36c-1.22.08-1.84.62-1.84,1.54S48.11,40.14,49.33,40.51Zm.82,3v3.13c1.34,0,2.06-.53,2.06-1.42S51.43,43.91,50.15,43.5Z"/><circle class="cls-13" cx="49.86" cy="42.67" r="14.34"/></g><circle class="cls-14" cx="47.86" cy="40.67" r="20.58"/><path class="cls-27" d="M31,40.67a16.9,16.9,0,0,1,16.9-16.9"/><line class="cls-28" x1="26.94" y1="33.62" x2="29.78" y2="34.58"/><line class="cls-28" x1="29.47" y1="28.48" x2="31.97" y2="30.14"/><line class="cls-28" x1="33.23" y1="24.15" x2="35.22" y2="26.39"/><line class="cls-28" x1="37.98" y1="20.93" x2="39.32" y2="23.62"/><path class="cls-15" d="M42.83,20.72a20.57,20.57,0,1,1-14.92,25,20.29,20.29,0,0,1-.51-7.24"/><path class="cls-12" d="M51.39,36.7a6.47,6.47,0,0,0-3.24-1.32v3.36l.48.12c2.72.7,4.43,1.55,4.43,4.08,0,2.83-2.19,4-4.74,4.07v2.14H47.16V47a9.94,9.94,0,0,1-5-1.74l1.18-2.31a8.11,8.11,0,0,0,4,1.65V41.25c-.23-.06-.46-.12-.7-.2-2.62-.74-3.9-1.61-3.9-3.73,0-2.6,1.92-4.09,4.43-4.29v-2h1.16v2a9,9,0,0,1,4.26,1.52Zm-4.06,1.81V35.36c-1.22.08-1.84.62-1.84,1.54S46.11,38.14,47.33,38.51Zm.82,3v3.13c1.34,0,2.06-.53,2.06-1.42S49.43,41.91,48.15,41.5Z"/><circle class="cls-13" cx="47.86" cy="40.67" r="14.34"/></g></g></g></svg>