<?xml version="1.0" encoding="UTF-8"?>
<svg width="188px" height="160px" viewBox="0 0 188 160" version="1.1" xmlns="http://www.w3.org/2000/svg" xmlns:xlink="http://www.w3.org/1999/xlink">
    <!-- Generator: Sketch 52.5 (67469) - http://www.bohemiancoding.com/sketch -->
    <title>jobs_prezume</title>
    <desc>Created with Sketch.</desc>
    <g id="Page-1" stroke="none" stroke-width="1" fill="none" fill-rule="evenodd">
        <g id="Jobs-Page---Listing---SF---Desktop" transform="translate(-1076.000000, -887.000000)">
            <g id="Sidebar" transform="translate(1035.000000, 354.000000)">
                <g id="Why-Prezi-Copy" transform="translate(0.000000, 504.000000)">
                    <g id="Illustration">
                        <g id="jobs_prezume" transform="translate(41.000000, 29.000000)">
                            <path d="M83,156.94 C74.0150616,127.896961 82.4701245,96.2744406 104.750667,75.5910011 C127.031209,54.9075617 159.194189,48.8236011 187.49,59.94 L170.83,102.2 C158.787553,97.4692533 145.099642,100.055175 135.613049,108.85319 C126.126457,117.651205 122.518378,131.105857 126.33,143.47 L83,156.94 Z" id="Path" fill="#BBE8FF" opacity="0.5"></path>
                            <path d="M125.49,9.92 C127.156962,40.2857029 111.26316,68.9170411 84.6100643,83.5617395 C57.9569691,98.206438 25.2672911,96.2695762 0.53,78.58 L26.94,41.65 C37.4706955,49.1732632 51.380815,49.9969486 62.7257833,43.7690493 C74.0707516,37.5411499 80.843635,25.3633861 80.15,12.44 L125.49,9.92 Z" id="Path" fill="#BBE8FF" opacity="0.5"></path>
                            <g id="Group" opacity="0.3" transform="translate(158.000000, 138.000000)" fill="#44CB67">
                                <circle id="Oval" cx="4.96" cy="4.39" r="4.04"></circle>
                            </g>
                            <circle id="Oval" fill="#44CB67" cx="161.18" cy="140.61" r="4.04"></circle>
                            <rect id="Rectangle" fill="#44CB67" transform="translate(2.688910, 146.304676) rotate(-45.000000) translate(-2.688910, -146.304676) " x="0.788910397" y="144.404676" width="3.8" height="3.8"></rect>
                            <path d="M169.71,36.75 C169.157715,36.75 168.71,36.3022847 168.71,35.75 L168.59,32.75 C168.589333,32.2166665 169.007333,31.7766663 169.54,31.75 C169.813769,31.7362942 170.081161,31.8355689 170.279656,32.0246112 C170.47815,32.2136536 170.590343,32.4758887 170.59,32.75 L170.71,35.75 C170.71,36.3022847 170.262285,36.75 169.71,36.75 Z" id="Path" fill="#3181FF"></path>
                            <path d="M163.7,32.75 C163.212846,32.7543532 162.793448,32.407019 162.706952,31.927586 C162.620456,31.448153 162.892038,30.9761574 163.35,30.81 L166.16,29.81 C166.499386,29.6602907 166.893758,29.7107439 167.184524,29.9410703 C167.475291,30.1713968 167.614674,30.5437499 167.546624,30.9083931 C167.478573,31.2730362 167.21427,31.5700522 166.86,31.68 L164.05,32.68 C163.939425,32.7272719 163.820251,32.7511068 163.7,32.75 Z" id="Path" fill="#3181FF"></path>
                            <path d="M167.51,28.14 C167.20222,28.141658 166.910822,28.001492 166.72,27.76 L164.86,25.41 C164.517584,24.9764565 164.591457,24.3474166 165.025,24.0050001 C165.458544,23.6625835 166.087583,23.7364565 166.43,24.17 L168.29,26.52 C168.456648,26.7278446 168.533473,26.993593 168.503436,27.2582977 C168.473399,27.5230024 168.338981,27.7647799 168.13,27.93 C167.950991,28.0642783 167.733764,28.1378551 167.51,28.14 Z" id="Path" fill="#3181FF"></path>
                            <path d="M171.2,28 C171.003399,28.0022477 170.811043,27.942792 170.65,27.83 C170.193725,27.5248175 170.068753,26.9088827 170.37,26.45 L172.03,23.95 C172.354734,23.5847997 172.895855,23.5077996 173.309571,23.7679204 C173.723287,24.0280412 173.888396,24.5490781 173.7,25 L172,27.54 C171.824253,27.8145655 171.525705,27.986231 171.2,28 Z" id="Path" fill="#3181FF"></path>
                            <path d="M175.38,32.27 C175.290589,32.2845589 175.199411,32.2845589 175.11,32.27 L172.22,31.46 C171.690821,31.3095967 171.382509,30.7599985 171.53,30.23 C171.600112,29.9739583 171.769156,29.7563021 171.999877,29.6249974 C172.230598,29.4936928 172.50406,29.4595164 172.76,29.53 L175.65,30.35 C176.202285,30.4245585 176.589558,30.9327153 176.515,31.485 C176.440441,32.0372847 175.932285,32.4245584 175.38,32.35 L175.38,32.27 Z" id="Path" fill="#3181FF"></path>
                            <g id="Group" opacity="0.15" transform="translate(134.000000, 1.000000)" fill="#3181FF">
                                <circle id="Oval" cx="3.94" cy="4.05" r="3.51"></circle>
                            </g>
                            <circle id="Oval" fill="#3181FF" cx="136.4" cy="3.51" r="3.51"></circle>
                            <circle id="Oval" fill="#3181FF" cx="13.67" cy="117.23" r="1.75"></circle>
                            <circle id="Oval" fill="#3181FF" cx="49.25" cy="143.28" r="1.75"></circle>
                            <circle id="Oval" fill="#192D9B" cx="118.8" cy="158.25" r="1.75"></circle>
                            <circle id="Oval" fill="#44CB67" cx="149.56" cy="46.33" r="1.27"></circle>
                            <circle id="Oval" fill="#3181FF" cx="9.74" cy="46.01" r="1.75"></circle>
                            <path d="M46.7,39.62 C46.1477153,39.6724671 45.6574671,39.2672847 45.605,38.715 C45.5525329,38.1627153 45.9577153,37.6724671 46.51,37.62 L48.32,37.26 C48.5813539,37.2071386 48.8529959,37.2608454 49.0745697,37.4091871 C49.2961434,37.5575288 49.4492966,37.7882189 49.5,38.05 C49.6039115,38.59103 49.250663,39.1141955 48.71,39.22 L46.9,39.58 C46.8357235,39.6033124 46.7682985,39.6167974 46.7,39.62 Z" id="Path" fill="#FFFFFF"></path>
                            <path d="M33,26.52 C32.6427344,26.5414359 32.3011715,26.3706446 32.1039746,26.0719615 C31.9067777,25.7732784 31.8839059,25.3920806 32.0439746,25.0719615 C32.2040433,24.7518425 32.5227344,24.5414359 32.88,24.52 C35.0079969,24.2354419 36.868926,22.9439571 37.88,21.05 C38.1395738,20.561228 38.746228,20.3754262 39.235,20.635 C39.723772,20.8945738 39.9095738,21.501228 39.65,21.99 C38.3209873,24.4654144 35.8771686,26.1455397 33.09,26.5 L33,26.52 Z" id="Path" fill="#3B6BEE"></path>
                            <path d="M28.39,25.69 C28.2292498,25.6875584 28.0714579,25.6463953 27.93,25.57 C25.4469432,24.2426948 23.7619335,21.7934661 23.41,19 C23.3453033,18.4536794 23.7340435,17.9577005 24.28,17.89 C24.5439721,17.8590559 24.8094037,17.9344686 25.0176729,18.099583 C25.2259422,18.2646973 25.359914,18.5059287 25.39,18.77 C25.6745581,20.8979969 26.9660429,22.758926 28.86,23.77 C29.0973225,23.8933615 29.2753349,24.1066539 29.354258,24.3622145 C29.4331811,24.617775 29.4064363,24.8943012 29.28,25.13 C29.1133412,25.4701654 28.7687855,25.6869645 28.39,25.69 Z" id="Path" fill="#3B6BEE"></path>
                            <path d="M25.23,15.32 C25.0692498,15.3175584 24.9114579,15.2763953 24.77,15.2 C24.2813543,14.9430824 24.0933512,14.3387869 24.35,13.85 C25.6753221,11.3695947 28.1202214,9.68499949 30.91,9.33 C31.1739721,9.29905589 31.4394037,9.37446865 31.6476729,9.53958299 C31.8559422,9.70469733 31.989914,9.94592871 32.02,10.21 C32.0846967,10.7563206 31.6959565,11.2522995 31.15,11.32 C29.0221551,11.5976393 27.1596596,12.8864861 26.15,14.78 C25.9729656,15.1221998 25.6150865,15.3322593 25.23,15.32 Z" id="Path" fill="#3B6BEE"></path>
                            <path d="M39.6,18 C39.0913743,18.0036739 38.6610234,17.6249651 38.6,17.12 C38.3154419,14.9920031 37.0239571,13.131074 35.13,12.12 C34.8049128,11.9588044 34.5926528,11.6341576 34.5753737,11.2717115 C34.5580945,10.9092654 34.7385076,10.5658984 35.0467858,10.3745079 C35.3550639,10.1831173 35.742829,10.1737379 36.06,10.35 C38.5404053,11.6753221 40.2250005,14.1202214 40.58,16.91 C40.6446967,17.4563206 40.2559565,17.9522995 39.71,18.02 L39.6,18 Z" id="Path" fill="#3B6BEE"></path>
                            <g id="Group" opacity="0.3" transform="translate(53.000000, 24.000000)">
                                <path d="M87.86,26.9 L61.32,1 L4.45,1 C2.48386629,1 0.89,2.59386629 0.89,4.56 L0.89,109.43 C0.887342961,110.375902 1.26124001,111.283973 1.92915772,111.953767 C2.59707543,112.623561 3.50409413,113.000004 4.45,113 L84.3,113 C85.2459059,113.000004 86.1529246,112.623561 86.8208423,111.953767 C87.48876,111.283973 87.862657,110.375902 87.86,109.43 L87.86,26.9 Z" id="Path" fill="#50AAFF"></path>
                                <path d="M63.2,5.54 L63.2,27.2 C63.1999969,28.3289048 63.6491359,29.4114272 64.4483296,30.2087449 C65.2475234,31.0060626 66.3310983,31.4526562 67.46,31.45 L89.11,31.4500118 L89.11,28.78" id="Path" fill="#50AAFF" opacity="0.19"></path>
                                <path d="M87.77,26.76 L66.12,26.76 C63.767267,26.76 61.86,24.852733 61.86,22.5 L61.86,0.85" id="Path" stroke="#50AAFF" stroke-width="3" fill="#50AAFF" stroke-linejoin="round"></path>
                                <path d="M44.38,1 L4.45,1 C2.48386629,1 0.89,2.59386629 0.89,4.56 L0.89,109.43 C0.887342961,110.375902 1.26124001,111.283973 1.92915772,111.953767 C2.59707543,112.623561 3.50409413,113.000004 4.45,113 L84.3,113 C85.2459059,113.000004 86.1529246,112.623561 86.8208423,111.953767 C87.48876,111.283973 87.862657,110.375902 87.86,109.43 L87.86,26.9 L61.32,1 L44.38,1 Z" id="Path" stroke="#50AAFF" stroke-width="3" stroke-linecap="round"></path>
                            </g>
                            <path d="M137.86,47.9 L111.32,22 L54.45,22 C52.4838663,22 50.89,23.5938663 50.89,25.56 L50.89,130.43 C50.887343,131.375902 51.26124,132.283973 51.9291577,132.953767 C52.5970754,133.623561 53.5040941,134.000004 54.45,134 L134.3,134 C135.245906,134.000004 136.152925,133.623561 136.820842,132.953767 C137.48876,132.283973 137.862657,131.375902 137.86,130.43 L137.86,47.9 Z" id="Path" fill="#BBE8FF"></path>
                            <path d="M113.2,26.54 L113.2,48.2 C113.199997,49.3289048 113.649136,50.4114272 114.44833,51.2087449 C115.247523,52.0060626 116.331098,52.4526562 117.46,52.45 L139.11,52.4500118 L139.11,49.78" id="Path" fill="#3181FF" opacity="0.19"></path>
                            <path d="M137.77,47.76 L116.12,47.76 C113.767267,47.76 111.86,45.852733 111.86,43.5 L111.86,21.85" id="Path" stroke="#1E55EB" stroke-width="3" fill="#E8F7FF" stroke-linejoin="round"></path>
                            <path d="M94.38,22 L54.45,22 C52.4838663,22 50.89,23.5938663 50.89,25.56 L50.89,130.43 C50.887343,131.375902 51.26124,132.283973 51.9291577,132.953767 C52.5970754,133.623561 53.5040941,134.000004 54.45,134 L134.3,134 C135.245906,134.000004 136.152925,133.623561 136.820842,132.953767 C137.48876,132.283973 137.862657,131.375902 137.86,130.43 L137.86,47.9 L111.32,22 L94.38,22 Z" id="Path" stroke="#1E55EB" stroke-width="3" stroke-linecap="round"></path>
                            <path d="M58.44,35.98 L58.44,128.06" id="Path" stroke="#E8F7FF" stroke-width="2" stroke-linecap="round" stroke-linejoin="round"></path>
                            <path d="M58.44,28.24 L58.44,32.05" id="Path" stroke="#E8F7FF" stroke-width="2" stroke-linecap="round" stroke-linejoin="round"></path>
                            <g id="Group" opacity="0.3" transform="translate(31.000000, 39.000000)">
                                <path d="M0.47,15.6 L4.08,0.42 L6.83,4.59 C22.36,-1 37,4.77 42.77,13.78 C35.59,8 23.23,7 12.82,13.65 L15.82,18.22 L0.47,15.6 Z" id="Path" fill="#50AAFF"></path>
                                <path d="M0.47,15.6 L4.08,0.42 L6.83,4.59 C22.36,-1 37,4.77 42.77,13.78 C35.59,8 23.23,7 12.82,13.65 L15.82,18.22 L0.47,15.6 Z" id="Path" stroke="#50AAFF" stroke-width="2" stroke-linejoin="round"></path>
                            </g>
                            <path d="M29.47,52.6 L33.08,37.42 L35.83,41.59 C51.36,36 66,41.77 71.77,50.78 C64.59,45 52.23,44 41.82,50.65 L44.82,55.22 L29.47,52.6 Z" id="Path" fill="#F0FFD7"></path>
                            <path d="M29.47,52.6 L33.08,37.42 L35.83,41.59 C51.36,36 66,41.77 71.77,50.78 C64.59,45 52.23,44 41.82,50.65 L44.82,55.22 L29.47,52.6 Z" id="Path" stroke="#1E55EB" stroke-width="2" stroke-linejoin="round"></path>
                            <g id="Group" opacity="0.3" transform="translate(118.000000, 109.000000)">
                                <path d="M42.42,1.49 L40,16.9 L36.93,13 C21.88,19.73 6.87,15.15 0.39,6.61 C7.99,11.8 20.39,11.85 30.25,4.42 L26.89,0.1 L42.42,1.49 Z" id="Path" fill="#50AAFF"></path>
                                <path d="M42.42,1.49 L40,16.9 L36.93,13 C21.88,19.73 6.87,15.15 0.39,6.61 C7.99,11.8 20.39,11.85 30.25,4.42 L26.89,0.1 L42.42,1.49 Z" id="Path" stroke="#50AAFF" stroke-width="2" stroke-linejoin="round"></path>
                            </g>
                            <path d="M158.42,108.49 L156,123.9 L152.93,120 C137.88,126.73 122.87,122.15 116.39,113.61 C123.99,118.8 136.39,118.85 146.25,111.42 L142.89,107.1 L158.42,108.49 Z" id="Path" fill="#F0FFD7"></path>
                            <path d="M158.42,108.49 L156,123.9 L152.93,120 C137.88,126.73 122.87,122.15 116.39,113.61 C123.99,118.8 136.39,118.85 146.25,111.42 L142.89,107.1 L158.42,108.49 Z" id="Path" stroke="#1E55EB" stroke-width="2" stroke-linejoin="round"></path>
                            <g id="Group" opacity="0.3" transform="translate(12.000000, 60.000000)">
                                <circle id="Oval" fill="#50AAFF" cx="22.2" cy="21.98" r="21.5"></circle>
                                <circle id="Oval" stroke="#50AAFF" stroke-width="2" stroke-linejoin="round" cx="22.2" cy="21.98" r="21.5"></circle>
                            </g>
                            <circle id="Oval" fill="#E6F5FF" cx="33.2" cy="80.98" r="21.5"></circle>
                            <circle id="Oval" stroke="#1E55EB" stroke-width="2" stroke-linejoin="round" cx="33.2" cy="80.98" r="21.5"></circle>
                            <g id="Group" opacity="0.3" transform="translate(67.000000, 54.000000)">
                                <circle id="Oval" fill="#50AAFF" cx="30.22" cy="29.89" r="29.85"></circle>
                                <g transform="translate(10.000000, 6.000000)" id="Path">
                                    <path d="M35,32.91 C35,32.91 35,38.7 37.43,43 C34.7564525,43.8196694 31.9085252,43.8854174 29.2,43.19 C26.77,42.44 35,32.91 35,32.91 Z" stroke="#50AAFF" stroke-width="1.5" fill="#50AAFF" stroke-linejoin="round"></path>
                                    <path d="M7.6,32.91 C7.6,32.91 7.6,38.7 5.17,43 C7.84009736,43.8198637 10.6848732,43.8856188 13.39,43.19 C15.82,42.44 7.6,32.91 7.6,32.91 Z" stroke="#50AAFF" stroke-width="1.5" fill="#50AAFF" stroke-linejoin="round"></path>
                                    <path d="M35.84,32 C35.84,32 37.71,32.76 38.11,30.5 C38.61,27.63 39.87,26.45 39.77,25.39 C39.748607,24.7392112 39.3937245,24.1452634 38.8307679,23.8180576 C38.2678114,23.4908519 37.5760681,23.476472 37,23.78" stroke="#50AAFF" stroke-width="1.5" fill="#50AAFF" stroke-linecap="round"></path>
                                    <path d="M6.75,32 C6.75,32 4.87,32.76 4.48,30.5 C3.98,27.63 2.71,26.45 2.82,25.39 C2.83247745,24.7349849 3.18504042,24.1337025 3.75056073,23.8029649 C4.31608104,23.4722274 5.01299221,23.459738 5.59,23.77" stroke="#50AAFF" stroke-width="1.5" fill="#50AAFF" stroke-linecap="round"></path>
                                    <path d="M21.29,5.1 C30.78,5.1 37.48,11.75 36.29,27.16 C35.9,31.86 35.21,36.22 32.71,39.81 C29.5,44.41 23.02,46.57 22.09,46.57 L21.33,46.57" stroke="#50AAFF" fill="#50AAFF"></path>
                                    <path d="M21.29,5.1 C11.79,5.1 5.09,11.75 6.29,27.16 C6.69,31.86 7.37,36.22 9.88,39.81 C13.08,44.41 19.56,46.57 20.49,46.57 L21.26,46.57" stroke="#50AAFF" fill="#50AAFF"></path>
                                    <path d="M21.29,5.1 C30.78,5.1 37.48,11.75 36.29,27.16 C35.9,31.86 35.21,36.22 32.71,39.81 C29.5,44.41 23.02,46.57 22.09,46.57 L21.33,46.57" stroke="#50AAFF" stroke-width="1.5"></path>
                                    <path d="M21.29,5.1 C11.79,5.1 5.09,11.75 6.29,27.16 C6.69,31.86 7.37,36.22 9.88,39.81 C13.08,44.41 19.56,46.57 20.49,46.57 L21.26,46.57" stroke="#50AAFF" stroke-width="1.5"></path>
                                    <path d="M28.53,7.2 C33.73,2.56 40.9,8.6 39.67,16.33 C38.9572317,19.7637513 37.7797255,23.0843186 36.17,26.2 C36.17,26.2 35.8,19.1 34.99,16.3 C34.18,13.5 32.86,10.92 28.53,7.2 Z" stroke="#50AAFF" stroke-width="1.5" fill="#50AAFF" stroke-linejoin="round"></path>
                                    <path d="M23.84,2.21 C9.07,0.08 1.76,11.55 1.93,21.21 C2.03,26.71 3.23,31.08 8.17,37.02 C7.62024613,34.8560043 7.33813761,32.6327204 7.33,30.4 C7.33096177,28.2287794 7.75556142,26.0786067 8.58,24.07 C9.51,21.68 12.19,20.21 14.58,19.86 C18.48,19.29 28.87,21.68 31.76,10.65 C31.6591513,6.22838747 28.246283,2.59144197 23.84,2.21 Z" fill="#50AAFF"></path>
                                    <path d="M23.84,2.21 C9.07,0.08 1.76,11.55 1.93,21.21 C2.03,26.71 3.23,31.08 8.17,37.02 C7.62024613,34.8560043 7.33813761,32.6327204 7.33,30.4 C7.33096177,28.2287794 7.75556142,26.0786067 8.58,24.07 C9.51,21.68 12.19,20.21 14.58,19.86 C18.48,19.29 28.87,21.68 31.76,10.65 C31.6591513,6.22838747 28.246283,2.59144197 23.84,2.21 Z" stroke="#50AAFF" stroke-width="1.5" stroke-linejoin="round"></path>
                                    <path d="M34,31.91 C34,31.91 34,37.7 36.43,42 C33.7564525,42.8196694 30.9085252,42.8854174 28.2,42.19 C25.77,41.44 34,31.91 34,31.91 Z" stroke="#50AAFF" stroke-width="1.5" fill="#50AAFF" stroke-linejoin="round"></path>
                                    <path d="M6.6,31.91 C6.6,31.91 6.6,37.7 4.17,42 C6.84009736,42.8198637 9.68487324,42.8856188 12.39,42.19 C14.82,41.44 6.6,31.91 6.6,31.91 Z" stroke="#50AAFF" stroke-width="1.5" fill="#50AAFF" stroke-linejoin="round"></path>
                                    <path d="M34.84,31 C34.84,31 36.71,31.76 37.11,29.5 C37.61,26.63 38.87,25.45 38.77,24.39 C38.748607,23.7392112 38.3937245,23.1452634 37.8307679,22.8180576 C37.2678114,22.4908519 36.5760681,22.476472 36,22.78" stroke="#50AAFF" stroke-width="1.5" fill="#50AAFF" stroke-linecap="round"></path>
                                    <path d="M5.75,31 C5.75,31 3.87,31.76 3.48,29.5 C2.98,26.63 1.71,25.45 1.82,24.39 C1.83247745,23.7349849 2.18504042,23.1337025 2.75056073,22.8029649 C3.31608104,22.4722274 4.01299221,22.459738 4.59,22.77" stroke="#50AAFF" stroke-width="1.5" fill="#50AAFF" stroke-linecap="round"></path>
                                    <path d="M20.29,4.1 C29.78,4.1 36.48,10.75 35.29,26.16 C34.9,30.86 34.21,35.22 31.71,38.81 C28.5,43.41 22.02,45.57 21.09,45.57 L20.33,45.57" stroke="#50AAFF" fill="#50AAFF"></path>
                                    <path d="M20.29,4.1 C10.79,4.1 4.09,10.75 5.29,26.16 C5.69,30.86 6.37,35.22 8.88,38.81 C12.08,43.41 18.56,45.57 19.49,45.57 L20.26,45.57" stroke="#50AAFF" fill="#50AAFF"></path>
                                    <path d="M20.29,4.1 C29.78,4.1 36.48,10.75 35.29,26.16 C34.9,30.86 34.21,35.22 31.71,38.81 C28.5,43.41 22.02,45.57 21.09,45.57 L20.33,45.57" stroke="#50AAFF" stroke-width="1.5"></path>
                                    <path d="M20.29,4.1 C10.79,4.1 4.09,10.75 5.29,26.16 C5.69,30.86 6.37,35.22 8.88,38.81 C12.08,43.41 18.56,45.57 19.49,45.57 L20.26,45.57" stroke="#50AAFF" stroke-width="1.5"></path>
                                    <path d="M27.53,6.2 C32.73,1.56 39.9,7.6 38.67,15.33 C37.9572317,18.7637513 36.7797255,22.0843186 35.17,25.2 C35.17,25.2 34.8,18.1 33.99,15.3 C33.18,12.5 31.86,9.92 27.53,6.2 Z" stroke="#50AAFF" stroke-width="1.5" fill="#50AAFF" stroke-linejoin="round"></path>
                                    <path d="M22.84,1.21 C8.07,-0.92 0.76,10.55 0.93,20.21 C1.03,25.71 2.23,30.08 7.17,36.02 C6.62024613,33.8560043 6.33813761,31.6327204 6.33,29.4 C6.33096177,27.2287794 6.75556142,25.0786067 7.58,23.07 C8.51,20.68 11.19,19.21 13.58,18.86 C17.48,18.29 27.87,20.68 30.76,9.65 C30.6591513,5.22838747 27.246283,1.59144197 22.84,1.21 Z" fill="#50AAFF"></path>
                                    <path d="M22.84,1.21 C8.07,-0.92 0.76,10.55 0.93,20.21 C1.03,25.71 2.23,30.08 7.17,36.02 C6.62024613,33.8560043 6.33813761,31.6327204 6.33,29.4 C6.33096177,27.2287794 6.75556142,25.0786067 7.58,23.07 C8.51,20.68 11.19,19.21 13.58,18.86 C17.48,18.29 27.87,20.68 30.76,9.65 C30.6591513,5.22838747 27.246283,1.59144197 22.84,1.21 Z" stroke="#50AAFF" stroke-width="1.5" stroke-linejoin="round"></path>
                                </g>
                                <circle id="Oval" stroke="#50AAFF" stroke-width="2" stroke-linecap="round" stroke-linejoin="round" cx="30.22" cy="29.89" r="29.85"></circle>
                            </g>
                            <circle id="Oval" fill="#F0FFD7" cx="95.22" cy="81.89" r="29.85"></circle>
                            <g id="Group" transform="translate(75.000000, 58.000000)">
                                <g opacity="0.3" transform="translate(1.000000, 1.000000)" id="Path">
                                    <path d="M34,31.91 C34,31.91 34,37.7 36.43,42 C33.7564525,42.8196694 30.9085252,42.8854174 28.2,42.19 C25.77,41.44 34,31.91 34,31.91 Z" stroke="#50AAFF" stroke-width="1.5" fill="#50AAFF" stroke-linejoin="round"></path>
                                    <path d="M6.6,31.91 C6.6,31.91 6.6,37.7 4.17,42 C6.84009736,42.8198637 9.68487324,42.8856188 12.39,42.19 C14.82,41.44 6.6,31.91 6.6,31.91 Z" stroke="#50AAFF" stroke-width="1.5" fill="#50AAFF" stroke-linejoin="round"></path>
                                    <path d="M34.84,31 C34.84,31 36.71,31.76 37.11,29.5 C37.61,26.63 38.87,25.45 38.77,24.39 C38.748607,23.7392112 38.3937245,23.1452634 37.8307679,22.8180576 C37.2678114,22.4908519 36.5760681,22.476472 36,22.78" stroke="#50AAFF" stroke-width="1.5" fill="#50AAFF" stroke-linecap="round"></path>
                                    <path d="M5.75,31 C5.75,31 3.87,31.76 3.48,29.5 C2.98,26.63 1.71,25.45 1.82,24.39 C1.83247745,23.7349849 2.18504042,23.1337025 2.75056073,22.8029649 C3.31608104,22.4722274 4.01299221,22.459738 4.59,22.77" stroke="#50AAFF" stroke-width="1.5" fill="#50AAFF" stroke-linecap="round"></path>
                                    <path d="M20.29,4.1 C29.78,4.1 36.48,10.75 35.29,26.16 C34.9,30.86 34.21,35.22 31.71,38.81 C28.5,43.41 22.02,45.57 21.09,45.57 L20.33,45.57" stroke="#50AAFF" fill="#50AAFF"></path>
                                    <path d="M20.29,4.1 C10.79,4.1 4.09,10.75 5.29,26.16 C5.69,30.86 6.37,35.22 8.88,38.81 C12.08,43.41 18.56,45.57 19.49,45.57 L20.26,45.57" stroke="#50AAFF" fill="#50AAFF"></path>
                                    <path d="M20.29,4.1 C29.78,4.1 36.48,10.75 35.29,26.16 C34.9,30.86 34.21,35.22 31.71,38.81 C28.5,43.41 22.02,45.57 21.09,45.57 L20.33,45.57" stroke="#50AAFF" stroke-width="1.5"></path>
                                    <path d="M20.29,4.1 C10.79,4.1 4.09,10.75 5.29,26.16 C5.69,30.86 6.37,35.22 8.88,38.81 C12.08,43.41 18.56,45.57 19.49,45.57 L20.26,45.57" stroke="#50AAFF" stroke-width="1.5"></path>
                                    <path d="M27.53,6.2 C32.73,1.56 39.9,7.6 38.67,15.33 C37.9572317,18.7637513 36.7797255,22.0843186 35.17,25.2 C35.17,25.2 34.8,18.1 33.99,15.3 C33.18,12.5 31.86,9.92 27.53,6.2 Z" stroke="#50AAFF" stroke-width="1.5" fill="#50AAFF" stroke-linejoin="round"></path>
                                    <path d="M22.84,1.21 C8.07,-0.92 0.76,10.55 0.93,20.21 C1.03,25.71 2.23,30.08 7.17,36.02 C6.62024613,33.8560043 6.33813761,31.6327204 6.33,29.4 C6.33096177,27.2287794 6.75556142,25.0786067 7.58,23.07 C8.51,20.68 11.19,19.21 13.58,18.86 C17.48,18.29 27.87,20.68 30.76,9.65 C30.6591513,5.22838747 27.246283,1.59144197 22.84,1.21 Z" fill="#50AAFF"></path>
                                    <path d="M22.84,1.21 C8.07,-0.92 0.76,10.55 0.93,20.21 C1.03,25.71 2.23,30.08 7.17,36.02 C6.62024613,33.8560043 6.33813761,31.6327204 6.33,29.4 C6.33096177,27.2287794 6.75556142,25.0786067 7.58,23.07 C8.51,20.68 11.19,19.21 13.58,18.86 C17.48,18.29 27.87,20.68 30.76,9.65 C30.6591513,5.22838747 27.246283,1.59144197 22.84,1.21 Z" stroke="#50AAFF" stroke-width="1.5" stroke-linejoin="round"></path>
                                </g>
                                <path d="M34,31.91 C34,31.91 34,37.7 36.43,42 C33.7564525,42.8196694 30.9085252,42.8854174 28.2,42.19 C25.77,41.44 34,31.91 34,31.91 Z" id="Path" stroke="#1E55EB" stroke-width="1.5" fill="#BBE8FF" stroke-linejoin="round"></path>
                                <path d="M6.6,31.91 C6.6,31.91 6.6,37.7 4.17,42 C6.84009736,42.8198637 9.68487324,42.8856188 12.39,42.19 C14.82,41.44 6.6,31.91 6.6,31.91 Z" id="Path" stroke="#1E55EB" stroke-width="1.5" fill="#BBE8FF" stroke-linejoin="round"></path>
                                <path d="M34.84,31 C34.84,31 36.71,31.76 37.11,29.5 C37.61,26.63 38.87,25.45 38.77,24.39 C38.748607,23.7392112 38.3937245,23.1452634 37.8307679,22.8180576 C37.2678114,22.4908519 36.5760681,22.476472 36,22.78" id="Path" stroke="#1E55EB" stroke-width="1.5" fill="#E6F5FF" stroke-linecap="round"></path>
                                <path d="M5.75,31 C5.75,31 3.87,31.76 3.48,29.5 C2.98,26.63 1.71,25.45 1.82,24.39 C1.83247745,23.7349849 2.18504042,23.1337025 2.75056073,22.8029649 C3.31608104,22.4722274 4.01299221,22.459738 4.59,22.77" id="Path" stroke="#3181FF" stroke-width="1.5" fill="#F7FAFF" stroke-linecap="round"></path>
                                <path d="M20.29,4.1 C29.78,4.1 36.48,10.75 35.29,26.16 C34.9,30.86 34.21,35.22 31.71,38.81 C28.5,43.41 22.02,45.57 21.09,45.57 L20.33,45.57" id="Path" stroke="#1E55EB" fill="#E6F5FF"></path>
                                <path d="M20.29,4.1 C10.79,4.1 4.09,10.75 5.29,26.16 C5.69,30.86 6.37,35.22 8.88,38.81 C12.08,43.41 18.56,45.57 19.49,45.57 L20.26,45.57" id="Path" stroke="#1E55EB" fill="#E6F5FF"></path>
                                <path d="M20.29,4.1 C29.78,4.1 36.48,10.75 35.29,26.16 C34.9,30.86 34.21,35.22 31.71,38.81 C28.5,43.41 22.02,45.57 21.09,45.57 L20.33,45.57" id="Path" stroke="#1E55EB" stroke-width="1.5"></path>
                                <path d="M20.29,4.1 C10.79,4.1 4.09,10.75 5.29,26.16 C5.69,30.86 6.37,35.22 8.88,38.81 C12.08,43.41 18.56,45.57 19.49,45.57 L20.26,45.57" id="Path" stroke="#1E55EB" stroke-width="1.5"></path>
                                <path d="M27.53,6.2 C32.73,1.56 39.9,7.6 38.67,15.33 C37.9572317,18.7637513 36.7797255,22.0843186 35.17,25.2 C35.17,25.2 34.8,18.1 33.99,15.3 C33.18,12.5 31.86,9.92 27.53,6.2 Z" id="Path" stroke="#1E55EB" stroke-width="1.5" fill="#BBE8FF" stroke-linejoin="round"></path>
                                <path d="M22.84,1.21 C8.07,-0.92 0.76,10.55 0.93,20.21 C1.03,25.71 2.23,30.08 7.17,36.02 C6.62024613,33.8560043 6.33813761,31.6327204 6.33,29.4 C6.33096177,27.2287794 6.75556142,25.0786067 7.58,23.07 C8.51,20.68 11.19,19.21 13.58,18.86 C17.48,18.29 27.87,20.68 30.76,9.65 C30.6591513,5.22838747 27.246283,1.59144197 22.84,1.21 Z" id="Path" fill="#BBE8FF"></path>
                                <path d="M22.84,1.21 C8.07,-0.92 0.76,10.55 0.93,20.21 C1.03,25.71 2.23,30.08 7.17,36.02 C6.62024613,33.8560043 6.33813761,31.6327204 6.33,29.4 C6.33096177,27.2287794 6.75556142,25.0786067 7.58,23.07 C8.51,20.68 11.19,19.21 13.58,18.86 C17.48,18.29 27.87,20.68 30.76,9.65 C30.6591513,5.22838747 27.246283,1.59144197 22.84,1.21 Z" id="Path" stroke="#1E55EB" stroke-width="1.5" stroke-linejoin="round"></path>
                            </g>
                            <circle id="Oval" stroke="#50AAFF" stroke-width="2" stroke-linecap="round" stroke-linejoin="round" cx="95.22" cy="81.89" r="29.85"></circle>
                            <path d="M28,71.4 L27.9999963,77.17 L38.38,77.17 L38.38,71.4 C38.38,70.8863752 37.9636248,70.47 37.45,70.47 L29,70.47 C28.7414618,70.4504837 28.4865134,70.5397802 28.2966545,70.7163489 C28.1067956,70.8929177 27.9992644,71.1407272 28,71.4 Z M36.53,75.49 L29.83,75.49 L29.83,72.61 L36.53,72.61 L36.53,75.49 Z" id="Shape" fill="#BBE8FF" fill-rule="nonzero"></path>
                            <path d="M28,71.4 L27.9999963,77.17 L38.38,77.17 L38.38,71.4 C38.38,70.8863752 37.9636248,70.47 37.45,70.47 L29,70.47 C28.7414618,70.4504837 28.4865134,70.5397802 28.2966545,70.7163489 C28.1067956,70.8929177 27.9992644,71.1407272 28,71.4 Z M36.53,75.49 L29.83,75.49 L29.83,72.61 L36.53,72.61 L36.53,75.49 Z" id="Shape" stroke="#1E55EB" stroke-linejoin="round"></path>
                            <g id="body" transform="translate(20.000000, 75.000000)">
                                <rect id="Rectangle" fill="#BBE8FF" x="0.4" y="0.04" width="25.6" height="16.45" rx="1"></rect>
                                <rect id="Rectangle" stroke="#1E55EB" x="0.4" y="0.04" width="25.6" height="16.45" rx="1"></rect>
                            </g>
                            <path d="M20.4,85.7 L46,85.7" id="flap_line" stroke="#1E55EB"></path>
                            <rect id="buckle" stroke="#1E55EB" fill="#F0FFD7" stroke-linejoin="round" x="32.14" y="83.87" width="2.13" height="3.66"></rect>
                            <g id="Group" opacity="0.3" transform="translate(134.000000, 60.000000)">
                                <circle id="Oval" fill="#50AAFF" cx="21.58" cy="21.98" r="21.5"></circle>
                                <circle id="Oval" stroke="#50AAFF" stroke-width="2" stroke-linejoin="round" cx="21.58" cy="21.98" r="21.5"></circle>
                            </g>
                            <circle id="Oval" fill="#E6F5FF" cx="154.58" cy="80.98" r="21.5"></circle>
                            <circle id="Oval" stroke="#1E55EB" stroke-width="2" stroke-linejoin="round" cx="154.58" cy="80.98" r="21.5"></circle>
                            <circle id="Oval" fill="#3181FF" cx="145.9" cy="81.78" r="1"></circle>
                            <path d="M166.08,78.46 L166.08,86.46 C166.08,86.46 157.68,90.61 154.66,90.46 C151.64,90.31 143.92,86.46 143.92,86.46 L143.92,78.8" id="Path" stroke="#1E55EB" fill="#BBE8FF" stroke-linejoin="round"></path>
                            <polygon id="Path" stroke="#1E55EB" fill="#BBE8FF" stroke-linejoin="round" points="155 82 136.53 76.19 155 70 173.47 76.19"></polygon>
                            <polyline id="Path" stroke="#50AAFF" points="140.97 86.92 140.84 77.85 153.21 75.33"></polyline>
                            <ellipse id="Oval" stroke="#50AAFF" fill="#E6F5FF" stroke-linejoin="round" cx="154.82" cy="75.22" rx="1.32" ry="1"></ellipse>
                            <path d="M139.46,91.21 L139.46,88.66 C139.444262,87.8729788 140.028269,87.2024519 140.81,87.11 C141.230447,87.0674514 141.649186,87.2054404 141.961967,87.4896136 C142.274748,87.7737867 142.452147,88.1774106 142.45,88.6 L142.450019,91.21" id="Path" stroke="#50AAFF" fill="#E6F5FF" stroke-linecap="round"></path>
                            <circle id="Oval" stroke="#50AAFF" fill="#E6F5FF" cx="140.94" cy="86.62" r="1"></circle>
                            <path d="M140.84,90.1 L140.84,91.85" id="Path" stroke="#50AAFF" fill="#FDFBF4" stroke-linecap="round"></path>
                        </g>
                    </g>
                </g>
            </g>
        </g>
    </g>
</svg>