<?xml version="1.0" encoding="UTF-8"?>
<svg width="30px" height="27px" viewBox="0 0 30 27" version="1.1" xmlns="http://www.w3.org/2000/svg" xmlns:xlink="http://www.w3.org/1999/xlink">
    <!-- Generator: Sketch 52.5 (67469) - http://www.bohemiancoding.com/sketch -->
    <title>tools</title>
    <desc>Created with Sketch.</desc>
    <g id="Page-1" stroke="none" stroke-width="1" fill="none" fill-rule="evenodd">
        <g id="Culture---Riga" transform="translate(-759.000000, -2557.000000)" fill="#00C6C6">
            <g id="community" transform="translate(135.000000, 2525.000000)">
                <g id="Renovation-Project" transform="translate(600.000000, 0.000000)">
                    <g id="Copy" transform="translate(24.000000, 30.000000)">
                        <g id="tools">
                            <g transform="translate(0.000000, 2.000000)" id="Tools">
                                <g>
                                    <path d="M4.7025,8.835 C6.102,7.7475 7.263,8.4975 8.8125,10.2915 C8.9865,10.494 9.2205,10.257 9.354,10.1415 C9.486,10.0245 11.5305,8.184 11.631,8.1 C11.73,8.0115 11.85,7.8465 11.6925,7.662 C11.532,7.4775 10.9515,6.7245 10.578,6.2355 C7.866,2.688 17.997,0.282 16.4415,0.2445 C15.6495,0.2235 12.4725,0.186 11.997,0.2385 C10.0725,0.441 7.656,2.2395 6.4395,3.078 C4.848,4.167 4.254,4.806 4.1565,4.8945 C3.7065,5.2875 4.0845,6.195 3.2685,6.9105 C2.406,7.665 1.8675,7.0935 1.368,7.5315 C1.1205,7.7505 0.4275,8.2695 0.2295,8.442 C0.03,8.6175 -0.006,8.913 0.198,9.1485 C0.198,9.1485 2.094,11.2425 2.253,11.4285 C2.4105,11.6115 2.8395,11.7705 3.1035,11.535 C3.369,11.301 4.0515,10.7055 4.1655,10.6005 C4.2825,10.5015 4.0905,9.309 4.7025,8.835 L4.7025,8.835 Z M13.2645,9.6105 C13.0845,9.402 12.861,9.396 12.669,9.567 L10.518,11.445 C10.3485,11.595 10.3245,11.8695 10.4775,12.045 L22.9185,26.2035 C23.2095,26.538 23.7135,26.5725 24.045,26.283 L25.5,25.0635 C25.833,24.771 25.8675,24.264 25.578,23.9265 L13.2645,9.6105 L13.2645,9.6105 Z M29.853,3.585 C29.742,2.844 29.358,2.9985 29.1585,3.312 C28.959,3.6285 28.077,4.965 27.714,5.571 C27.354,6.171 26.466,7.3575 24.813,6.186 C23.091,4.9695 23.6895,4.1205 23.9895,3.549 C24.291,2.9745 25.2165,1.3635 25.35,1.164 C25.4835,0.9615 25.3275,0.3735 24.7935,0.6195 C24.258,0.8655 21.009,2.157 20.559,4.0095 C20.0985,5.8935 20.9445,7.578 19.284,9.2505 L17.2695,11.3505 L19.293,13.6995 L21.774,11.3445 C22.365,10.7505 23.628,10.173 24.771,10.434 C27.2205,10.9875 28.557,10.068 29.3625,8.547 C30.0855,7.188 29.9655,4.326 29.853,3.585 L29.853,3.585 Z M4.1085,24.0795 C3.7965,24.393 3.7965,24.903 4.1085,25.2165 L5.535,26.6115 C5.847,26.925 6.342,26.793 6.654,26.4795 L14.0145,19.2435 L11.76,16.6725 L4.1085,24.0795 L4.1085,24.0795 Z" id="Shape"></path>
                                </g>
                            </g>
                        </g>
                    </g>
                </g>
            </g>
        </g>
    </g>
</svg>