<svg xmlns="http://www.w3.org/2000/svg" viewBox="0 0 190 160"><defs><style>.cls-1{opacity:0.5;}.cls-13,.cls-17,.cls-2{fill:#bbe8ff;}.cls-3{opacity:0.3;}.cls-12,.cls-29,.cls-4,.cls-5,.cls-8,.cls-9{fill:#50aaff;}.cls-10,.cls-11,.cls-12,.cls-24,.cls-25,.cls-29,.cls-4,.cls-6,.cls-7,.cls-8,.cls-9{stroke:#50aaff;}.cls-13,.cls-16,.cls-20,.cls-24,.cls-25,.cls-26,.cls-27,.cls-28,.cls-29,.cls-30,.cls-38,.cls-4,.cls-7{stroke-linecap:round;}.cls-13,.cls-15,.cls-18,.cls-24,.cls-25,.cls-27,.cls-28,.cls-39,.cls-4,.cls-6,.cls-9{stroke-miterlimit:10;}.cls-13,.cls-16,.cls-17,.cls-18,.cls-20,.cls-21,.cls-24,.cls-26,.cls-27,.cls-38,.cls-4,.cls-7,.cls-8,.cls-9{stroke-width:2px;}.cls-10,.cls-11,.cls-15,.cls-16,.cls-19,.cls-20,.cls-22,.cls-24,.cls-25,.cls-26,.cls-27,.cls-28,.cls-31,.cls-38,.cls-6,.cls-7{fill:none;}.cls-10,.cls-11,.cls-12,.cls-15,.cls-19,.cls-22,.cls-23,.cls-29,.cls-30,.cls-6{stroke-width:3px;}.cls-11,.cls-12,.cls-16,.cls-17,.cls-20,.cls-21,.cls-22,.cls-23,.cls-26,.cls-29,.cls-30,.cls-31,.cls-38,.cls-7,.cls-8{stroke-linejoin:round;}.cls-10,.cls-19{stroke-miterlimit:2.61;}.cls-13,.cls-15,.cls-16,.cls-17,.cls-18,.cls-19,.cls-21,.cls-22,.cls-23,.cls-27,.cls-28,.cls-30,.cls-31{stroke:#1e55eb;}.cls-14,.cls-18,.cls-30{fill:#e6f5ff;}.cls-20{stroke:#fff;}.cls-21,.cls-23{fill:#f0ffd7;}.cls-26{stroke:#e6f5ff;}.cls-31{stroke-width:1.5px;}.cls-32,.cls-39{fill:#44cb67;}.cls-33,.cls-37{fill:#3181ff;}.cls-34{fill:#1e55eb;}.cls-35,.cls-36{fill:#85e870;}.cls-35,.cls-37{opacity:0.15;}.cls-38{stroke:#3181ff;}.cls-39{stroke:#44cb67;}.cls-40{fill:#3648a8;}</style></defs><title>jobs_riga</title><g id="sf"><g class="cls-1"><path class="cls-2" d="M49.41,36A572,572,0,0,0,9.47,82l98.36,77a458.45,458.45,0,0,1,32.06-36.94Z"/></g><g class="cls-1"><circle class="cls-2" cx="140.6" cy="57" r="40.82"/></g><g class="cls-3"><path class="cls-4" d="M143.25,93.49h-.19a1.94,1.94,0,0,0,0-.24A6.23,6.23,0,0,0,133.51,88a9.92,9.92,0,0,0-18.12,4.49,6.14,6.14,0,0,0,0,12.22v0h27.84a5.62,5.62,0,0,0,0-11.24Z"/><path class="cls-5" d="M84.62,113.13l.43-8.59c.07-1.82.06-3.64,0-5.45L84.09,81a10.41,10.41,0,0,0-.85-3.59l-1.68-3.86a6.22,6.22,0,0,0-3.75-3.44l-7.9-2.63a2.28,2.28,0,0,1-1.54-2l-.43-6.79a1.42,1.42,0,0,0-1.42-1.33h0a1.42,1.42,0,0,0-1.43,1.42V71.57A2.83,2.83,0,0,0,66.45,74l7.42,4.52a2,2,0,0,1,.93,1.88L73,98.74c-.2,2-.31,3.91-.35,5.87l-.29,15.57.48,12.11h50.64l.24-12.11-.29-15.57c0-2-.15-3.92-.35-5.87L121.2,80.39a2,2,0,0,1,.93-1.88L129.55,74a2.83,2.83,0,0,0,1.36-2.42V58.8a1.42,1.42,0,0,0-1.43-1.42h0a1.42,1.42,0,0,0-1.42,1.33l-.43,6.79a2.28,2.28,0,0,1-1.54,2l-7.9,2.63a6.22,6.22,0,0,0-3.75,3.44l-1.68,3.86a10.41,10.41,0,0,0-.85,3.59L111,99.09c-.1,1.81-.11,3.63,0,5.45l.62,8.49"/><path class="cls-6" d="M72.61,104.61l-.29,15.57.48,12.11h50.64l.24-12.11-.29-15.57c0-2-.15-3.92-.35-5.87L121.2,80.39a2,2,0,0,1,.93-1.88L129.55,74a2.83,2.83,0,0,0,1.36-2.42V58.8a1.42,1.42,0,0,0-1.43-1.42h0a1.42,1.42,0,0,0-1.42,1.33l-.43,6.79a2.28,2.28,0,0,1-1.54,2l-7.9,2.63a6.22,6.22,0,0,0-3.75,3.44l-1.68,3.86a10.41,10.41,0,0,0-.85,3.59L111,99.09c-.1,1.81-.11,3.63,0,5.45l.62,8.49"/><line class="cls-7" x1="75.37" y1="89.74" x2="72.38" y2="89.44"/><line class="cls-7" x1="74.84" y1="95.03" x2="71.85" y2="94.74"/><line class="cls-7" x1="74.37" y1="100.3" x2="71.38" y2="100.07"/><path class="cls-6" d="M84.62,113.13l.43-8.59c.07-1.82.06-3.64,0-5.45L84.09,81a10.41,10.41,0,0,0-.85-3.59l-1.68-3.86a6.22,6.22,0,0,0-3.75-3.44l-7.9-2.63a2.28,2.28,0,0,1-1.54-2l-.43-6.79a1.42,1.42,0,0,0-1.42-1.33h0a1.42,1.42,0,0,0-1.43,1.42V71.57A2.83,2.83,0,0,0,66.45,74l7.42,4.52a2,2,0,0,1,.93,1.88l-.48,4.79"/><polygon class="cls-8" points="84.32 117.62 73.97 136.02 122.03 136.02 109.82 117.53 84.32 117.62"/><polygon class="cls-9" points="89.86 122.73 89.86 138.9 105.62 138.9 105.62 121.92 89.86 122.73"/><path class="cls-5" d="M98.43,87.28c9,0,15.41,6.11,14.24,20.27-.38,4.32-1,8.32-3.41,11.62-3.05,4.22-9.22,6.21-10.1,6.21h-.73"/><path class="cls-5" d="M98.43,87.28c-9,0-15.41,6.11-14.24,20.27.38,4.32,1,8.32,3.41,11.62,3.05,4.22,9.22,6.21,10.1,6.21h.73"/><path class="cls-10" d="M98.43,87.28c-9,0-15.41,6.11-14.24,20.27.38,4.32,1,8.32,3.41,11.62,1.66,2.29,4.71,3.93,7.15,4.94a10.07,10.07,0,0,0,7.86-.06,16.46,16.46,0,0,0,6.65-4.88c2.38-3.3,3-7.3,3.41-11.62C113.84,93.39,107.47,87.28,98.43,87.28Z"/><path class="cls-5" d="M97.43,86.28c-9,0-15.41,6.11-14.24,20.27.38,4.32,1,8.32,3.41,11.62,3.05,4.22,9.22,6.21,10.1,6.21h1.46c.88,0,7-2,10.1-6.21,2.38-3.3,3-7.3,3.41-11.62C112.84,92.39,106.47,86.28,97.43,86.28Z"/><path class="cls-10" d="M97.43,86.28c-9,0-15.41,6.11-14.24,20.27.38,4.32,1,8.32,3.41,11.62,1.66,2.29,4.71,3.93,7.15,4.94a10.07,10.07,0,0,0,7.86-.06,16.46,16.46,0,0,0,6.65-4.88c2.38-3.3,3-7.3,3.41-11.62C112.84,92.39,106.47,86.28,97.43,86.28Z"/><path class="cls-8" d="M97.45,89.67a21.1,21.1,0,0,1-15.81,8.51C82.81,88.92,89.49,84,97.45,84Z"/><path class="cls-8" d="M81.9,99.86v5a1.81,1.81,0,0,0,2.57,1.64h0a1.8,1.8,0,0,0,1-1.64v-5a1.81,1.81,0,0,0-2.11-1.78h0A1.81,1.81,0,0,0,81.9,99.86Z"/><path class="cls-8" d="M82.68,108.1v4.2a1.53,1.53,0,0,0,2.17,1.39h0a1.53,1.53,0,0,0,.89-1.39v-4.2A1.53,1.53,0,0,0,84,106.59h0A1.53,1.53,0,0,0,82.68,108.1Z"/><path class="cls-8" d="M83.33,115.67l1.92,3.15a2.19,2.19,0,0,0,2.92.78h0l-1.82-4.47a1.54,1.54,0,0,0-2-1.17h0A1.53,1.53,0,0,0,83.33,115.67Z"/><path class="cls-8" d="M112.06,115.67l-1.92,3.15a2.18,2.18,0,0,1-2.91.78h0l1.82-4.47a1.53,1.53,0,0,1,2-1.17h0A1.52,1.52,0,0,1,112.06,115.67Z"/><path class="cls-8" d="M109.5,99.86v5a1.81,1.81,0,0,0,2.56,1.64h0a1.81,1.81,0,0,0,1-1.64v-5A1.81,1.81,0,0,0,111,98.08h0A1.81,1.81,0,0,0,109.5,99.86Z"/><path class="cls-8" d="M109.28,108.1v4.2a1.53,1.53,0,0,0,2.17,1.39h0a1.53,1.53,0,0,0,.89-1.39v-4.2a1.53,1.53,0,0,0-1.79-1.51h0A1.53,1.53,0,0,0,109.28,108.1Z"/><path class="cls-8" d="M97.3,89.67a21.1,21.1,0,0,0,15.81,8.51C112,88.92,105.27,84,97.3,84Z"/><line class="cls-7" x1="88.78" y1="99.92" x2="88.78" y2="113.76"/><polygon class="cls-8" points="89.4 39.28 90.38 48.24 98.32 52.5 90.11 56.2 88.5 65.06 82.44 58.4 73.52 59.61 77.98 51.79 74.08 43.68 82.89 45.51 89.4 39.28"/><polygon class="cls-11" points="89.4 39.28 90.38 48.24 98.32 52.5 90.11 56.2 88.5 65.06 82.44 58.4 73.52 59.61 77.98 51.79 74.08 43.68 82.89 45.51 89.4 39.28"/><polygon class="cls-8" points="106.6 39.28 113.11 45.51 121.92 43.68 118.02 51.79 122.48 59.61 113.56 58.4 107.5 65.06 105.89 56.2 97.68 52.5 105.62 48.24 106.6 39.28"/><polygon class="cls-11" points="106.6 39.28 113.11 45.51 121.92 43.68 118.02 51.79 122.48 59.61 113.56 58.4 107.5 65.06 105.89 56.2 97.68 52.5 105.62 48.24 106.6 39.28"/><polygon class="cls-12" points="97.9 14.03 101.88 22.11 110.8 23.4 104.35 29.69 105.87 38.56 97.9 34.37 89.92 38.56 91.45 29.69 85 23.4 93.91 22.11 97.9 14.03"/><polygon class="cls-11" points="97.9 14.03 101.88 22.11 110.8 23.4 104.35 29.69 105.87 38.56 97.9 34.37 89.92 38.56 91.45 29.69 85 23.4 93.91 22.11 97.9 14.03"/></g><path class="cls-13" d="M140.25,90.49h-.19a1.94,1.94,0,0,0,0-.24A6.23,6.23,0,0,0,130.51,85a9.92,9.92,0,0,0-18.12,4.49,6.14,6.14,0,0,0,0,12.22v0h27.84a5.62,5.62,0,0,0,0-11.24Z"/><path class="cls-14" d="M81.62,110.13l.43-8.59c.07-1.82.06-3.64,0-5.45L81.09,78a10.41,10.41,0,0,0-.85-3.59l-1.68-3.86a6.22,6.22,0,0,0-3.75-3.44l-7.9-2.63a2.28,2.28,0,0,1-1.54-2l-.43-6.79a1.42,1.42,0,0,0-1.42-1.33h0a1.42,1.42,0,0,0-1.43,1.42V68.57A2.83,2.83,0,0,0,63.45,71l7.42,4.52a2,2,0,0,1,.93,1.88L70,95.74c-.2,2-.31,3.91-.35,5.87l-.29,15.57.48,12.11h50.64l.24-12.11-.29-15.57c0-2-.15-3.92-.35-5.87L118.2,77.39a2,2,0,0,1,.93-1.88L126.55,71a2.83,2.83,0,0,0,1.36-2.42V55.8a1.42,1.42,0,0,0-1.43-1.42h0a1.42,1.42,0,0,0-1.42,1.33l-.43,6.79a2.28,2.28,0,0,1-1.54,2l-7.9,2.63a6.22,6.22,0,0,0-3.75,3.44l-1.68,3.86a10.41,10.41,0,0,0-.85,3.59L108,96.09c-.1,1.81-.11,3.63,0,5.45l.62,8.49"/><path class="cls-15" d="M69.61,101.61l-.29,15.57.48,12.11h50.64l.24-12.11-.29-15.57c0-2-.15-3.92-.35-5.87L118.2,77.39a2,2,0,0,1,.93-1.88L126.55,71a2.83,2.83,0,0,0,1.36-2.42V55.8a1.42,1.42,0,0,0-1.43-1.42h0a1.42,1.42,0,0,0-1.42,1.33l-.43,6.79a2.28,2.28,0,0,1-1.54,2l-7.9,2.63a6.22,6.22,0,0,0-3.75,3.44l-1.68,3.86a10.41,10.41,0,0,0-.85,3.59L108,96.09c-.1,1.81-.11,3.63,0,5.45l.62,8.49"/><line class="cls-16" x1="72.37" y1="86.74" x2="69.38" y2="86.44"/><line class="cls-16" x1="71.84" y1="92.03" x2="68.85" y2="91.74"/><line class="cls-16" x1="71.37" y1="97.3" x2="68.38" y2="97.07"/><path class="cls-15" d="M81.62,110.13l.43-8.59c.07-1.82.06-3.64,0-5.45L81.09,78a10.41,10.41,0,0,0-.85-3.59l-1.68-3.86a6.22,6.22,0,0,0-3.75-3.44l-7.9-2.63a2.28,2.28,0,0,1-1.54-2l-.43-6.79a1.42,1.42,0,0,0-1.42-1.33h0a1.42,1.42,0,0,0-1.43,1.42V68.57A2.83,2.83,0,0,0,63.45,71l7.42,4.52a2,2,0,0,1,.93,1.88l-.48,4.79"/><polygon class="cls-17" points="81.32 114.62 70.97 133.02 119.03 133.02 106.82 114.53 81.32 114.62"/><polygon class="cls-18" points="86.86 119.73 86.86 135.9 102.62 135.9 102.62 118.92 86.86 119.73"/><g class="cls-3"><path class="cls-5" d="M95.43,84.28c9,0,15.41,6.11,14.24,20.27-.38,4.32-1,8.32-3.41,11.62-3.05,4.22-9.22,6.21-10.1,6.21h-.73"/><path class="cls-5" d="M95.43,84.28c-9,0-15.41,6.11-14.24,20.27.38,4.32,1,8.32,3.41,11.62,3.05,4.22,9.22,6.21,10.1,6.21h.73"/><path class="cls-10" d="M95.43,84.28c-9,0-15.41,6.11-14.24,20.27.38,4.32,1,8.32,3.41,11.62,1.66,2.29,4.71,3.93,7.15,4.94a10.07,10.07,0,0,0,7.86-.06,16.46,16.46,0,0,0,6.65-4.88c2.38-3.3,3-7.3,3.41-11.62C110.84,90.39,104.47,84.28,95.43,84.28Z"/></g><path class="cls-14" d="M94.43,83.28c-9,0-15.41,6.11-14.24,20.27.38,4.32,1,8.32,3.41,11.62,3.05,4.22,9.22,6.21,10.1,6.21h1.46c.88,0,7-2,10.1-6.21,2.38-3.3,3-7.3,3.41-11.62C109.84,89.39,103.47,83.28,94.43,83.28Z"/><path class="cls-19" d="M94.43,83.28c-9,0-15.41,6.11-14.24,20.27.38,4.32,1,8.32,3.41,11.62,1.66,2.29,4.71,3.93,7.15,4.94a10.07,10.07,0,0,0,7.86-.06,16.46,16.46,0,0,0,6.65-4.88c2.38-3.3,3-7.3,3.41-11.62C109.84,89.39,103.47,83.28,94.43,83.28Z"/><path class="cls-17" d="M94.45,86.67a21.1,21.1,0,0,1-15.81,8.51C79.81,85.92,86.49,81,94.45,81Z"/><path class="cls-17" d="M78.9,96.86v5a1.81,1.81,0,0,0,2.57,1.64h0a1.8,1.8,0,0,0,1-1.64v-5a1.81,1.81,0,0,0-2.11-1.78h0A1.81,1.81,0,0,0,78.9,96.86Z"/><path class="cls-17" d="M79.68,105.1v4.2a1.53,1.53,0,0,0,2.17,1.39h0a1.53,1.53,0,0,0,.89-1.39v-4.2A1.53,1.53,0,0,0,81,103.59h0A1.53,1.53,0,0,0,79.68,105.1Z"/><path class="cls-17" d="M80.33,112.67l1.92,3.15a2.19,2.19,0,0,0,2.92.78h0l-1.82-4.47a1.54,1.54,0,0,0-2-1.17h0A1.53,1.53,0,0,0,80.33,112.67Z"/><path class="cls-17" d="M109.06,112.67l-1.92,3.15a2.18,2.18,0,0,1-2.91.78h0l1.82-4.47a1.53,1.53,0,0,1,2-1.17h0A1.52,1.52,0,0,1,109.06,112.67Z"/><path class="cls-17" d="M106.5,96.86v5a1.81,1.81,0,0,0,2.56,1.64h0a1.81,1.81,0,0,0,1-1.64v-5A1.81,1.81,0,0,0,108,95.08h0A1.81,1.81,0,0,0,106.5,96.86Z"/><path class="cls-17" d="M106.28,105.1v4.2a1.53,1.53,0,0,0,2.17,1.39h0a1.53,1.53,0,0,0,.89-1.39v-4.2a1.53,1.53,0,0,0-1.79-1.51h0A1.53,1.53,0,0,0,106.28,105.1Z"/><path class="cls-17" d="M94.3,86.67a21.1,21.1,0,0,0,15.81,8.51C109,85.92,102.27,81,94.3,81Z"/><line class="cls-20" x1="85.78" y1="96.92" x2="85.78" y2="110.76"/><polygon class="cls-21" points="86.4 36.28 87.38 45.24 95.32 49.5 87.11 53.2 85.5 62.06 79.44 55.4 70.52 56.61 74.98 48.79 71.08 40.68 79.89 42.51 86.4 36.28"/><polygon class="cls-22" points="86.4 36.28 87.38 45.24 95.32 49.5 87.11 53.2 85.5 62.06 79.44 55.4 70.52 56.61 74.98 48.79 71.08 40.68 79.89 42.51 86.4 36.28"/><polygon class="cls-21" points="103.6 36.28 110.11 42.51 118.92 40.68 115.02 48.79 119.48 56.61 110.56 55.4 104.5 62.06 102.89 53.2 94.68 49.5 102.62 45.24 103.6 36.28"/><polygon class="cls-22" points="103.6 36.28 110.11 42.51 118.92 40.68 115.02 48.79 119.48 56.61 110.56 55.4 104.5 62.06 102.89 53.2 94.68 49.5 102.62 45.24 103.6 36.28"/><polygon class="cls-23" points="94.9 11.03 98.88 19.11 107.8 20.4 101.35 26.69 102.87 35.56 94.9 31.37 86.92 35.56 88.45 26.69 82 20.4 90.91 19.11 94.9 11.03"/><polygon class="cls-22" points="94.9 11.03 98.88 19.11 107.8 20.4 101.35 26.69 102.87 35.56 94.9 31.37 86.92 35.56 88.45 26.69 82 20.4 90.91 19.11 94.9 11.03"/><g class="cls-3"><path class="cls-5" d="M88.07,134.3l-2.82-.19a7.53,7.53,0,0,0,.13-1.35,7.39,7.39,0,0,0-10.55-6.68c0-.1,0-.19,0-.29a9.71,9.71,0,0,0-14.41-8.51,13.52,13.52,0,0,0-24.46,8c0,.43,0,.86.06,1.28a8.16,8.16,0,0,0,1,16.25h52Z"/><path class="cls-7" d="M33.22,134.62a3.82,3.82,0,0,1,3.34-3.78l4.2-.51-.4-4.21c0-.28,0-.57,0-.87a9.2,9.2,0,0,1,9.19-9.19"/><path class="cls-24" d="M39.29,116.37A13.47,13.47,0,0,0,36,125.25c0,.43,0,.86.06,1.28a8.16,8.16,0,0,0,1,16.25h52l-1-8.48-2.82-.19a7.53,7.53,0,0,0,.13-1.35,7.39,7.39,0,0,0-10.55-6.68c0-.1,0-.19,0-.29a9.71,9.71,0,0,0-14.41-8.51,13.5,13.5,0,0,0-10.92-5.57"/><path class="cls-25" d="M42.57,113.63a1.5,1.5,0,1,1,2.72-1.24,1.5,1.5,0,0,1-2.72,1.24Z"/></g><path class="cls-2" d="M85.07,131.3l-2.82-.19a7.53,7.53,0,0,0,.13-1.35,7.39,7.39,0,0,0-10.55-6.68c0-.1,0-.19,0-.29a9.71,9.71,0,0,0-14.41-8.51,13.52,13.52,0,0,0-24.46,8c0,.43,0,.86.06,1.28a8.16,8.16,0,0,0,1,16.25h52Z"/><path class="cls-26" d="M30.22,131.62a3.82,3.82,0,0,1,3.34-3.78l4.2-.51-.4-4.21c0-.28,0-.57,0-.87a9.2,9.2,0,0,1,9.19-9.19"/><path class="cls-27" d="M36.29,113.37A13.47,13.47,0,0,0,33,122.25c0,.43,0,.86.06,1.28a8.16,8.16,0,0,0,1,16.25h52l-1-8.48-2.82-.19a7.53,7.53,0,0,0,.13-1.35,7.39,7.39,0,0,0-10.55-6.68c0-.1,0-.19,0-.29a9.71,9.71,0,0,0-14.41-8.51,13.5,13.5,0,0,0-10.92-5.57"/><path class="cls-28" d="M39.57,110.63a1.5,1.5,0,1,1,2.72-1.24,1.5,1.5,0,0,1-2.72,1.24Z"/><g class="cls-3"><path class="cls-29" d="M164.32,137.41a7.15,7.15,0,0,0-4.8-6.75c0-.31,0-.61,0-.92a10.69,10.69,0,0,0-16.41-9,12,12,0,0,0-22.87,4.92c0,.08,0,.16,0,.24a8.25,8.25,0,0,0-13.64,4.41,5.75,5.75,0,0,0-2.64-.64,5.88,5.88,0,0,0-5.11,3,8.26,8.26,0,1,0-8.26,11.89v.05h66.67A7.15,7.15,0,0,0,164.32,137.41Z"/></g><path class="cls-30" d="M149.2,142h5.53a7.14,7.14,0,0,0,2.2-13.89c0-.31,0-.61,0-.92a10.7,10.7,0,0,0-10.7-10.7,10.58,10.58,0,0,0-5.71,1.66A12,12,0,0,0,117.7,123c0,.08,0,.16,0,.24a8.25,8.25,0,0,0-13.64,4.4A5.86,5.86,0,0,0,96.32,130a8.26,8.26,0,1,0-8.26,11.89V142h38.33"/><line class="cls-31" x1="129.36" y1="140.47" x2="129.36" y2="143.47"/><line class="cls-31" x1="132.17" y1="140.47" x2="132.17" y2="143.47"/><line class="cls-31" x1="134.98" y1="140.47" x2="134.98" y2="143.47"/><line class="cls-31" x1="137.79" y1="140.47" x2="137.79" y2="143.47"/><line class="cls-31" x1="140.61" y1="140.47" x2="140.61" y2="143.47"/><line class="cls-31" x1="143.42" y1="140.47" x2="143.42" y2="143.47"/><line class="cls-31" x1="146.23" y1="140.47" x2="146.23" y2="143.47"/><g id="sparkles"><circle class="cls-32" cx="187.6" cy="36.66" r="3.12"/><circle class="cls-33" cx="67.2" cy="1.91" r="1.91"/><rect class="cls-34" x="1.17" y="85.13" width="3.8" height="3.8" transform="translate(-60.64 27.66) rotate(-45)"/><circle class="cls-35" cx="26.59" cy="31.59" r="4.33"/><circle class="cls-36" cx="24.68" cy="29.68" r="4.33"/><circle class="cls-37" cx="171.47" cy="115.62" r="3.12"/><circle class="cls-33" cx="170.2" cy="114.34" r="3.12"/><circle class="cls-36" cx="58.78" cy="152.99" r="1.75"/><line class="cls-38" x1="45.95" y1="90.14" x2="43.64" y2="88.23"/><line class="cls-38" x1="39.67" y1="93.04" x2="39.72" y2="90.04"/><line class="cls-38" x1="33.49" y1="89.94" x2="35.86" y2="88.1"/><line class="cls-38" x1="32.06" y1="83.16" x2="34.97" y2="83.88"/><line class="cls-38" x1="36.47" y1="77.83" x2="37.72" y2="80.55"/><line class="cls-38" x1="43.38" y1="77.94" x2="42.03" y2="80.62"/><line class="cls-38" x1="47.6" y1="83.42" x2="44.67" y2="84.04"/><circle class="cls-39" cx="140.6" cy="26.03" r="1.75"/><circle class="cls-34" cx="81.8" cy="158.73" r="1.27"/><path class="cls-40" d="M157.49,74.61a1,1,0,0,1-1-.88,1,1,0,0,1,.88-1.11,6.69,6.69,0,0,0,5-3.47,1,1,0,1,1,1.76.94,8.67,8.67,0,0,1-6.55,4.51Z"/><path class="cls-40" d="M152.91,73.78a1,1,0,0,1-.47-.12,8.73,8.73,0,0,1-4.52-6.56,1,1,0,0,1,2-.23,6.67,6.67,0,0,0,3.47,5,1,1,0,0,1-.47,1.89Z"/><path class="cls-40" d="M149.75,63.41a1,1,0,0,1-.88-1.47,8.66,8.66,0,0,1,6.56-4.52,1,1,0,0,1,1.11.88,1,1,0,0,1-.88,1.11,6.67,6.67,0,0,0-5,3.46A1,1,0,0,1,149.75,63.41Z"/><path class="cls-40" d="M164.12,66a1,1,0,0,1-1-.88,6.67,6.67,0,0,0-3.47-5,1,1,0,0,1,.94-1.77,8.73,8.73,0,0,1,4.52,6.56,1,1,0,0,1-.88,1.11Z"/></g></g></svg>