<svg xmlns="http://www.w3.org/2000/svg" viewBox="0 0 190 160"><defs><style>.cls-1{opacity:0.5;}.cls-14,.cls-2{fill:#bbe8ff;}.cls-3{fill:#e628e1;}.cls-4,.cls-8{fill:#3181ff;}.cls-5{fill:#1e55eb;}.cls-6,.cls-7{fill:#a409b8;}.cls-6,.cls-8{opacity:0.15;}.cls-9{fill:#192d9b;}.cls-10,.cls-20,.cls-22,.cls-23,.cls-24,.cls-26{fill:none;}.cls-10{stroke:#192d9b;}.cls-10,.cls-13,.cls-14,.cls-15,.cls-16,.cls-17,.cls-18,.cls-19,.cls-20,.cls-22,.cls-23,.cls-24,.cls-25,.cls-26{stroke-linecap:round;}.cls-10,.cls-15,.cls-16,.cls-17,.cls-18,.cls-19,.cls-20,.cls-22,.cls-23,.cls-24,.cls-25{stroke-linejoin:round;}.cls-10,.cls-13,.cls-14,.cls-16,.cls-18,.cls-19,.cls-23,.cls-24{stroke-width:2px;}.cls-11{fill:#4b91ff;}.cls-12{opacity:0.3;}.cls-13,.cls-15,.cls-16,.cls-21{fill:#50aaff;}.cls-13,.cls-15,.cls-16,.cls-18,.cls-22,.cls-23{stroke:#50aaff;}.cls-13,.cls-14,.cls-26{stroke-miterlimit:10;}.cls-14,.cls-17,.cls-20,.cls-24,.cls-25,.cls-26{stroke:#1e55eb;}.cls-15,.cls-17,.cls-20,.cls-22,.cls-25{stroke-width:3px;}.cls-17,.cls-18,.cls-19{fill:#ffebff;}.cls-19{stroke:#ffc8ff;}.cls-25{fill:#e6f5ff;}</style></defs><title>jobs_sf</title><g id="sf"><g id="sf-2" data-name="sf"><g id="BG_shapes" data-name="BG shapes" class="cls-1"><path class="cls-2" d="M118.55.37A78.53,78.53,0,0,1,117,30.12,79.09,79.09,0,0,1-.26,79.2L23,40.19A33.68,33.68,0,0,0,72.92,19.3a33.55,33.55,0,0,0,.66-12.65Z"/><path class="cls-2" d="M189.49,73.09a571.69,571.69,0,0,0-44.2-42l-81.38,94.8a459.74,459.74,0,0,1,35.47,33.69Z"/></g><g id="Sparkles"><circle class="cls-3" cx="187.22" cy="51.9" r="3.12"/><circle class="cls-4" cx="64.07" cy="150.99" r="1.91"/><rect class="cls-5" x="0.79" y="23.48" width="3.8" height="3.8" transform="translate(-17.16 9.34) rotate(-45)"/><circle class="cls-6" cx="51.23" cy="47.74" r="4.33"/><circle class="cls-7" cx="49.33" cy="45.84" r="4.33"/><circle class="cls-8" cx="158.39" cy="90.05" r="3.12"/><circle class="cls-4" cx="157.12" cy="88.78" r="3.12"/><circle class="cls-9" cx="60.77" cy="1.75" r="1.75"/><line class="cls-10" x1="35.13" y1="80.81" x2="32.82" y2="78.9"/><line class="cls-10" x1="28.85" y1="83.7" x2="28.9" y2="80.7"/><line class="cls-10" x1="22.67" y1="80.6" x2="25.04" y2="78.77"/><line class="cls-10" x1="21.24" y1="73.83" x2="24.15" y2="74.55"/><line class="cls-10" x1="25.65" y1="68.5" x2="26.9" y2="71.22"/><line class="cls-10" x1="32.56" y1="68.61" x2="31.21" y2="71.29"/><line class="cls-10" x1="36.78" y1="74.09" x2="33.85" y2="74.71"/><circle class="cls-3" cx="166.32" cy="103.87" r="1.75"/><circle class="cls-5" cx="43.4" cy="158.73" r="1.27"/><path class="cls-11" d="M146.64,37.52a1,1,0,0,1-.12-2,6.67,6.67,0,0,0,5-3.47,1,1,0,1,1,1.77.94,8.69,8.69,0,0,1-6.56,4.51Z"/><path class="cls-11" d="M142.06,36.69a1,1,0,0,1-.47-.12A8.69,8.69,0,0,1,137.08,30,1,1,0,0,1,138,28.9a1,1,0,0,1,1.11.88,6.67,6.67,0,0,0,3.47,5,1,1,0,0,1,.42,1.36A1,1,0,0,1,142.06,36.69Z"/><path class="cls-11" d="M138.9,26.32a1,1,0,0,1-.88-1.47,8.68,8.68,0,0,1,6.56-4.52,1,1,0,0,1,1.11.88,1,1,0,0,1-.88,1.11,6.64,6.64,0,0,0-5,3.46A1,1,0,0,1,138.9,26.32Z"/><path class="cls-11" d="M153.27,29a1,1,0,0,1-1-.88,6.67,6.67,0,0,0-3.47-5,1,1,0,1,1,.93-1.77,8.68,8.68,0,0,1,4.52,6.56,1,1,0,0,1-.87,1.11Z"/></g><g id="gg_bridge"><g class="cls-12"><path class="cls-13" d="M148.71,65.32h-.22a2.46,2.46,0,0,0,0-.28A7.21,7.21,0,0,0,137.43,59a11.48,11.48,0,0,0-21,5.19,7.1,7.1,0,0,0,0,14.15v0h32.24a6.51,6.51,0,0,0,0-13Z"/></g><path class="cls-14" d="M146.71,63.32h-.22a2.46,2.46,0,0,0,0-.28A7.21,7.21,0,0,0,135.43,57a11.48,11.48,0,0,0-21,5.19,7.1,7.1,0,0,0,0,14.15v0h32.24a6.51,6.51,0,0,0,0-13Z"/><g class="cls-12"><path class="cls-15" d="M125,110.16V67.74h-3V28.38h-2V19.55h-8v8.83h-2v2.3H86v-2.3H84V19.55H76v8.83H74V67.74H71v42.42H68v24.47H86V122h24v12.59h18V110.16Zm-15-9.7V110H86v-30h24v8.59m0-46V68.07H86V42.68Z"/><line class="cls-16" x1="87.5" y1="35.68" x2="87.5" y2="37.68"/><line class="cls-16" x1="98" y1="35.68" x2="98" y2="37.68"/><line class="cls-16" x1="92.75" y1="35.68" x2="92.75" y2="37.68"/><line class="cls-16" x1="103.25" y1="35.68" x2="103.25" y2="37.68"/><line class="cls-16" x1="108.5" y1="35.68" x2="108.5" y2="37.68"/><line class="cls-16" x1="87.5" y1="73.07" x2="87.5" y2="75.07"/><line class="cls-16" x1="98" y1="73.07" x2="98" y2="75.07"/><line class="cls-16" x1="92.75" y1="73.07" x2="92.75" y2="75.07"/><line class="cls-16" x1="103.25" y1="73.07" x2="103.25" y2="75.07"/><line class="cls-16" x1="108.5" y1="73.07" x2="108.5" y2="75.07"/><line class="cls-16" x1="87.5" y1="115.04" x2="87.5" y2="117.04"/><line class="cls-16" x1="98" y1="115.04" x2="98" y2="117.04"/><line class="cls-16" x1="92.75" y1="115.04" x2="92.75" y2="117.04"/><line class="cls-16" x1="103.25" y1="115.04" x2="103.25" y2="117.04"/><line class="cls-16" x1="108.5" y1="115.04" x2="108.5" y2="117.04"/><line class="cls-16" x1="72.01" y1="114.16" x2="72.01" y2="129.63"/><line class="cls-16" x1="75.01" y1="71.74" x2="75.01" y2="110.16"/><line class="cls-16" x1="78.01" y1="32.38" x2="78.01" y2="67.74"/><line class="cls-16" x1="80.01" y1="23.55" x2="80.01" y2="28.38"/></g><path class="cls-17" d="M122,107.16V64.74h-3V25.38h-2V16.55h-8v8.83h-2v2.3H83v-2.3H81V16.55H73v8.83H71V64.74H68v42.42H65v24.47H83V119h24v12.59h18V107.16Zm-15-9.7V107H83v-30h24v8.59m0-46V65.07H83V39.68Z"/><line class="cls-18" x1="84.5" y1="32.68" x2="84.5" y2="34.68"/><line class="cls-18" x1="95" y1="32.68" x2="95" y2="34.68"/><line class="cls-18" x1="89.75" y1="32.68" x2="89.75" y2="34.68"/><line class="cls-18" x1="100.25" y1="32.68" x2="100.25" y2="34.68"/><line class="cls-18" x1="105.5" y1="32.68" x2="105.5" y2="34.68"/><line class="cls-18" x1="84.5" y1="70.07" x2="84.5" y2="72.07"/><line class="cls-18" x1="95" y1="70.07" x2="95" y2="72.07"/><line class="cls-18" x1="89.75" y1="70.07" x2="89.75" y2="72.07"/><line class="cls-18" x1="100.25" y1="70.07" x2="100.25" y2="72.07"/><line class="cls-18" x1="105.5" y1="70.07" x2="105.5" y2="72.07"/><line class="cls-18" x1="84.5" y1="112.04" x2="84.5" y2="114.04"/><line class="cls-18" x1="95" y1="112.04" x2="95" y2="114.04"/><line class="cls-18" x1="89.75" y1="112.04" x2="89.75" y2="114.04"/><line class="cls-18" x1="100.25" y1="112.04" x2="100.25" y2="114.04"/><line class="cls-18" x1="105.5" y1="112.04" x2="105.5" y2="114.04"/><line class="cls-19" x1="69.01" y1="111.16" x2="69.01" y2="126.63"/><line class="cls-19" x1="72.01" y1="68.74" x2="72.01" y2="107.16"/><line class="cls-19" x1="75.01" y1="29.38" x2="75.01" y2="64.74"/><line class="cls-19" x1="77.01" y1="20.55" x2="77.01" y2="25.38"/><path class="cls-20" d="M71,26.38C69,54,54.48,108,19,131.63"/><line class="cls-14" x1="29" y1="123.03" x2="29" y2="131.63"/><line class="cls-14" x1="39" y1="114.04" x2="39" y2="131.63"/><line class="cls-14" x1="49" y1="97.46" x2="49" y2="131.63"/><line class="cls-14" x1="59" y1="77" x2="59" y2="131.63"/><path class="cls-20" d="M119,26.38C121,54,135.52,108,171,131.63"/><line class="cls-14" x1="161" y1="123.03" x2="161" y2="131.63"/><line class="cls-14" x1="151" y1="114.04" x2="151" y2="131.63"/><line class="cls-14" x1="141" y1="97.46" x2="141" y2="131.63"/><line class="cls-14" x1="131" y1="77" x2="131" y2="131.63"/><g class="cls-12"><path class="cls-21" d="M102.48,141.33,86.1,133.6a9.73,9.73,0,0,0-13.26-14.23,12.36,12.36,0,0,0-9.93-5c-.44,0-.86,0-1.28.06a13.86,13.86,0,0,0-27.44,2.75c0,.1,0,.19,0,.29a8.11,8.11,0,0,0-.86,0,9.69,9.69,0,0,0-9.69,9.69,9.36,9.36,0,0,0,.12,1.41,6.48,6.48,0,0,0,1.41,12.81h77.3Z"/><path class="cls-22" d="M34.19,117.18c0,.1,0,.19,0,.29a8.11,8.11,0,0,0-.86,0,9.69,9.69,0,0,0-9.69,9.69,9.36,9.36,0,0,0,.12,1.41,6.48,6.48,0,0,0,1.41,12.81h77.3L86.1,133.6a9.73,9.73,0,0,0-13.26-14.23,12.36,12.36,0,0,0-9.93-5c-.44,0-.86,0-1.28.06a13.87,13.87,0,0,0-13.58-11.11"/><line class="cls-23" x1="43.73" y1="105.61" x2="42.68" y2="102.8"/><line class="cls-23" x1="39.31" y1="108.44" x2="37.19" y2="106.32"/><line class="cls-23" x1="36.48" y1="112.87" x2="33.67" y2="111.82"/><path class="cls-15" d="M177.32,138.05a8.29,8.29,0,0,0-5.56-7.82c0-.35.05-.7.05-1.06a12.38,12.38,0,0,0-19-10.47,13.85,13.85,0,0,0-26.48,5.71c0,.09,0,.18,0,.27a9.56,9.56,0,0,0-15.8,5.1,6.78,6.78,0,0,0-9,2.73A9.57,9.57,0,1,0,92,146.28v.05h77.21A8.29,8.29,0,0,0,177.32,138.05Z"/></g><path class="cls-2" d="M99.48,138.33,83.1,130.6a9.73,9.73,0,0,0-13.26-14.23,12.36,12.36,0,0,0-9.93-5c-.44,0-.86,0-1.28.06a13.86,13.86,0,0,0-27.44,2.75c0,.1,0,.19,0,.29a8.11,8.11,0,0,0-.86,0,9.69,9.69,0,0,0-9.69,9.69,9.36,9.36,0,0,0,.12,1.41,6.48,6.48,0,0,0,1.41,12.81h77.3Z"/><path class="cls-20" d="M31.19,114.18c0,.1,0,.19,0,.29a8.11,8.11,0,0,0-.86,0,9.69,9.69,0,0,0-9.69,9.69,9.36,9.36,0,0,0,.12,1.41,6.48,6.48,0,0,0,1.41,12.81h77.3L83.1,130.6a9.73,9.73,0,0,0-13.26-14.23,12.36,12.36,0,0,0-9.93-5c-.44,0-.86,0-1.28.06a13.87,13.87,0,0,0-13.58-11.11"/><line class="cls-24" x1="40.73" y1="102.61" x2="39.68" y2="99.8"/><line class="cls-24" x1="36.31" y1="105.44" x2="34.19" y2="103.32"/><line class="cls-24" x1="33.48" y1="109.87" x2="30.67" y2="108.82"/><path class="cls-25" d="M174.32,135.05a8.29,8.29,0,0,0-5.56-7.82c0-.35.05-.7.05-1.06a12.38,12.38,0,0,0-19-10.47,13.85,13.85,0,0,0-26.48,5.71c0,.09,0,.18,0,.27a9.56,9.56,0,0,0-15.8,5.1,6.78,6.78,0,0,0-9,2.73A9.57,9.57,0,1,0,89,143.28v.05h77.21A8.29,8.29,0,0,0,174.32,135.05Z"/><circle class="cls-26" cx="106.99" cy="91.56" r="1.5"/></g></g></g></svg>