<?xml version="1.0" encoding="UTF-8"?>
<svg width="137px" height="54px" viewBox="0 0 137 54" version="1.1" xmlns="http://www.w3.org/2000/svg" xmlns:xlink="http://www.w3.org/1999/xlink">
    <!-- Generator: Sketch 52.5 (67469) - http://www.bohemiancoding.com/sketch -->
    <title>Sparkles-1 Copy 2</title>
    <desc>Created with Sketch.</desc>
    <g id="Symbols" stroke="none" stroke-width="1" fill="none" fill-rule="evenodd">
        <g id="Sparkles-1" transform="translate(1.000000, 0.000000)">
            <g id="Sparkles-1-Copy-2" transform="translate(1.000000, 0.000000)">
                <ellipse id="Circle-Stroke" stroke="#1E55EB" stroke-width="3" cx="4.5" cy="42.3392857" rx="4.5" ry="4.33928571"></ellipse>
                <polygon id="diamond-copy-4" fill="#5FE1E1" fill-rule="nonzero" transform="translate(67.608555, 4.745697) rotate(-45.000000) translate(-67.608555, -4.745697) " points="64.3205549 1.45769666 70.9642692 1.38998238 70.8965549 8.0336967 64.2528406 8.10141098"></polygon>
                <g id="Sparkle---Burst-Copy" transform="translate(93.000000, 11.000000)" fill="#3181FF" fill-rule="nonzero">
                    <path d="M39.2670021,32.8730932 C38.9002412,32.8724989 38.5382941,32.7882256 38.2078789,32.6264945 L31.5883589,29.4207108 C30.3697389,28.8016529 29.8757956,27.2961163 30.4851056,26.0580006 C31.0944156,24.8198849 32.5762456,24.3180394 33.7948656,24.9370972 L40.4143856,28.1428809 C41.4707933,28.6316708 42.0443954,29.8067596 41.7880619,30.9570119 C41.5317283,32.1072641 40.515871,32.9167179 39.3552624,32.8955113 L39.2670021,32.8730932 Z" id="Shape"></path>
                    <path d="M26.4598993,42.2947522 C25.2619669,42.2854738 24.225237,41.5246992 23.9471781,40.4508634 L22.1557008,33.482679 C21.9437418,32.6515715 22.2290228,31.7793895 22.9040812,31.1946756 C23.5791396,30.6099616 24.541418,30.4015476 25.4284354,30.6479411 C26.3154529,30.8943346 26.9924503,31.5581026 27.2044093,32.3892101 L28.9958865,39.3573945 C29.1728115,40.0693983 28.9884605,40.8169037 28.4949731,41.3884954 C28.0014856,41.9600871 27.2525181,42.2936165 26.4598993,42.2947522 Z" id="Shape"></path>
                    <path d="M10.5413129,38.7700808 C9.62351533,38.7788425 8.78239404,38.2574253 8.37926981,37.4298144 C7.97614557,36.6022036 8.08278257,35.6157304 8.65337272,34.8941545 L13.094323,29.2309956 C13.5954509,28.5006776 14.4582367,28.1088491 15.3356134,28.2131284 C16.2129901,28.3174076 16.9607344,28.9006532 17.2780563,29.7282468 C17.5953783,30.5558403 17.4301164,31.4917421 16.8487495,32.1594732 L12.4077993,37.8226321 C11.964511,38.410459 11.2757602,38.7600763 10.5413129,38.7700808 Z" id="Shape"></path>
                    <path d="M2.32701951,23.4970845 C1.04184212,23.4970845 0,22.4450842 0,21.1473761 C0,19.8496679 1.04184212,18.7976676 2.32701951,18.7976676 L9.29764296,18.7976676 C10.5828203,18.7976676 11.6246625,19.8496679 11.6246625,21.1473761 C11.6246625,22.4450842 10.5828203,23.4970845 9.29764296,23.4970845 L2.32701951,23.4970845 Z" id="Shape"></path>
                    <path d="M13.8783242,15.2509441 C13.1548337,15.2566081 12.4680535,14.9265533 12.0118061,14.3539273 L7.5064176,8.66552794 C6.67699848,7.62033639 6.83548735,6.08736884 7.86041242,5.24154909 C8.88533748,4.39572934 10.3885805,4.55735212 11.2179996,5.60254367 L15.7233881,11.290943 C16.3185794,12.0201231 16.4428776,13.035993 16.0416396,13.8919619 C15.6404015,14.7479308 14.7871046,15.2872482 13.85687,15.2728226 L13.8783242,15.2509441 Z" id="Shape"></path>
                    <path d="M24.278279,11.7484266 L23.807556,11.7484266 C23.2389131,11.6148232 22.7426873,11.237457 22.4295057,10.7004567 C22.1163241,10.1634565 22.0122236,9.51146677 22.1404121,8.88984012 L23.5721945,1.88307923 C23.7403677,1.04609479 24.3032412,0.371006903 25.0487861,0.112114636 C25.7943309,-0.146777631 26.6092812,0.0498576203 27.186653,0.627949793 C27.7640247,1.20604197 28.0161015,2.07776511 27.8479284,2.91474955 L26.4161459,9.92151044 C26.1786937,11.0017305 25.2921763,11.7593047 24.278279,11.7484266 Z" id="Shape"></path>
                    <path d="M32.7074822,18.7976364 C31.5486806,18.7830138 30.5499365,17.9823757 30.2889591,16.8588398 C30.0279816,15.7353038 30.5723418,14.579771 31.6071625,14.0606424 L38.3438137,10.7760287 C39.5676,10.2548727 40.9875511,10.7728405 41.5828605,11.9575636 C42.1781699,13.1422868 41.7426355,14.5834034 40.5893642,15.2448909 L33.8527129,18.5295047 C33.4976428,18.7077207 33.1051613,18.799612 32.7074822,18.7976364 Z" id="Shape"></path>
                </g>
            </g>
        </g>
    </g>
</svg>