<?xml version="1.0" encoding="UTF-8"?>
<svg width="136px" height="55px" viewBox="0 0 136 55" version="1.1" xmlns="http://www.w3.org/2000/svg" xmlns:xlink="http://www.w3.org/1999/xlink">
    <!-- Generator: Sketch 52.5 (67469) - http://www.bohemiancoding.com/sketch -->
    <title>sparkles-2</title>
    <desc>Created with Sketch.</desc>
    <g id="sparkles-2" stroke="none" stroke-width="1" fill="none" fill-rule="evenodd">
        <g id="sparkles">
            <g id="shadow" transform="translate(0.000000, 42.000000)" fill-rule="nonzero">
                <ellipse id="Oval" fill="#00C6C6" opacity="0.15" cx="8.15940594" cy="7.27365306" rx="5.15138614" ry="5.15369388"></ellipse>
                <ellipse id="Oval" fill="#5FE1E1" cx="6.05257426" cy="5.16587755" rx="5.15138614" ry="5.15369388"></ellipse>
            </g>
            <g id="Sparkle--Dash-Copy-2" transform="translate(59.000000, 0.000000)" fill="#1E55EB" fill-rule="nonzero">
                <path d="M19.5247266,36.8271569 C18.4443297,36.8290525 17.5486595,35.9999847 17.4793792,34.9339023 C17.4100989,33.8678198 18.1910908,32.932223 19.2628479,32.7973787 C21.5301556,32.5124229 23.6960252,31.6968479 25.5806726,30.418353 C27.4514196,29.1241676 28.9923148,27.4177212 30.0817134,25.4337278 C30.4035629,24.7563789 31.0773081,24.3100604 31.8332729,24.2734176 C32.5892376,24.2367748 33.303901,24.615795 33.6912087,25.25877 C34.0785165,25.901745 34.0751844,26.7036156 33.6825462,27.3434219 C32.2991063,29.9161087 30.3260746,32.1330435 27.9212138,33.8169611 C25.4811941,35.4741875 22.6748146,36.5286509 19.7375031,36.8918923 L19.5247266,36.8271569 Z" id="Shape"></path>
                <path d="M9.82654945,34.9502137 C9.51506066,34.9498911 9.20855712,34.8655318 8.93474845,34.7047624 C6.53160864,33.3221627 4.46095378,31.3495194 2.88863996,28.9448381 C1.34083592,26.5054147 0.355995939,23.6997211 0.016738431,20.7631274 C-0.121002476,19.6425062 0.606486298,18.6131817 1.64163009,18.4640667 C2.67677388,18.3149518 3.62758478,19.1025133 3.76532569,20.2231345 C4.06337243,22.5254146 4.8724664,24.7151777 6.123308,26.6048689 C7.29762966,28.4599949 8.84881071,29.9993262 10.6578894,31.1048097 C11.4183852,31.549167 11.8034588,32.4954743 11.5930215,33.4028702 C11.3825842,34.3102661 10.6302801,34.9474393 9.76608836,34.9502137 L9.82654945,34.9502137 Z" id="Shape"></path>
                <path d="M3.98441665,11.6500712 C3.26572986,11.6490159 2.60034287,11.3015175 2.2315676,10.7346456 C1.86279233,10.1677737 1.84470923,9.46465949 2.18393074,8.88241051 C3.57158364,6.48934509 5.55052589,4.42863738 7.96185369,2.86575673 C10.4010718,1.32392207 13.20799,0.34372966 16.1458805,0.00784618544 C17.3074982,-0.0876873657 18.33345,0.700233822 18.437408,1.76771742 C18.5413661,2.83520101 17.6839635,3.77801269 16.5223458,3.87354624 C14.2603268,4.13957895 12.0999828,4.89759343 10.2206451,6.0846665 C8.34386294,7.285743 6.79716963,8.87189145 5.70306229,10.7174899 C5.3452146,11.2814645 4.69463111,11.6344879 3.98441665,11.6500712 Z" id="Shape"></path>
                <path d="M33.9516418,18.4130654 C32.9995759,18.4132988 32.1954508,17.6460205 32.0735864,16.6210669 C31.8063425,14.3438107 31.0431384,12.1684309 29.847182,10.2750903 C28.6360223,8.39600737 27.0390493,6.84824605 25.1823348,5.75399307 C24.3218209,5.18719559 24.0203316,3.98858809 24.4960917,3.0257503 C24.9718518,2.06291251 26.0585093,1.67250567 26.9695165,2.13711525 C29.3774795,3.52621524 31.4522902,5.50813287 33.0277597,7.92411976 C34.5781448,10.3753108 35.5649112,13.194052 35.9054252,16.1442966 C35.969811,16.6849895 35.8336268,17.2312954 35.5268476,17.662968 C35.2200685,18.0946407 34.7678394,18.3762984 34.2696995,18.4459461 L33.9516418,18.4130654 Z" id="Shape"></path>
            </g>
            <circle id="Circle-Fill" fill="#192D9B" cx="132" cy="51" r="4"></circle>
        </g>
    </g>
</svg>