<svg xmlns="http://www.w3.org/2000/svg" viewBox="0 0 120 120"><defs><style>.cls-1,.cls-15{opacity:0.3;}.cls-2,.cls-3{fill:#50aaff;}.cls-3,.cls-4,.cls-5,.cls-6,.cls-7{stroke:#50aaff;}.cls-10,.cls-11,.cls-13,.cls-21,.cls-3,.cls-4,.cls-5,.cls-7,.cls-9{stroke-linejoin:round;}.cls-10,.cls-11,.cls-21,.cls-3,.cls-4,.cls-5,.cls-9{stroke-width:2px;}.cls-10,.cls-11,.cls-12,.cls-13,.cls-21,.cls-4,.cls-5,.cls-6,.cls-7{fill:none;}.cls-11,.cls-12,.cls-13,.cls-21,.cls-5,.cls-6,.cls-7{stroke-linecap:round;}.cls-12,.cls-18,.cls-6{stroke-miterlimit:10;}.cls-13,.cls-7{stroke-width:3px;}.cls-8,.cls-9{fill:#ffebff;}.cls-10,.cls-11,.cls-12,.cls-13,.cls-18,.cls-9{stroke:#1e55eb;}.cls-14{fill:#e6f5ff;}.cls-15,.cls-16{fill:#3181ff;}.cls-17{fill:#e628e1;}.cls-18{fill:#1e55eb;}.cls-19{fill:#192d9b;}.cls-20{fill:#a409b8;}.cls-21{stroke:#192d9b;}</style></defs><title>sports</title><g id="sports"><g class="cls-1"><circle class="cls-2" cx="56.47" cy="58.59" r="39" transform="translate(-24.89 57.09) rotate(-45)"/><line class="cls-3" x1="84.05" y1="86.17" x2="28.89" y2="31.01"/><path class="cls-4" d="M30,87.28c-9.46-9-8.69-33.39,6.54-48.62S75.9,22.87,85.16,32.13"/><path class="cls-5" d="M90.1,60.77a35.12,35.12,0,0,1,2.57,12.79"/><path class="cls-6" d="M85.6,52.51a1.5,1.5,0,0,1-1.86-2.36,1.5,1.5,0,1,1,1.86,2.36Z"/><path class="cls-6" d="M88.91,58.05a1.5,1.5,0,0,1-1.42-2.64,1.5,1.5,0,1,1,1.42,2.64Z"/><path class="cls-5" d="M41,22.6s-3.35,2.49,3.69,9.53C52.36,39.81,68.26,34.5,81.73,48"/><path class="cls-4" d="M20.47,43.11S23,39.76,30,46.8c7.68,7.69,2.37,23.59,15.85,37.06A37.35,37.35,0,0,0,71.43,94.8"/><line class="cls-5" x1="16.37" y1="64.22" x2="19.34" y2="63.8"/><line class="cls-5" x1="15.99" y1="57.22" x2="18.99" y2="57.32"/><line class="cls-5" x1="16.84" y1="50.27" x2="19.77" y2="50.88"/><path class="cls-7" d="M19.84,45.16A39,39,0,1,1,19,69.51"/></g><circle class="cls-8" cx="53.47" cy="55.59" r="39" transform="translate(-23.65 54.09) rotate(-45)"/><line class="cls-9" x1="81.05" y1="83.17" x2="25.89" y2="28.01"/><path class="cls-10" d="M27,84.28c-9.46-9-8.69-33.39,6.54-48.62S72.9,19.87,82.16,29.13"/><path class="cls-11" d="M87.1,57.77a35.12,35.12,0,0,1,2.57,12.79"/><path class="cls-12" d="M82.6,49.51a1.5,1.5,0,0,1-1.86-2.36,1.5,1.5,0,1,1,1.86,2.36Z"/><path class="cls-12" d="M85.91,55.05a1.5,1.5,0,0,1-1.42-2.64,1.5,1.5,0,1,1,1.42,2.64Z"/><path class="cls-11" d="M38,19.6s-3.35,2.49,3.69,9.53C49.36,36.81,65.26,31.5,78.73,45"/><path class="cls-10" d="M17.47,40.11S20,36.76,27,43.8c7.68,7.69,2.37,23.59,15.85,37.06A37.35,37.35,0,0,0,68.43,91.8"/><line class="cls-11" x1="13.37" y1="61.22" x2="16.34" y2="60.8"/><line class="cls-11" x1="12.99" y1="54.22" x2="15.99" y2="54.32"/><line class="cls-11" x1="13.84" y1="47.27" x2="16.77" y2="47.88"/><path class="cls-13" d="M16.84,42.16A39,39,0,1,1,16,66.51"/><g class="cls-1"><circle class="cls-2" cx="85.55" cy="85.53" r="21.12"/><path class="cls-5" d="M86.21,64.29a15.5,15.5,0,0,0,20.56,20.6"/><line class="cls-5" x1="86.39" y1="69.01" x2="83.42" y2="68.62"/><line class="cls-5" x1="86.66" y1="74.09" x2="83.74" y2="74.79"/><line class="cls-5" x1="88.73" y1="78.74" x2="86.26" y2="80.44"/><line class="cls-5" x1="92.33" y1="82.34" x2="90.63" y2="84.81"/><line class="cls-5" x1="96.97" y1="84.43" x2="96.27" y2="87.34"/><line class="cls-5" x1="102.05" y1="84.71" x2="102.44" y2="87.68"/><path class="cls-5" d="M85,106.64A15.5,15.5,0,0,0,64.44,86.06"/><line class="cls-5" x1="84.83" y1="101.93" x2="87.81" y2="102.31"/><line class="cls-5" x1="84.56" y1="96.84" x2="87.48" y2="96.14"/><line class="cls-5" x1="82.48" y1="92.2" x2="84.95" y2="90.5"/><line class="cls-5" x1="78.88" y1="88.6" x2="80.59" y2="86.13"/><line class="cls-5" x1="74.24" y1="86.51" x2="74.94" y2="83.6"/><line class="cls-5" x1="69.16" y1="86.24" x2="68.77" y2="83.26"/><circle class="cls-7" cx="85.55" cy="85.53" r="21.12"/></g><circle class="cls-14" cx="82.55" cy="82.53" r="21.12"/><path class="cls-5" d="M83.21,61.29a15.5,15.5,0,0,0,20.56,20.6"/><line class="cls-5" x1="83.39" y1="66.01" x2="80.42" y2="65.62"/><line class="cls-5" x1="83.66" y1="71.09" x2="80.74" y2="71.79"/><line class="cls-5" x1="85.73" y1="75.74" x2="83.26" y2="77.44"/><line class="cls-5" x1="89.33" y1="79.34" x2="87.63" y2="81.81"/><line class="cls-5" x1="93.97" y1="81.43" x2="93.27" y2="84.34"/><line class="cls-5" x1="99.05" y1="81.71" x2="99.44" y2="84.68"/><path class="cls-5" d="M82,103.64A15.5,15.5,0,0,0,61.44,83.06"/><line class="cls-5" x1="81.83" y1="98.93" x2="84.81" y2="99.31"/><line class="cls-5" x1="81.56" y1="93.84" x2="84.48" y2="93.14"/><line class="cls-5" x1="79.48" y1="89.2" x2="81.95" y2="87.5"/><line class="cls-5" x1="75.88" y1="85.6" x2="77.59" y2="83.13"/><line class="cls-5" x1="71.24" y1="83.51" x2="71.94" y2="80.6"/><line class="cls-5" x1="66.16" y1="83.24" x2="65.77" y2="80.26"/><circle class="cls-13" cx="82.55" cy="82.53" r="21.12"/></g><g id="sparkles"><circle class="cls-15" cx="60.85" cy="111.52" r="3.88"/><circle class="cls-16" cx="59.15" cy="109.81" r="3.88"/><rect class="cls-17" x="25.96" y="0.92" width="4.2" height="4.2" transform="translate(6.09 20.73) rotate(-45)"/><circle class="cls-17" cx="19.46" cy="99.94" r="2.24"/><circle class="cls-18" cx="2.09" cy="50.79" r="1.59"/><circle class="cls-19" cx="94.73" cy="7.7" r="1.5"/><circle class="cls-16" cx="30.06" cy="118.46" r="1.5"/><circle class="cls-20" cx="118" cy="57.09" r="1.5"/><line class="cls-21" x1="109.56" y1="38.07" x2="106.86" y2="36.76"/><line class="cls-21" x1="102.72" y1="41.71" x2="103.14" y2="38.74"/><line class="cls-21" x1="97.15" y1="36.33" x2="100.11" y2="35.81"/><line class="cls-21" x1="100.54" y1="29.37" x2="101.96" y2="32.02"/><line class="cls-21" x1="108.21" y1="30.45" x2="106.13" y2="32.61"/></g></svg>