<?xml version="1.0" encoding="UTF-8"?>
<svg width="30px" height="30px" viewBox="0 0 30 30" version="1.1" xmlns="http://www.w3.org/2000/svg" xmlns:xlink="http://www.w3.org/1999/xlink">
    <!-- Generator: Sketch 52.5 (67469) - http://www.bohemiancoding.com/sketch -->
    <title>team-icon</title>
    <desc>Created with Sketch.</desc>
    <g id="team-icon" stroke="none" stroke-width="1" fill="none" fill-rule="evenodd">
        <g id="users" transform="translate(1.000000, 0.000000)" fill="#00C6C6">
            <g id="Users">
                <path d="M22.8414286,27.3271429 C22.8414286,24.1185714 19.7171429,22.4857143 16.6742857,21.1742857 C13.6414286,19.8685714 12.6728571,18.7685714 12.6728571,16.4114286 C12.6728571,14.9985714 13.5985714,15.4585714 14.0042857,12.8671429 C14.1757143,11.7928571 14.9928571,12.85 15.15,10.3971429 C15.15,9.42 14.7028571,9.17714286 14.7028571,9.17714286 C14.7028571,9.17714286 14.93,7.73 15.0185714,6.61571429 C15.11,5.44857143 14.45,2.95857143 11.7314286,2.19428571 C11.2571429,1.70714286 10.9357143,0.934285714 12.3985714,0.16 C9.19857143,0.0114285714 8.45428571,1.68571429 6.75,2.91714286 C5.3,3.99714286 4.90857143,5.70714286 4.97857143,6.61714286 C5.07142857,7.73142857 5.29714286,9.17857143 5.29714286,9.17857143 C5.29714286,9.17857143 4.84857143,9.42142857 4.84857143,10.3985714 C5.00571429,12.8528571 5.82571429,11.7942857 5.99571429,12.8685714 C6.40142857,15.46 7.32857143,15 7.32857143,16.4128571 C7.32857143,18.77 7.02571429,19.57 3.99142857,20.8757143 C0.947142857,22.1857143 0,24.2857143 0.0157142857,27.3271429 C0.02,28.2371429 0,28.5714286 0,28.5714286 L22.8571429,28.5714286 C22.8571429,28.5714286 22.8414286,28.2371429 22.8414286,27.3271429 L22.8414286,27.3271429 Z M26.4685714,19.0928571 C24.8471429,18.44 24.1757143,17.6614286 24.1757143,16.1414286 C24.1757143,15.2257143 24.7728571,15.5242857 25.0357143,13.8514286 C25.1457143,13.16 25.6742857,13.84 25.7757143,12.2585714 C25.7757143,11.6285714 25.4871429,11.4714286 25.4871429,11.4714286 C25.4871429,11.4714286 25.6342857,10.5342857 25.6914286,9.81571429 C25.7628571,8.92 25.1714286,6.60571429 22.4514286,6.60571429 C19.7328571,6.60571429 19.14,8.92 19.21,9.81571429 C19.27,10.5328571 19.4157143,11.4714286 19.4157143,11.4714286 C19.4157143,11.4714286 19.1271429,11.6271429 19.1271429,12.2585714 C19.2285714,13.84 19.7571429,13.16 19.8671429,13.8514286 C20.13,15.5257143 20.7271429,15.2271429 20.7271429,16.1414286 C20.7271429,17.6614286 20.1014286,18.3728571 18.1428571,19.2157143 C18.0442857,19.2571429 17.9714286,19.3128571 17.8814286,19.3614286 C20.2242857,20.3785714 23.9185714,22.1342857 24.7928571,25.7142857 L28.5714286,25.7142857 L28.5714286,22.4028571 C28.5714286,20.9742857 28.1814286,19.7828571 26.4685714,19.0928571 L26.4685714,19.0928571 Z" id="Shape"></path>
            </g>
        </g>
    </g>
</svg>