<svg id="Layer_1" data-name="Layer 1" xmlns="http://www.w3.org/2000/svg" viewBox="0 0 190 160"><defs><style>.cls-1{fill:#b4e6ff;opacity:0.5;}.cls-2,.cls-3{fill:#46cd69;}.cls-14,.cls-2,.cls-9{opacity:0.3;}.cls-16,.cls-17,.cls-18,.cls-19,.cls-20,.cls-21,.cls-27,.cls-28,.cls-29,.cls-32,.cls-33,.cls-34,.cls-4,.cls-7{fill:none;}.cls-4{stroke:#3181ff;}.cls-13,.cls-17,.cls-18,.cls-20,.cls-25,.cls-28,.cls-29,.cls-32,.cls-4,.cls-7,.cls-8{stroke-linecap:round;}.cls-12,.cls-19,.cls-20,.cls-21,.cls-24,.cls-32,.cls-33,.cls-34,.cls-37,.cls-4,.cls-8{stroke-linejoin:round;}.cls-11,.cls-13,.cls-17,.cls-18,.cls-19,.cls-23,.cls-25,.cls-28,.cls-29,.cls-33,.cls-4,.cls-7,.cls-8{stroke-width:2px;}.cls-38,.cls-5{fill:#3181ff;}.cls-6{fill:#192d9b;}.cls-7{stroke:#3648a8;}.cls-22,.cls-23,.cls-25,.cls-26,.cls-8{fill:#e6f5ff;}.cls-22,.cls-23,.cls-24,.cls-25,.cls-27,.cls-28,.cls-29,.cls-32,.cls-33,.cls-34,.cls-37,.cls-8{stroke:#1e55eb;}.cls-10,.cls-11,.cls-12,.cls-13,.cls-14,.cls-15{fill:#50aaff;}.cls-10,.cls-11,.cls-12,.cls-13,.cls-16,.cls-17,.cls-18,.cls-19,.cls-20,.cls-21{stroke:#50aaff;}.cls-10,.cls-16,.cls-17,.cls-22,.cls-27,.cls-28{stroke-miterlimit:2.61;}.cls-10,.cls-12,.cls-16,.cls-20,.cls-21,.cls-22,.cls-24,.cls-27,.cls-32,.cls-34,.cls-37{stroke-width:3px;}.cls-11,.cls-13,.cls-18,.cls-23,.cls-25,.cls-29{stroke-miterlimit:10;}.cls-24,.cls-31{fill:#f0ffd7;}.cls-30{fill:#1e55eb;}.cls-35,.cls-37{fill:#bbe8ff;}.cls-36{fill:#3b6bee;}.cls-38{opacity:0.15;}</style></defs><title>hr</title><circle class="cls-1" cx="129.97" cy="101.99" r="40.82"/><path class="cls-1" d="M26.9,135.66a79.09,79.09,0,0,1,70.41-124L94.18,57a33.67,33.67,0,0,0-30,52.77Z"/><circle class="cls-2" cx="185.85" cy="58.88" r="4.04"/><circle class="cls-3" cx="184.07" cy="57.1" r="4.04"/><rect class="cls-3" x="1.27" y="75.52" width="3.8" height="3.8" transform="translate(-53.82 24.91) rotate(-45)"/><line class="cls-4" x1="40.71" y1="34.91" x2="38.11" y2="33.41"/><line class="cls-4" x1="35.01" y1="38.82" x2="34.55" y2="35.85"/><line class="cls-4" x1="28.39" y1="36.8" x2="30.43" y2="34.6"/><line class="cls-4" x1="25.84" y1="30.37" x2="28.84" y2="30.58"/><line class="cls-4" x1="29.29" y1="24.37" x2="30.99" y2="26.84"/><line class="cls-4" x1="36.13" y1="23.32" x2="35.25" y2="26.19"/><line class="cls-4" x1="41.21" y1="28.01" x2="38.42" y2="29.11"/><circle class="cls-5" cx="17.93" cy="126.97" r="2.38"/><circle class="cls-6" cx="164.71" cy="18.19" r="1.27"/><circle class="cls-5" cx="164.71" cy="49.75" r="1.75"/><path class="cls-7" d="M173.54,141.13a7.73,7.73,0,0,1-5.8,4"/><path class="cls-7" d="M163.16,144.29a7.71,7.71,0,0,1-4-5.79"/><path class="cls-7" d="M160,133.92a7.71,7.71,0,0,1,5.8-4"/><path class="cls-7" d="M170.38,130.76a7.74,7.74,0,0,1,4,5.8"/><path class="cls-8" d="M65,113.62a4.53,4.53,0,0,0,4.44-5.43c-.48-2.37-1.37-4.38-2.86-5.3-3.5-2.17-13-6.89-13.05-7a.49.49,0,0,0-.17-.06l-.11-.76a.36.36,0,0,0-.54-.27l-.3.16V91.18A17.45,17.45,0,0,0,55.7,87.4a12.85,12.85,0,0,0,1.74-4.22,1.61,1.61,0,0,0,.33,0,1.7,1.7,0,0,0,1-.29,1.83,1.83,0,0,0,.71-1.46,10.86,10.86,0,0,1,.58-2.79,3.89,3.89,0,0,0,.27-1.44,1.83,1.83,0,0,0-1-1.57,2,2,0,0,0-1.52,0c.13-.61.23-1.21.31-1.79a13.27,13.27,0,0,0-.92-11.53C55.7,59.89,52.63,57,46.39,57c-3.46,0-5,1-5.73,2a6.73,6.73,0,0,0-5.74,2.84c-2.48,3.34-2.86,9.26-.86,13.47l.09.18a1.9,1.9,0,0,0-1,.17,1.82,1.82,0,0,0-1,1.57,3.73,3.73,0,0,0,.28,1.44A11.38,11.38,0,0,1,33,81.46a1.81,1.81,0,0,0,.72,1.46,1.65,1.65,0,0,0,1,.29l.29,0a12.8,12.8,0,0,0,1.74,4.21,17.51,17.51,0,0,0,3.89,4.23V95l-.26-.14a.37.37,0,0,0-.34,0,.35.35,0,0,0-.2.28l-.11.76a.49.49,0,0,0-.17.06c-.1.06-9.62,4.67-13.05,7-1.64,1.08-2.38,2.93-2.86,5.3A4.53,4.53,0,0,0,28,113.62Z"/><path class="cls-8" d="M162,113.62a4.53,4.53,0,0,0,4.43-5.43c-.48-2.37-1.37-4.38-2.86-5.3-3.5-2.17-12.95-6.89-13.05-7a.49.49,0,0,0-.17-.06l-.11-.76a.35.35,0,0,0-.2-.28.37.37,0,0,0-.34,0l-.3.16V91.18a17.45,17.45,0,0,0,3.34-3.78,12.88,12.88,0,0,0,1.75-4.22,1.51,1.51,0,0,0,.32,0,1.68,1.68,0,0,0,1-.29,1.83,1.83,0,0,0,.71-1.46,10.86,10.86,0,0,1,.58-2.79,3.52,3.52,0,0,0,.27-1.44,1.81,1.81,0,0,0-1-1.57,2,2,0,0,0-1.52,0c.13-.61.23-1.21.31-1.79a13.27,13.27,0,0,0-.92-11.53c-1.48-2.4-4.56-5.26-10.8-5.26-3.46,0-5,1-5.72,2a6.74,6.74,0,0,0-5.75,2.84c-2.48,3.34-2.86,9.26-.86,13.47l.09.18a1.93,1.93,0,0,0-1,.17,1.84,1.84,0,0,0-1,1.57,3.73,3.73,0,0,0,.28,1.44,11.3,11.3,0,0,1,.58,2.79,1.77,1.77,0,0,0,.71,1.46,1.67,1.67,0,0,0,1,.29l.29,0a12.8,12.8,0,0,0,1.74,4.21,17.71,17.71,0,0,0,3.89,4.23V95l-.26-.14a.36.36,0,0,0-.54.27l-.11.76a.49.49,0,0,0-.17.06c-.09.06-9.62,4.67-13.05,7-1.64,1.08-2.38,2.93-2.86,5.3a4.53,4.53,0,0,0,4.44,5.43Z"/><g class="cls-9"><polygon class="cls-10" points="107.04 126.27 84.35 126.23 85.35 86.64 108.04 86.67 107.04 126.27"/><rect class="cls-11" x="88.57" y="121.8" width="15.38" height="9.57"/><path class="cls-12" d="M119.76,73.24s0,9.79,4.1,17.05c-3.16,1.28-9.78,1.57-13.89.31S119.76,73.24,119.76,73.24Z"/><path class="cls-12" d="M73.5,73.24s0,9.79-4.11,17.05c3.16,1.28,9.79,1.57,13.89.31S73.5,73.24,73.5,73.24Z"/><path class="cls-13" d="M121.19,71.73S124.36,73,125,69.19c.85-4.85,3-6.83,2.81-8.62a3.18,3.18,0,0,0-4.69-2.74"/><path class="cls-13" d="M72.06,71.73S68.89,73,68.23,69.19c-.85-4.85-3-6.83-2.81-8.62a3.18,3.18,0,0,1,4.69-2.74"/><path class="cls-14" d="M99.05,28.71C83,28.71,71.7,39.94,73.78,66c.66,7.94,1.82,15.29,6,21.36,5.41,7.77,16.35,11.41,17.93,11.41h2.58c1.57,0,12.52-3.64,17.93-11.41,4.22-6.07,5.38-13.42,6-21.36C126.4,39.94,115.08,28.71,99.05,28.71Z"/><path class="cls-15" d="M96.62,26.28c16,0,27.35,11.24,25.27,37.26-.67,7.94-1.82,15.29-6,21.36-5.41,7.77-16.36,11.41-17.93,11.41H96.62"/><path class="cls-15" d="M96.62,26.28c-16,0-27.35,11.24-25.27,37.26C72,71.48,73.17,78.83,77.4,84.9c5.41,7.77,16.35,11.41,17.93,11.41h1.29"/><path class="cls-16" d="M96.62,26.28c16,0,27.35,11.24,25.27,37.26-.67,7.94-1.82,15.29-6,21.36-5.41,7.77-16.36,11.41-17.93,11.41H96.62"/><path class="cls-16" d="M96.62,26.28c-16,0-27.35,11.24-25.27,37.26C72,71.48,73.17,78.83,77.4,84.9c5.41,7.77,16.35,11.41,17.93,11.41h1.29"/><path class="cls-17" d="M91.5,61.44c3,6.49.09,11.23.09,11.23"/><path class="cls-18" d="M91.52,73c0,2.12,2.66,3.84,4.4,3.84S100,75.11,100,73"/><path class="cls-17" d="M113.24,57.65c-1.12-.51-1.61-1.41-2.92-1.39s-5.36.32-6.46.86"/><path class="cls-17" d="M90.94,57c-1.12-.51-6.12-.79-7.43-.77a7.28,7.28,0,0,0-3.28,1.23"/><path class="cls-15" d="M87.09,65a1.91,1.91,0,1,1-3.82,0V63.24a1.91,1.91,0,1,1,3.82,0Z"/><path class="cls-15" d="M110.56,65a1.92,1.92,0,1,1-3.83,0V63.24a1.92,1.92,0,1,1,3.83,0Z"/><path class="cls-17" d="M89.47,81.73a13.86,13.86,0,0,0,14.31,0"/><path class="cls-17" d="M99.09,87.46a8.2,8.2,0,0,0-5.06,0"/><path class="cls-12" d="M108.85,29.83c8.79-7.83,20.9,2.35,18.81,15.42-1.26,7.86-5.91,16.66-5.91,16.66s-.62-12-2-16.71S116.16,36.1,108.85,29.83Z"/><path class="cls-15" d="M100.93,21.4C76,17.79,63.64,37.17,63.93,53.56c.16,9.28,2.19,16.66,10.53,26.69a45.82,45.82,0,0,1-1.41-11.17,28.27,28.27,0,0,1,2.1-10.69c1.58-4,6.11-6.53,10.17-7.12,6.58-1,24.13,3.07,29-15.55C114.33,35.72,114.49,23.35,100.93,21.4Z"/><path class="cls-19" d="M112,41.08s-1.76-13.34-16.45-13C76.88,28.46,70.06,46,74.73,58.22"/><path class="cls-19" d="M109.31,46.06s-1.31-10-12.42-10c-8.17,0-15.41,5.38-14,16.18"/><path class="cls-17" d="M114.47,32.3s4.21-1.49,7.74,4.08c4.25,6.7,1.36,21.45,1.36,21.45"/><path class="cls-20" d="M63.93,53.56c.16,9.28,2.19,16.66,10.53,26.69a45.82,45.82,0,0,1-1.41-11.17,28.27,28.27,0,0,1,2.1-10.69c1.58-4,6.11-6.53,10.17-7.12,6.58-1,24.13,3.07,29-15.55,0,0,.16-12.37-13.4-14.32-8.65-1.25-15.79.26-21.41,3.46"/><line class="cls-19" x1="75.61" y1="28.87" x2="74.3" y2="27.35"/><line class="cls-19" x1="73" y1="31.44" x2="71.51" y2="30.11"/><line class="cls-19" x1="70.73" y1="34.33" x2="69.08" y2="33.19"/><line class="cls-19" x1="68.81" y1="37.47" x2="67.05" y2="36.54"/><line class="cls-19" x1="67.27" y1="40.82" x2="65.41" y2="40.09"/><line class="cls-19" x1="66.11" y1="44.32" x2="64.18" y2="43.8"/><line class="cls-19" x1="65.34" y1="47.93" x2="63.36" y2="47.62"/><path class="cls-21" d="M111.9,27.86c8.27-3.55,17.61,5.78,15.76,17.39-1.26,7.86-5.91,16.66-5.91,16.66s-.62-12-2-16.71a24.87,24.87,0,0,0-5.19-9.69"/><path class="cls-15" d="M138.84,109.68c-2.87-1.08-6.13-2.07-9.5-3.05-7.46-2.17-15.48-4.26-21.1-7.08,0,0,.19,7.14-.76,9.41-.78,1.88-2,5.59-7.24,5.53C98.76,117.17,98.6,125,98.53,131h42.13a6.69,6.69,0,0,0,6.63-6.87,15.6,15.6,0,0,1,0-1.6A12.74,12.74,0,0,0,138.84,109.68Z"/><path class="cls-15" d="M85.36,108.71c-.89-2.3-.54-9.42-.54-9.42-8.25,3.9-21.52,6.16-30.82,9.43a12.71,12.71,0,0,0-8.75,12.63,24.05,24.05,0,0,1-.08,2.55,6.68,6.68,0,0,0,6.62,7.1h42c.07-6,.09-13.88-1.34-16.6C87.21,114.34,86.1,110.61,85.36,108.71Z"/><path class="cls-15" d="M138.84,109.68c-2.87-1.08-6.13-2.07-9.5-3.05"/><path class="cls-15" d="M132.33,107.51a1.87,1.87,0,1,1,3.57,1.14,1.87,1.87,0,0,1-3.57-1.14Z"/><path class="cls-20" d="M129.34,106.63c-7.46-2.17-15.48-4.26-21.1-7.08,0,0,.19,7.14-.76,9.41-.78,1.88-2,5.53-7.24,5.47-1.48,2.68-1.64,10.19-1.71,16.45h42.13a6.63,6.63,0,0,0,6.63-6.81V122.5c0-5.31-2.19-10.45-8.46-12.82"/><path class="cls-12" d="M51.79,130.88h42c.07-6.27.09-13.82-1.34-16.54-5.27-.06-6.38-3.73-7.12-5.63-.89-2.3-.54-9.42-.54-9.42-8.25,3.9-21.52,6.16-30.82,9.43a12.79,12.79,0,0,0-8.83,12.63v2.49A6.63,6.63,0,0,0,51.79,130.88Z"/></g><polygon class="cls-22" points="104.04 123.27 81.35 123.23 82.35 83.64 105.04 83.67 104.04 123.27"/><rect class="cls-23" x="85.57" y="118.8" width="15.38" height="9.57"/><path class="cls-24" d="M116.76,70.24s0,9.79,4.1,17.05c-3.16,1.28-9.78,1.57-13.89.31S116.76,70.24,116.76,70.24Z"/><path class="cls-24" d="M70.5,70.24s0,9.79-4.11,17.05c3.16,1.28,9.79,1.57,13.89.31S70.5,70.24,70.5,70.24Z"/><path class="cls-25" d="M118.19,68.73S121.36,70,122,66.19c.85-4.85,3-6.83,2.81-8.62a3.18,3.18,0,0,0-4.69-2.74"/><path class="cls-25" d="M69.06,68.73S65.89,70,65.23,66.19c-.85-4.85-3-6.83-2.81-8.62a3.18,3.18,0,0,1,4.69-2.74"/><path class="cls-14" d="M96.05,25.71C80,25.71,68.7,36.94,70.78,63c.66,7.94,1.82,15.29,6,21.36,5.41,7.77,16.35,11.41,17.93,11.41h2.58c1.57,0,12.52-3.64,17.93-11.41,4.22-6.07,5.38-13.42,6-21.36C123.4,36.94,112.08,25.71,96.05,25.71Z"/><path class="cls-26" d="M93.62,23.28c16,0,27.35,11.24,25.27,37.26-.67,7.94-1.82,15.29-6,21.36-5.41,7.77-16.36,11.41-17.93,11.41H93.62"/><path class="cls-26" d="M93.62,23.28c-16,0-27.35,11.24-25.27,37.26C69,68.48,70.17,75.83,74.4,81.9c5.41,7.77,16.35,11.41,17.93,11.41h1.29"/><path class="cls-27" d="M93.62,23.28c16,0,27.35,11.24,25.27,37.26-.67,7.94-1.82,15.29-6,21.36-5.41,7.77-16.36,11.41-17.93,11.41H93.62"/><path class="cls-27" d="M93.62,23.28c-16,0-27.35,11.24-25.27,37.26C69,68.48,70.17,75.83,74.4,81.9c5.41,7.77,16.35,11.41,17.93,11.41h1.29"/><path class="cls-28" d="M88.5,58.44c3,6.49.09,11.23.09,11.23"/><path class="cls-29" d="M88.52,70c0,2.12,2.66,3.84,4.4,3.84S97,72.11,97,70"/><path class="cls-28" d="M110.24,54.65c-1.12-.51-1.61-1.41-2.92-1.39s-5.36.32-6.46.86"/><path class="cls-28" d="M87.94,54c-1.12-.51-6.12-.79-7.43-.77a7.28,7.28,0,0,0-3.28,1.23"/><path class="cls-30" d="M84.09,62a1.91,1.91,0,1,1-3.82,0V60.24a1.91,1.91,0,1,1,3.82,0Z"/><path class="cls-30" d="M107.56,62a1.92,1.92,0,1,1-3.83,0V60.24a1.92,1.92,0,1,1,3.83,0Z"/><path class="cls-28" d="M86.47,78.73a13.86,13.86,0,0,0,14.31,0"/><path class="cls-28" d="M96.09,84.46a8.2,8.2,0,0,0-5.06,0"/><path class="cls-24" d="M105.85,26.83c8.79-7.83,20.9,2.35,18.81,15.42-1.26,7.86-5.91,16.66-5.91,16.66s-.62-12-2-16.71S113.16,33.1,105.85,26.83Z"/><path class="cls-31" d="M97.93,18.4C73,14.79,60.64,34.17,60.93,50.56c.16,9.28,2.19,16.66,10.53,26.69a45.82,45.82,0,0,1-1.41-11.17,28.27,28.27,0,0,1,2.1-10.69c1.58-4,6.11-6.53,10.17-7.12,6.58-1,24.13,3.07,29-15.55C111.33,32.72,111.49,20.35,97.93,18.4Z"/><path class="cls-19" d="M109,38.08s-1.76-13.34-16.45-13C73.88,25.46,67.06,43,71.73,55.22"/><path class="cls-19" d="M106.31,43.06s-1.31-10-12.42-10c-8.17,0-15.41,5.38-14,16.18"/><path class="cls-17" d="M111.47,29.3s4.21-1.49,7.74,4.08c4.25,6.7,1.36,21.45,1.36,21.45"/><path class="cls-32" d="M60.93,50.56c.16,9.28,2.19,16.66,10.53,26.69a45.82,45.82,0,0,1-1.41-11.17,28.27,28.27,0,0,1,2.1-10.69c1.58-4,6.11-6.53,10.17-7.12,6.58-1,24.13,3.07,29-15.55,0,0,.16-12.37-13.4-14.32-8.65-1.25-15.79.26-21.41,3.46"/><line class="cls-33" x1="72.61" y1="25.87" x2="71.3" y2="24.35"/><line class="cls-33" x1="70" y1="28.44" x2="68.51" y2="27.11"/><line class="cls-33" x1="67.73" y1="31.33" x2="66.08" y2="30.19"/><line class="cls-33" x1="65.81" y1="34.47" x2="64.05" y2="33.54"/><line class="cls-33" x1="64.27" y1="37.82" x2="62.41" y2="37.09"/><line class="cls-33" x1="63.11" y1="41.32" x2="61.18" y2="40.8"/><line class="cls-33" x1="62.34" y1="44.93" x2="60.36" y2="44.62"/><path class="cls-34" d="M108.9,24.86c8.27-3.55,17.61,5.78,15.76,17.39-1.26,7.86-5.91,16.66-5.91,16.66s-.62-12-2-16.71a24.87,24.87,0,0,0-5.19-9.69"/><path class="cls-35" d="M135.84,106.68c-2.87-1.08-6.13-2.07-9.5-3.05-7.46-2.17-15.48-4.26-21.1-7.08,0,0,.19,7.14-.76,9.41-.78,1.88-2,5.59-7.24,5.53C95.76,114.17,95.6,122,95.53,128h42.13a6.69,6.69,0,0,0,6.63-6.87,15.6,15.6,0,0,1,0-1.6A12.74,12.74,0,0,0,135.84,106.68Z"/><path class="cls-35" d="M82.36,105.71c-.89-2.3-.54-9.42-.54-9.42-8.25,3.9-21.52,6.16-30.82,9.43a12.71,12.71,0,0,0-8.75,12.63,24.05,24.05,0,0,1-.08,2.55,6.68,6.68,0,0,0,6.62,7.1h42c.07-6,.09-13.88-1.34-16.6C84.21,111.34,83.1,107.61,82.36,105.71Z"/><path class="cls-35" d="M135.84,106.68c-2.87-1.08-6.13-2.07-9.5-3.05"/><path class="cls-36" d="M129.33,104.51a1.87,1.87,0,1,1,3.57,1.14,1.87,1.87,0,0,1-3.57-1.14Z"/><path class="cls-32" d="M126.34,103.63c-7.46-2.17-15.48-4.26-21.1-7.08,0,0,.19,7.14-.76,9.41-.78,1.88-2,5.53-7.24,5.47-1.48,2.68-1.64,10.19-1.71,16.45h42.13a6.63,6.63,0,0,0,6.63-6.81V119.5c0-5.31-2.19-10.45-8.46-12.82"/><path class="cls-37" d="M48.79,127.88h42c.07-6.27.09-13.82-1.34-16.54-5.27-.06-6.38-3.73-7.12-5.63-.89-2.3-.54-9.42-.54-9.42-8.25,3.9-21.52,6.16-30.82,9.43a12.79,12.79,0,0,0-8.83,12.63v2.49A6.63,6.63,0,0,0,48.79,127.88Z"/><circle class="cls-38" cx="126.4" cy="4.49" r="3.51"/><circle class="cls-5" cx="124.85" cy="2.95" r="3.51"/><circle class="cls-6" cx="52.99" cy="158.03" r="1.75"/></svg>