<svg xmlns="http://www.w3.org/2000/svg" viewBox="0 0 120 120"><defs><style>.cls-1{isolation:isolate;}.cls-2,.cls-3{fill:#3181ff;}.cls-10,.cls-2{opacity:0.3;}.cls-4{fill:#00c6c6;}.cls-5,.cls-6{fill:#192d9b;}.cls-6{stroke:#192d9b;}.cls-15,.cls-18,.cls-6{stroke-miterlimit:10;}.cls-7{fill:#00a0aa;}.cls-13,.cls-14,.cls-15,.cls-17,.cls-18,.cls-19,.cls-21,.cls-8{fill:none;}.cls-17,.cls-18,.cls-8,.cls-9{stroke:#1e55eb;}.cls-13,.cls-14,.cls-15,.cls-17,.cls-18,.cls-21,.cls-8{stroke-linecap:round;}.cls-11,.cls-13,.cls-14,.cls-17,.cls-19,.cls-8,.cls-9{stroke-linejoin:round;}.cls-13,.cls-21,.cls-8{stroke-width:2px;}.cls-9{fill:#bbe8ff;}.cls-11,.cls-19,.cls-9{stroke-width:3px;}.cls-10{mix-blend-mode:multiply;}.cls-11,.cls-12{fill:#50aaff;}.cls-11,.cls-13,.cls-14,.cls-15,.cls-19{stroke:#50aaff;}.cls-14,.cls-17{stroke-width:3.28px;}.cls-16{fill:#e6f5ff;}.cls-20{fill:#e1fffa;}.cls-21{stroke:#fff;stroke-miterlimit:2.61;}</style></defs><title>yoga</title><g class="cls-1"><g id="yoga"><g id="sparkles"><circle class="cls-2" cx="103" cy="109.15" r="3.88"/><circle class="cls-3" cx="101.29" cy="107.44" r="3.88"/><rect class="cls-4" x="114.92" y="40.56" width="4.2" height="4.2" transform="translate(4.11 95.24) rotate(-45)"/><circle class="cls-4" cx="43.6" cy="105.27" r="2.24"/><circle class="cls-5" cx="28.59" cy="118.41" r="1.59"/><circle class="cls-6" cx="92.36" cy="17.99" r="1"/><circle class="cls-5" cx="45.83" cy="1" r="1"/><circle class="cls-7" cx="2.37" cy="52.42" r="2"/><line class="cls-8" x1="28.27" y1="23.61" x2="26.22" y2="21.41"/><line class="cls-8" x1="20.72" y1="24.53" x2="22.18" y2="21.91"/><line class="cls-8" x1="17.51" y1="17.65" x2="20.45" y2="18.22"/><line class="cls-8" x1="23.06" y1="12.46" x2="23.43" y2="15.43"/><line class="cls-8" x1="29.72" y1="16.14" x2="27" y2="17.41"/></g><g id="lotus"><path class="cls-9" d="M74.8,62.6c0,16.55-14.8,30-14.8,30s-14.8-13.42-14.8-30,14.8-30,14.8-30S74.8,46,74.8,62.6Z"/><g class="cls-10"><path class="cls-11" d="M44.44,65.76C58.78,74,63,96.57,63,96.57s-19,3.11-33.36-5.16S11.08,63.6,11.08,63.6,30.1,57.49,44.44,65.76Z"/><path class="cls-11" d="M96.36,91.41C82,99.68,63,96.57,63,96.57S67.22,74,81.56,65.76s33.36-2.16,33.36-2.16S110.7,83.13,96.36,91.41Z"/><path class="cls-12" d="M28.93,44.5a49.4,49.4,0,0,1,1.27-5.29s21.37,4.62,30.43,20.3S63,96,63,96,41.63,91.4,32.57,75.71c-6.23-10.79-5-24-3.64-31.21"/><path class="cls-12" d="M79.82,89A38.88,38.88,0,0,0,93.43,75.71a34.26,34.26,0,0,0,3.72-9.83c2.92-13.36-1.35-26.67-1.35-26.67s-21.37,4.62-30.43,20.3S63,96,63,96A60.77,60.77,0,0,0,79.82,89Z"/><line class="cls-13" x1="83.28" y1="84.83" x2="85.12" y2="87.2"/><line class="cls-13" x1="87.83" y1="80.71" x2="90.02" y2="82.76"/><line class="cls-13" x1="91.56" y1="75.9" x2="94.1" y2="77.49"/><line class="cls-13" x1="94.25" y1="70.45" x2="97.06" y2="71.51"/><path class="cls-14" d="M97.15,65.88c2.92-13.36-1.35-26.67-1.35-26.67s-21.37,4.62-30.43,20.3S63,96,63,96a60.77,60.77,0,0,0,16.82-7"/><path class="cls-15" d="M28.31,48.45a1.5,1.5,0,0,1-.31,3,1.5,1.5,0,1,1,.31-3Z"/><path class="cls-14" d="M28.93,44.5a49.4,49.4,0,0,1,1.27-5.29s21.37,4.62,30.43,20.3S63,96,63,96,41.63,91.4,32.57,75.71c-3.75-6.49-4.8-13.87-4.74-20.28"/></g><path class="cls-9" d="M41.44,62.76C55.78,71,60,93.57,60,93.57s-19,3.11-33.36-5.16S8.08,60.6,8.08,60.6,27.1,54.49,41.44,62.76Z"/><path class="cls-9" d="M93.36,88.41C79,96.68,60,93.57,60,93.57S64.22,71,78.56,62.76s33.36-2.16,33.36-2.16S107.7,80.13,93.36,88.41Z"/><path class="cls-16" d="M25.93,41.5a49.4,49.4,0,0,1,1.27-5.29s21.37,4.62,30.43,20.3S60,93,60,93,38.63,88.4,29.57,72.71c-6.23-10.79-5-24-3.64-31.21"/><path class="cls-16" d="M76.82,86A38.88,38.88,0,0,0,90.43,72.71a34.26,34.26,0,0,0,3.72-9.83c2.92-13.36-1.35-26.67-1.35-26.67s-21.37,4.62-30.43,20.3S60,93,60,93A60.77,60.77,0,0,0,76.82,86Z"/><line class="cls-8" x1="80.28" y1="81.83" x2="82.12" y2="84.2"/><line class="cls-8" x1="84.83" y1="77.71" x2="87.02" y2="79.76"/><line class="cls-8" x1="88.56" y1="72.9" x2="91.1" y2="74.49"/><line class="cls-8" x1="91.25" y1="67.45" x2="94.06" y2="68.51"/><path class="cls-17" d="M94.15,62.88c2.92-13.36-1.35-26.67-1.35-26.67s-21.37,4.62-30.43,20.3S60,93,60,93a60.77,60.77,0,0,0,16.82-7"/><path class="cls-18" d="M25.31,45.45a1.5,1.5,0,0,1-.31,3,1.5,1.5,0,1,1,.31-3Z"/><path class="cls-17" d="M25.93,41.5a49.4,49.4,0,0,1,1.27-5.29s21.37,4.62,30.43,20.3S60,93,60,93,38.63,88.4,29.57,72.71c-3.75-6.49-4.8-13.87-4.74-20.28"/><g class="cls-10"><path class="cls-12" d="M82,55.51c0,23.21-18.75,38-18.75,38s-18.75-14.7-18.75-38c0-11.63,4.69-21.12,9.38-27.7a53.18,53.18,0,0,1,9.37-10.26S82,32.3,82,55.51Z"/><path class="cls-19" d="M82,55.51c0,23.21-18.75,38-18.75,38s-18.75-14.7-18.75-38c0-11.63,4.69-21.12,9.38-27.7a53.18,53.18,0,0,1,9.37-10.26S82,32.3,82,55.51Z"/></g><path class="cls-20" d="M78.75,54.42c0,23.22-18.75,38-18.75,38s-18.75-14.7-18.75-38c0-11.63,4.69-21.12,9.37-27.7A53.78,53.78,0,0,1,60,16.46S78.75,31.21,78.75,54.42Z"/><path class="cls-19" d="M78.75,54.42c0,23.22-18.75,38-18.75,38s-18.75-14.7-18.75-38c0-11.63,4.69-21.12,9.37-27.7A53.78,53.78,0,0,1,60,16.46S78.75,31.21,78.75,54.42Z"/><path class="cls-21" d="M57.93,26.77c.75-.84,1.45-1.56,2.06-2.16"/><path class="cls-21" d="M54,31.78c.36-.52.73-1,1.09-1.51"/><path class="cls-21" d="M60,84.24c-4.36-4.32-13.5-15.13-13.5-29.82A38.17,38.17,0,0,1,51,36.8"/></g></g></g></svg>